<svg width="212" height="300" viewBox="0 0 212 300" fill="none" xmlns="http://www.w3.org/2000/svg">
<g clip-path="url(#clip0_681_26)">
<path d="M96.8306 0.8074C94.1346 2.5969 92.6641 7.5793 92.4891 15.6144C92.314 23.439 93.1543 28.5614 95.3951 33.3334C97.0407 36.8773 100.997 40.8773 104.043 42.0703C106.774 43.158 106.844 43.2282 106.179 44.4913C105.478 45.8597 103.833 47.1931 102.292 47.7194C99.0714 48.772 92.9792 45.6843 88.1821 40.5264C85.8012 38.0001 84.4008 35.544 83.2103 31.7545C81.9499 27.7896 81.9849 19.2635 83.2804 14.2805C83.7005 12.7366 83.8756 12.5261 86.3264 11.1226C87.7619 10.3156 89.0224 9.4384 89.0924 9.1928C89.2675 8.5963 87.2718 8.63139 86.0113 9.29806C85.3811 9.61385 84.961 9.68402 84.961 9.4735C84.961 8.63139 86.6065 5.6139 88.3571 3.2981C89.3725 1.9297 90.2128 0.7016 90.2128 0.5613C90.2128 -0.000100017 89.3725 0.526212 87.4118 2.3508C85.3111 4.2806 83.5255 7.1578 82.5451 10.2104C82.265 11.1227 81.7748 11.649 80.6545 12.2455C79.8492 12.6666 77.9935 13.7192 76.558 14.5613C75.1225 15.4034 73.617 16.2806 73.1969 16.456C72.5316 16.7718 63.1129 22.9122 59.9269 25.1578C58.3514 26.2455 51.9792 31.228 51.6991 31.5788C51.594 31.6841 51.1739 32.035 50.7537 32.3157C49.2832 33.3332 44.1715 38.0701 39.3747 42.9117C35.1732 47.1222 33.1425 49.438 31.0418 52.4204C30.7617 52.8064 30.2365 53.4731 29.8864 53.859C29.5363 54.245 28.696 55.438 27.9957 56.4906C27.2955 57.5433 26.2101 59.2275 25.5799 60.1748C22.884 64.3152 18.9976 73.4378 17.6321 78.7708C17.5971 78.9463 17.422 79.3322 17.247 79.5778C17.1069 79.8235 17.0719 80.4199 17.177 80.9112C17.317 81.4024 17.247 81.7533 17.0369 81.7533C16.8619 81.7533 16.6868 82.1392 16.6868 82.5954C16.6868 83.0866 16.5117 83.8936 16.3017 84.455C16.0566 85.1217 16.0566 85.4726 16.3017 85.5428C16.5467 85.6129 16.4767 85.8936 16.1266 86.2094C15.7415 86.5954 15.7065 86.8761 15.9515 87.1217C16.4767 87.648 16.4417 88.0691 15.8815 88.0691C15.6014 88.0691 15.3913 88.2796 15.3563 88.4901C15.3563 88.7357 15.2863 89.9989 15.1813 91.2621C15.1112 92.5252 14.9712 93.7182 14.8662 93.8936C14.2359 95.0515 15.2163 109.367 15.9515 110.35C16.5117 111.052 17.0369 113.157 17.7372 117.157C18.3324 120.525 19.2077 124.701 19.9779 127.788C21.5535 133.999 26.2101 146.806 28.1358 150.174C30.4466 154.245 31.1118 155.508 30.9718 155.648C30.8667 155.718 29.5713 155.543 28.0307 155.227C24.3895 154.49 15.0067 154.49 11.4697 155.227C7.79344 155.999 4.88744 157.543 2.50664 159.999C1.38624 161.122 0.335843 162.315 0.160843 162.595C-0.329327 163.473 0.370913 163.262 1.31624 162.245C1.77139 161.753 3.10184 160.666 4.25724 159.859C7.96854 157.192 11.4347 156.35 18.6122 156.35C26.0347 156.35 31.5662 157.438 32.2672 159.017C32.4773 159.438 32.9675 159.894 33.3876 159.999C33.9828 160.139 34.0878 160.315 33.8428 160.701C32.9675 162.034 33.7027 164.876 35.4533 167.192C37.0639 169.332 37.449 168.595 35.9435 166.245C34.473 163.964 34.1229 162.174 35.0332 161.438C35.4533 161.087 35.8385 161.157 36.9588 161.824C38.4294 162.666 38.6394 162.946 38.0442 163.332C37.8342 163.473 37.9042 163.929 38.2193 164.595C38.8145 165.718 38.7445 170.631 38.0442 175.087C37.8692 176.35 37.6941 178.28 37.6941 179.367C37.6941 180.49 37.5891 181.403 37.484 181.403C37.379 181.403 36.3286 180.911 35.1732 180.28C33.0375 179.157 29.2562 175.367 27.2955 172.49C21.8686 164.42 17.6321 160.771 13.3605 160.455C11.2598 160.28 9.47424 161.227 9.12414 162.631C8.80903 163.894 9.12414 164.034 10.2795 163.192C11.6099 162.21 14.0258 162.139 15.8114 163.087C18.5774 164.525 19.4176 165.332 24.7395 171.788C28.976 176.876 31.0417 178.806 33.9477 180.315C35.4882 181.122 36.9237 181.753 37.1688 181.753C37.4489 181.753 37.799 182.49 38.0441 183.648C38.2542 184.701 38.7444 185.999 39.1645 186.49C39.6547 187.122 39.8297 187.718 39.6897 188.525C39.5146 189.894 39.9348 191.227 40.6 191.227C40.9501 191.227 41.1952 191.824 41.3353 192.946C41.4403 193.894 41.7904 194.841 42.0705 195.087C42.3506 195.332 42.5957 195.894 42.5957 196.385C42.5957 197.508 43.6461 201.824 44.0312 202.28C44.2063 202.455 44.3463 202.911 44.3463 203.262C44.3463 204.069 46.412 210.911 46.8322 211.403C46.9722 211.613 47.1823 212.174 47.2523 212.666C47.3574 213.192 47.7775 214.245 48.1626 215.052C48.5828 215.824 48.8279 216.49 48.7228 216.49C48.6178 216.49 49.5981 218.49 50.8586 220.946C54.1847 227.367 54.1497 227.332 54.5349 227.578C54.7449 227.683 55.025 228.174 55.2001 228.631C55.3752 229.087 55.6903 229.473 55.9003 229.473C56.1104 229.473 56.1104 229.192 55.9353 228.666C55.3752 227.332 52.8893 221.332 51.5238 218.245C50.0883 214.981 48.4778 210.736 47.5324 207.683C47.0072 206.069 46.9372 205.052 47.1473 202.069C47.2873 200.069 47.3574 196.981 47.3574 195.262C47.3224 192.28 47.2873 192.104 46.5521 191.999C45.9219 191.894 45.7118 192.139 45.4317 193.227C45.2216 193.964 45.0466 194.911 45.0466 195.332C45.0466 195.788 44.8715 196.139 44.6614 196.139C44.4514 196.139 44.3813 195.859 44.4864 195.508C44.9765 193.859 46.202 186.28 45.9919 186.104C45.3967 185.473 44.7665 186.911 44.1713 190.245C44.0662 190.981 43.8211 191.578 43.6461 191.578C43.2259 191.578 43.0509 189.859 43.366 188.771C43.471 188.28 44.0312 185.964 44.5564 183.578C45.3617 180.069 45.6418 179.332 46.0969 179.508C47.2873 180.034 48.7228 179.613 49.9483 178.42C50.6485 177.753 51.2787 177.192 51.4188 177.192C51.5238 177.192 52.189 178.104 52.9243 179.192C54.5699 181.718 56.9157 184.56 57.3358 184.56C57.756 184.56 56.6006 181.964 54.885 179.192C54.1147 177.894 53.4495 176.736 53.4495 176.631C53.4495 176.525 53.1344 175.964 52.7142 175.403C51.7339 173.999 50.7535 174.139 48.8979 175.964C48.0226 176.841 47.1473 177.543 46.9372 177.543C46.377 177.543 46.0969 176.35 46.0969 173.999C46.0969 171.648 46.8322 169.999 48.3377 169.087L49.4231 168.42L51.2437 170.245C53.3444 172.35 53.7296 171.894 51.8389 169.578C51.1387 168.736 50.6135 167.964 50.6835 167.929C50.9286 167.683 56.0404 165.999 56.1454 166.104C56.2154 166.139 55.9353 166.981 55.5152 167.894C54.6049 169.929 54.7099 172.911 55.8653 177.262C57.2308 182.595 57.931 183.578 64.1632 189.473C66.1939 191.367 66.2289 191.403 68.6798 191.508C73.0213 191.753 91.5428 187.473 99.0358 184.49C101.977 183.332 104.918 181.613 104.918 181.052C104.918 180.56 104.848 180.595 102.748 181.543C100.752 182.455 96.2698 183.929 90.9125 185.403C85.9758 186.771 71.7955 189.824 69.3445 190.069L67.2438 190.28L64.3728 187.718C61.2567 184.946 60.2413 183.753 59.121 181.543C58.1756 179.683 57.0552 175.262 56.7751 172.28L56.5301 169.964L60.3464 167.999C62.4121 166.946 65.2481 165.648 66.5786 165.157C69.2045 164.174 73.9661 162.806 74.7364 162.806C74.9815 162.806 74.1062 163.613 72.8107 164.595C69.5546 167.052 68.2241 168.35 67.4188 169.894C66.3685 171.929 67.2088 171.753 69.3795 169.508C70.4999 168.35 72.4256 166.701 73.721 165.859C76.1719 164.21 79.0079 162.666 79.0079 162.981C79.0079 163.543 76.0318 165.753 75.2266 165.788C74.1062 165.788 73.9311 166.42 74.4563 168.49C75.1916 171.192 78.9028 173.999 81.8439 174.034C82.6491 174.069 82.6491 174.069 81.9839 174.455C81.6338 174.666 79.8132 174.911 77.9575 175.017C74.0712 175.192 72.8107 174.736 70.4649 172.315C68.9594 170.771 68.2941 170.701 68.9244 172.21C70.64 176.245 76.0318 177.859 82.3344 176.139C83.875 175.753 86.956 174.666 89.1618 173.788C93.8534 171.929 102.466 167.788 102.466 167.403C102.466 166.455 101.066 166.876 93.2931 170.315C90.8072 171.403 88.7065 172.28 88.5664 172.28C88.4614 172.28 88.6014 171.999 88.9165 171.648C90.5271 169.859 91.7875 164.42 90.9472 162.841C90.352 161.753 90.0019 162.174 89.7218 164.245C89.3717 166.736 88.4264 169.122 87.0609 170.841C85.9405 172.21 85.8004 172.28 83.9448 172.28C81.9141 172.245 79.3932 171.473 77.9577 170.455C77.2925 169.964 77.2225 169.753 77.6076 169.332C77.8527 169.017 77.9577 168.525 77.8177 168.245C77.6076 167.613 77.8877 166.666 78.3429 166.666C78.5179 166.666 78.658 166.876 78.658 167.157C78.658 168.069 80.4436 169.788 81.704 170.139C83.3496 170.595 85.6604 170.034 86.9208 168.876C87.6911 168.174 87.7961 167.824 87.6561 166.841C87.5511 166.174 87.6211 165.543 87.7961 165.403C88.4264 165.017 87.7261 164.56 86.5357 164.56C85.0652 164.56 83.5597 163.894 83.5597 163.297C83.5597 162.771 84.8901 161.929 85.2052 162.245C85.3453 162.35 85.6604 162.139 85.9055 161.753C86.3256 161.157 86.7108 161.052 88.6014 161.192C91.5074 161.332 94.9036 162.981 97.0394 165.297C97.9147 166.245 98.7199 167.017 98.825 167.017C98.93 167.017 98.5799 166.21 98.0197 165.262C97.4245 164.245 96.1991 162.876 95.1487 162.104L93.2931 160.701L96.1991 160.666C103.552 160.525 113.145 160.771 113.635 161.052C114.02 161.262 114.055 161.367 113.74 161.403C113.495 161.403 112.55 162.104 111.605 162.981L109.924 164.56L109.294 163.157C108.559 161.543 107.298 160.981 106.423 161.859C105.688 162.56 106.073 163.508 106.948 163.262C108.348 162.911 108.594 166.315 107.683 173.367C107.018 178.806 106.983 180.736 107.613 184.631C107.858 186.174 108.243 186.385 108.278 184.981C108.313 182.174 109.469 173.718 110.309 169.824C110.939 166.946 111.43 165.613 111.955 165.613C112.165 165.613 112.9 165.157 113.565 164.56C115.106 163.192 116.786 163.157 118.642 164.42C120.183 165.508 121.653 167.683 123.824 171.999C124.664 173.718 125.469 175.087 125.609 175.087C125.75 175.087 125.645 174.35 125.364 173.438C125.084 172.56 124.944 171.753 125.014 171.648C125.119 171.578 125.75 172.385 126.485 173.473C127.185 174.56 127.99 175.438 128.235 175.438C128.831 175.438 128.656 174.981 126.485 170.631C123.789 165.227 123.194 161.262 124.664 158.21C125.329 156.806 128.06 154.981 128.305 155.753C128.41 156.034 128.621 155.964 128.936 155.508C130.126 153.788 143.151 150.069 150.503 149.332L152.464 149.122L153.899 150.736C155.265 152.315 155.825 152.49 154.88 151.052C153.514 149.052 153.584 148.981 157.681 149.227C162.232 149.508 166.609 150.245 168.359 151.017C170.04 151.753 170.285 151.718 169.55 150.911C168.78 150.069 164.963 148.315 163.878 148.315C163.423 148.315 163.143 148.174 163.283 147.964C163.598 147.473 177.322 147.824 178.373 148.385C178.793 148.595 179.143 149.087 179.143 149.473C179.143 149.859 179.458 150.315 179.843 150.525C180.334 150.771 180.544 151.262 180.544 152.034C180.544 153.964 180.193 154.174 176.972 154.21C175.362 154.245 173.786 154.385 173.471 154.525C173.016 154.736 172.806 154.595 172.631 153.788C171.966 150.806 171.721 150.139 171.335 150.28C171.09 150.385 170.95 150.631 170.985 150.841C171.055 151.052 171.16 153.227 171.23 155.683C171.335 158.911 171.195 161.367 170.705 164.385C170.355 166.701 170.075 168.701 170.075 168.841C170.04 169.157 164.963 171.753 161.637 173.157C159.396 174.104 150.923 176.631 148.612 177.017C147.982 177.122 146.582 177.438 145.531 177.718C139.649 179.157 133.207 179.508 131.246 178.455C130.616 178.139 129.916 177.473 129.706 177.017C129.216 175.929 128.726 176.21 128.726 177.543C128.726 178.315 129.041 178.806 130.021 179.543C131.176 180.455 131.562 180.525 134.993 180.631C138.004 180.736 139.579 180.595 143.256 179.824C155.79 177.262 163.808 174.455 168.009 171.157C169.41 170.069 170.075 170.069 169.795 171.227C169.69 171.613 169.795 171.929 169.97 171.929C170.53 171.929 171.02 170.876 171.475 168.806C171.686 167.824 172.001 167.087 172.141 167.192C172.316 167.297 172.386 167.648 172.246 167.999C172.141 168.385 172.246 168.315 172.631 167.824C173.226 167.017 174.942 159.613 174.942 157.859C174.942 156.631 175.677 156.069 177.217 156.069C178.758 156.069 179.493 156.631 179.493 157.859C179.493 158.35 180.439 160.631 181.559 162.911C182.714 165.192 183.8 167.543 183.975 168.174C184.57 170.069 184.78 172.28 184.395 172.28C184.22 172.28 184.045 172.034 184.045 171.718C184.045 170.771 181.944 165.824 181.174 164.981C180.754 164.56 180.123 164.21 179.738 164.21C179.178 164.21 179.108 164.385 179.283 165.157C179.493 165.929 181.699 171.543 182.889 174.315C182.994 174.595 182.889 174.666 182.539 174.525C181.594 174.174 181.559 175.052 182.469 177.999C183.38 181.052 184.045 186.139 183.695 187.227C183.52 187.718 183.17 187.332 182.294 185.648C181.034 183.262 179.283 181.157 178.898 181.543C178.758 181.683 179.073 182.139 179.563 182.56C180.404 183.262 182.504 186.981 183.31 189.192C183.485 189.683 183.52 190.56 183.38 191.122L183.099 192.104L182.679 190.631C182.469 189.824 182.119 189.052 181.944 188.946C181.419 188.595 181.524 191.297 182.119 192.981C182.399 193.788 182.644 194.876 182.609 195.403L182.574 196.315L182.294 195.438C182.154 194.946 181.804 193.824 181.559 192.876C181.104 191.262 180.544 190.666 180.544 191.788C180.544 192.631 181.594 197.227 182.084 198.42C182.539 199.613 182.434 201.859 181.909 201.578C181.734 201.438 181.594 201.087 181.594 200.736C181.594 200.385 181.349 199.894 181.069 199.648C180.649 199.297 180.579 199.578 180.579 201.718C180.579 204.56 180.404 206.21 179.458 211.017C177.322 221.718 172.666 230.455 164.998 237.964C161.917 241.017 161.847 241.052 160.096 241.087C158.451 241.122 158.381 241.157 159.291 241.508C159.816 241.718 160.237 242.034 160.237 242.174C160.237 242.701 159.326 242.841 158.311 242.455C157.786 242.245 157.261 242.174 157.155 242.245C157.05 242.35 157.436 242.595 157.996 242.806L158.976 243.192L157.961 244.034C156.665 245.087 156.245 245.122 155.58 244.139C155.265 243.683 155.02 243.508 155.02 243.753C154.985 243.964 155.265 244.42 155.58 244.771C156.14 245.297 156.14 245.367 155.475 245.859C153.619 247.262 153.234 247.157 152.604 244.911C152.324 243.964 152.254 243.859 152.219 244.49C152.184 244.946 152.464 245.788 152.814 246.385C153.409 247.403 153.409 247.438 152.569 248.104L151.729 248.806L150.783 247.894C150.293 247.403 149.628 247.017 149.348 247.017C149.068 247.052 149.383 247.473 150.083 248.069L151.273 249.122L150.188 250.21L149.103 251.332L148.017 250.56C147.422 250.139 146.932 249.613 146.932 249.403C146.932 249.192 147.177 249.227 147.562 249.508C148.052 249.894 148.052 249.859 147.492 249.227C146.862 248.455 146.232 248.455 146.232 249.157C146.232 249.367 146.827 250.034 147.527 250.701L148.858 251.894L148.087 252.631C147.037 253.578 146.792 253.543 145.181 252.069C143.466 250.49 143.396 250.876 145.006 252.946C146.372 254.631 146.372 254.701 145.882 255.438C145.566 255.859 145.286 255.683 144.131 254.385C142.555 252.595 142.345 252.841 143.606 254.911C144.621 256.525 144.691 257.262 143.956 257.894C143.536 258.245 143.256 258.139 142.345 257.157L141.26 255.999L141.505 257.403C141.61 258.139 141.785 259.122 141.855 259.508C142.065 260.455 141.225 261.262 140.735 260.631C140.56 260.385 140.28 259.894 140.175 259.578C140.035 259.227 139.719 258.946 139.439 258.946C138.914 258.946 137.829 261.297 137.829 262.56V263.332L137.164 262.49C136.813 262.034 136.358 261.753 136.148 261.894C135.728 262.139 134.678 265.087 134.678 265.929C134.713 266.35 136.078 263.017 136.078 262.56C136.078 262.49 136.218 262.455 136.358 262.455C136.533 262.455 136.918 263.017 137.234 263.683L137.794 264.876L136.638 265.788C136.008 266.28 135.238 266.666 134.923 266.666C134.643 266.666 134.328 266.876 134.222 267.087C133.872 268.069 133.697 267.087 133.977 265.683C134.363 263.508 133.662 263.788 131.772 266.525C130.896 267.788 130.126 268.595 130.056 268.385C129.951 268.069 129.811 268.139 129.671 268.56C129.531 268.911 129.566 269.087 129.776 268.946C129.986 268.841 130.126 268.911 130.126 269.087C130.126 269.297 129.881 269.473 129.601 269.473C129.321 269.473 129.076 269.613 129.076 269.788C129.076 270.21 125.645 271.648 125.224 271.403C125.049 271.297 124.839 271.367 124.699 271.578C124.419 272.034 122.423 272.034 122.423 271.543C122.423 271.332 122.809 270.666 123.264 270.069C123.684 269.438 124.174 268.701 124.314 268.42C124.699 267.683 123.229 269.438 122.528 270.595C121.828 271.718 121.793 271.718 120.883 271.052C120.288 270.595 120.288 270.49 121.548 268.876L122.844 267.192L121.478 268.666C120.743 269.508 119.938 270.174 119.727 270.174C118.852 270.174 118.922 269.438 119.903 267.999C121.058 266.28 121.828 264.911 121.583 264.911C121.513 264.911 120.848 265.859 120.113 267.017C119.342 268.174 118.642 269.122 118.502 269.122C118.082 269.122 118.152 268.946 118.887 267.648C119.797 266.174 120.743 263.859 120.498 263.859C120.393 263.859 120.043 264.455 119.762 265.157C119.062 266.841 117.837 268.841 117.627 268.666C117.557 268.56 117.977 267.297 118.572 265.788C119.167 264.28 119.587 262.981 119.482 262.911C119.412 262.841 118.887 263.964 118.362 265.403C117.802 266.876 117.277 268.069 117.137 268.069C117.032 268.069 116.646 267.753 116.296 267.367C115.666 266.666 115.666 266.595 116.436 264.806C117.487 262.455 117.767 261.087 116.786 263.157C116.401 264.034 115.911 265.087 115.736 265.508C115.386 266.455 115.141 266.49 114.231 265.788C113.635 265.332 113.635 265.192 114.055 264.666C114.476 264.104 114.476 264.069 113.985 264.455C113.495 264.876 111.92 264.701 111.92 264.28C111.92 264.139 112.34 263.683 112.9 263.227L113.845 262.385L112.55 263.157C110.694 264.21 110.834 263.403 112.865 261.227L114.546 259.473L112.55 261.367C111.184 262.701 110.624 263.052 110.729 262.56C110.834 262.139 111.395 261.367 111.955 260.841C112.515 260.315 112.97 259.753 112.97 259.613C112.97 259.473 112.2 260.139 111.29 261.122L109.609 262.876L108.629 262.069L107.648 261.227L108.348 260.35C109.224 259.227 110.029 256.946 109.679 256.595C109.539 256.455 108.804 256.701 108.033 257.122C107.298 257.543 106.668 257.824 106.668 257.753C106.668 257.648 106.983 257.017 107.403 256.35C108.594 254.315 107.963 254.911 106.493 257.192C105.057 259.438 104.742 259.543 102.922 258.385C102.501 258.104 101.836 257.894 101.416 257.894C101.031 257.894 100.716 257.753 100.716 257.578C100.716 257.297 102.536 255.964 104.042 255.122C105.232 254.49 104.112 254.701 101.416 255.613C96.9696 257.122 96.1293 256.56 100.366 254.876C101.731 254.35 102.817 253.824 102.817 253.683C102.817 253.578 101.661 253.753 100.296 254.104C97.1097 254.911 93.3634 255.227 92.6631 254.771C92.383 254.595 92.243 254.35 92.313 254.28C92.5231 254.139 97.985 252.139 99.7706 251.578C100.506 251.332 101.031 251.087 100.961 251.017C100.856 250.911 98.2651 251.508 95.149 252.28L89.477 253.718L86.431 252.595C78.3782 249.578 70.5 244.841 62.203 238.069C56.496 233.403 56.496 233.403 53.555 229.929C52.3646 228.56 51.3142 227.508 51.2092 227.613C50.684 228.174 53.52 232.35 56.426 235.297C63.6735 242.631 74.002 249.718 82.965 253.543C84.4355 254.174 85.2758 254.701 85.1707 254.981C85.0307 255.297 85.2758 255.367 85.941 255.227C86.5362 255.122 88.707 255.613 91.788 256.595C94.484 257.473 97.0048 258.245 97.39 258.35C98.7905 258.736 102.081 259.964 102.817 260.35C103.377 260.631 103.517 260.981 103.377 261.508C103.272 261.964 103.937 264.21 105.092 267.227C106.143 269.964 107.018 272.385 107.018 272.56C107.018 272.771 106.283 272.876 105.372 272.876C102.361 272.771 100.331 275.227 99.3156 280.104C98.9305 281.964 98.8605 282.104 98.1602 281.859C95.5343 280.946 91.5429 282.841 87.5862 286.806C86.0456 288.385 84.5051 290.174 84.19 290.806C83.6648 291.788 83.4197 291.929 82.1943 291.929C81.0389 291.929 80.5837 292.174 79.2533 293.473C77.6077 295.087 74.4566 299.157 74.4566 299.683C74.4566 299.859 75.1218 299.999 75.9621 299.999C77.3626 299.999 77.5727 299.859 78.7981 298.245C80.4087 296.104 82.8945 293.929 83.2447 294.28C83.3847 294.455 83.8749 295.753 84.33 297.192C85.1703 299.788 85.2053 299.824 86.4658 299.929C87.166 299.999 87.7612 299.999 87.7612 299.929C87.7612 299.543 85.6955 293.332 85.3454 292.701C84.9603 291.999 85.2053 291.683 87.9363 288.946C89.5819 287.297 91.1574 285.964 91.4375 285.964C92.1728 285.964 92.5229 287.403 93.2231 292.981C93.2932 293.473 93.4332 295.227 93.5733 296.946L93.8183 299.999H96.5493L96.3392 296.911C96.0591 292.666 95.4989 289.297 94.7287 287.052C94.3435 285.999 94.0634 284.946 94.0634 284.701C94.0634 283.964 96.6193 283.403 97.7397 283.929C98.65 284.35 98.65 284.35 98.545 287.859C98.3699 294.28 98.58 299.473 99.0001 299.052C99.4903 298.56 99.5253 298.245 100.191 291.578C101.276 280.946 102.677 276.034 104.882 275.087C106.703 274.35 107.543 274.806 107.998 276.876C108.243 277.894 108.384 278.771 108.278 278.841C108.208 278.911 107.823 278.42 107.403 277.718C106.528 276.245 105.723 276.245 105.898 277.718C106.213 280.245 109.259 285.508 114.126 291.929C115.666 293.964 116.997 295.683 117.032 295.753C117.102 295.824 117.242 295.824 117.347 295.753C117.592 295.473 116.226 292.841 113.67 288.595C110.134 282.771 110.134 282.771 109.994 279.192C109.819 275.052 109.014 270.946 107.683 267.297C106.143 263.122 106.108 262.911 106.703 263.367C106.983 263.578 108.454 264.666 109.994 265.788C113.635 268.455 116.121 270.56 116.121 270.946C116.121 271.403 117.032 272.28 117.487 272.28C117.697 272.28 117.872 272.49 117.872 272.771C117.872 273.017 118.152 273.332 118.502 273.438C118.817 273.578 119.517 273.999 120.078 274.455C121.338 275.473 124.699 275.718 127.29 274.946C129.321 274.35 136.498 270.525 137.724 269.367C138.179 268.981 138.599 268.736 138.704 268.841C138.809 268.946 138.109 270.595 137.164 272.49C133.592 279.613 130.406 289.403 131.176 290.876C131.422 291.332 131.772 291.543 132.122 291.438C132.402 291.332 132.752 291.227 132.927 291.227C133.067 291.227 133.452 290.245 133.767 289.017C135.203 283.718 138.214 276.315 138.914 276.315C139.684 276.315 140.56 278.525 142.03 284.245C143.711 290.841 144.586 293.473 145.706 295.157C146.862 296.876 147.457 296.876 146.722 295.157C145.952 293.332 145.391 291.052 144.341 285.543C143.151 279.367 142.31 276.631 140.945 274.771L139.894 273.262L143.186 267.087C145.006 263.683 147.142 259.578 147.947 257.999C148.718 256.42 150.118 254.21 151.028 253.087C152.884 250.771 155.65 248.069 156.105 248.069C156.98 248.069 164.928 241.929 168.044 238.841C170.635 236.245 174.767 230.806 176.097 228.245C178.758 223.157 180.894 216.455 181.524 211.297L181.769 209.297L184.15 209.052C188.701 208.595 191.117 206.28 194.829 198.736C196.999 194.385 197.279 193.543 196.684 193.192C196.194 192.876 195.074 194.42 192.973 198.42C191.888 200.525 190.347 202.981 189.612 203.859C188.071 205.718 185.13 207.578 183.275 207.894C182.049 208.139 181.944 208.069 181.944 207.332C181.944 206.876 182.259 205.367 182.644 204.034C183.029 202.666 183.59 200.245 183.905 198.595C184.535 195.192 184.745 194.701 185.13 195.648C185.305 196.034 185.375 195.122 185.34 193.508C185.305 191.964 185.585 188.876 185.935 186.666C186.636 182.49 186.916 173.297 186.426 169.473C186.041 166.245 185.095 161.052 184.325 157.929C183.695 155.262 183.66 154.946 184.185 154.666C184.535 154.455 184.745 153.894 184.745 153.052C184.745 150.455 185.34 149.332 188.351 146.28C193.183 141.367 201.166 137.192 205.822 137.192C207.538 137.157 207.608 137.122 207.013 136.666C205.962 135.859 204.072 135.648 201.831 136.069C199.555 136.49 193.848 139.052 191.923 140.56C191.257 141.087 190.592 141.438 190.522 141.332C190.417 141.262 190.872 139.929 191.537 138.385C192.168 136.876 193.288 134.174 194.023 132.455C194.759 130.701 195.844 128.174 196.474 126.841C197.069 125.473 197.805 123.753 198.05 122.981C198.295 122.21 198.75 121.017 199.1 120.35C200.08 118.385 201.831 113.052 202.566 109.753C203.862 104.174 204.212 96.7006 203.407 91.9286C203.302 91.262 203.161 90.2093 203.091 89.6479C202.916 88.4198 201.376 82.3497 200.606 79.8234C198.785 74.1391 195.739 67.5074 191.853 60.8414C190.487 58.5607 188.736 55.3326 187.931 53.7186C184.955 47.8239 179.213 41.5086 169.55 33.5786C164.018 29.0874 160.272 26.6313 152.709 22.5966L149.908 21.0878L149.838 18.5264C149.733 14.0352 148.122 10.9475 144.726 8.7369C141.89 6.8773 137.584 5.579 132.577 5.0527C131.316 4.91235 129.916 4.772 129.461 4.70183C128.971 4.66674 126.94 4.4913 124.909 4.38604C122.879 4.24569 119.727 3.96499 117.942 3.71937C114.511 3.22814 113.81 3.43867 114.931 4.59656C115.491 5.12288 120.288 6.52636 125.925 7.82466C126.415 7.92993 128.06 8.35098 129.601 8.73695C131.772 9.26326 132.262 9.29835 131.702 8.91238C131.036 8.42116 127.045 7.12288 123.824 6.38608C122.528 6.07029 123.089 6.0352 126.8 6.17555C132.262 6.35099 134.082 6.56152 137.304 7.26325C144.726 8.94745 148.858 12.9825 148.192 18.0002C148.087 18.8072 148.017 19.6844 148.017 19.9651C147.982 20.2107 147.772 20.3511 147.457 20.2107C146.862 20.0002 146.722 20.7019 147.247 21.2634C147.457 21.4388 147.422 22.4563 147.107 23.8598C145.882 29.7898 146.197 32.2809 148.542 35.0178C149.243 35.8599 149.768 36.5618 149.698 36.632C148.998 37.2636 142.765 41.5442 141.085 42.5617C135.518 45.9301 128.095 48.632 125.259 48.3162C123.089 48.0706 122.388 47.1582 122.458 44.667C122.493 43.6494 122.668 42.702 122.844 42.5968C122.984 42.4915 123.124 42.1406 123.124 41.7898C123.124 40.0705 128.235 31.1228 131.036 27.9648C132.612 26.1753 132.717 25.2631 131.351 25.2631C130.406 25.2631 128.866 27.0525 126.835 30.4209C123.264 36.4209 116.716 41.1579 111.255 41.6489L109.049 41.8594L109.294 39.9647C109.854 36.1401 109.679 31.8244 108.769 26.8417C108.559 25.6838 108.068 22.8417 107.718 20.561C107.333 18.2452 106.843 16.2102 106.633 15.9997C106.353 15.719 106.283 15.9294 106.423 16.8417C106.633 18.0347 106.913 20.5259 107.753 28.8417C108.173 32.7715 108.033 39.8597 107.543 41.1227C107.228 41.9297 106.143 41.6841 103.482 40.2806C98.4049 37.6139 95.3239 31.7543 94.4486 23.1226C93.9234 18.1401 93.9934 15.298 94.6236 10.6316C95.4289 5.08775 96.7243 2.10535 99.0702 0.70175L100.191 0H99.1052C98.51 0 97.4946 0.35088 96.8294 0.80702L96.8306 0.8074ZM81.3206 14.9124C80.8304 16.2457 80.3402 21.8247 80.5153 24.5264C81.0755 32.772 83.3863 37.9304 88.6731 42.7724C96.761 50.1759 104.953 51.1935 107.719 45.0882L108.385 43.6145L110.765 43.3689C114.302 43.018 117.733 41.4742 121.514 38.5268C122.424 37.8601 122.529 37.8251 122.319 38.3865C122.179 38.7373 121.969 39.4391 121.864 39.9303C121.724 40.4566 121.514 41.018 121.374 41.2286C121.199 41.404 120.989 42.4566 120.849 43.5444C120.359 47.5444 122.529 50.0005 126.451 49.9303C127.921 49.8952 130.162 49.3689 134.083 48.1759C134.609 48.0005 134.574 48.211 133.803 49.8601C133.313 50.9128 132.928 52.1058 132.928 52.5268V53.2987L131.317 52.3865C129.112 51.1584 124.595 50.8777 120.149 51.7549C115.597 52.6321 105.443 55.5794 102.643 56.8426C99.7366 58.1408 93.3994 60.597 93.5394 60.3514C93.6445 60.1759 94.9399 59.1584 96.4454 58.1058C99.8066 55.7198 102.467 53.1584 102.467 52.2812C102.467 51.5093 100.822 50.5268 99.5265 50.5268C98.4061 50.5268 93.2243 53.5794 89.6531 56.3514C86.7471 58.6321 84.9615 60.7373 84.9615 61.9654C84.9615 63.018 76.4535 67.5794 70.0815 69.9303C66.1601 71.3689 63.2541 72.0356 62.7289 71.5794C62.3788 71.2987 62.2037 71.2987 62.0287 71.6145C61.6435 72.211 58.8075 71.79 57.9673 71.018C57.0569 70.1759 57.267 68.2461 58.5625 66.0707C60.208 63.2286 65.5299 58.4566 69.3815 56.3514C73.3729 54.1408 76.2089 52.4566 76.2089 52.2461C76.2089 52.0005 73.8281 52.7373 72.1125 53.5093C71.5173 53.79 70.8871 54.0356 70.712 54.0356C70.5369 54.0356 68.9264 54.9128 67.1758 55.9303C63.6745 58.0356 59.4031 61.3689 57.9676 63.2286C54.6764 67.404 54.7114 71.0882 58.0726 72.983C59.4731 73.79 59.6832 74.1759 58.9479 74.6321C58.5978 74.8426 56.5671 77.6847 56.427 78.1408C56.427 78.1408 55.8318 78.2812 55.1316 78.4215C53.9762 78.6321 53.8011 78.597 53.7661 78.0356C53.7661 77.5093 53.6961 77.5093 53.556 77.8952C53.3109 78.5268 52.7507 78.9479 52.0855 78.9479C51.5253 78.9479 51.7354 77.0531 52.5407 74.7373C52.8208 73.9654 52.8908 73.3338 52.7507 73.3338C52.4356 73.3338 52.2956 73.6496 51.1402 76.6672L50.3699 78.7724L48.4092 78.6672C40.4615 78.3163 35.6652 71.1233 37.4852 62.3162C37.8003 60.8074 37.9754 59.4741 37.8704 59.3688C37.5903 59.0881 36.2948 62.2811 35.8747 64.3864C34.7893 69.825 38.4306 76.8074 43.5073 79.0184C45.1529 79.7202 45.363 79.9307 45.1879 80.7026C44.4527 84.3869 44.7328 92.1416 45.8181 96.8426C46.3083 99.018 47.5337 102.912 47.8488 103.263C48.1289 103.579 47.9539 102.421 46.8335 96.4917C46.3083 93.79 45.9932 90.3865 45.8531 86.2107L45.6431 79.9651L47.0085 80.1756C47.7438 80.316 48.6891 80.4563 49.0743 80.4914C49.9146 80.6318 49.9146 80.9476 49.0743 86.316C48.6541 88.9476 48.409 92.2458 48.409 95.7897C48.374 100.491 48.4791 101.579 49.1443 103.719C49.5994 105.123 50.2647 106.596 50.6148 107.053C51.21 107.825 51.21 107.614 50.4047 104.912C48.8642 99.6844 48.9342 92.6672 50.6848 82.8772C51.0349 80.8772 51.14 80.7017 51.9453 80.7017C52.6805 80.7017 52.7856 80.807 52.6105 81.4737C51.4201 85.7544 50.6848 99.9647 51.6652 100.281C51.8752 100.351 52.0503 100.772 52.0503 101.193C52.0503 101.649 52.3654 102.912 52.7856 104.07C53.1707 105.193 53.6959 106.912 53.941 107.895C54.2211 108.842 54.6062 110.105 54.8163 110.702C55.0263 111.263 55.4465 112.842 55.7966 114.175C56.2167 115.895 56.5669 116.632 57.022 116.772C57.3721 116.842 57.6522 117.228 57.6522 117.579C57.6522 117.965 57.8973 118.246 58.2124 118.246C58.7726 118.246 58.7726 118.281 58.1424 123.86C57.5122 129.088 53.1007 139.053 50.1947 141.754C49.8095 142.14 49.5994 142.561 49.7045 142.702C49.9146 142.877 50.2997 142.737 52.1903 141.789C52.4004 141.719 52.1903 142.175 51.7702 142.877C50.8249 144.386 50.8249 144.596 51.6302 144.316C53.1007 143.719 55.9016 140.14 57.3021 136.982C57.8973 135.649 58.5626 134.281 58.7376 133.93C59.5079 132.491 60.9784 126.807 61.3635 123.684C61.4686 122.702 61.6436 121.825 61.7137 121.719C62.0288 121.193 62.8691 111.333 63.0441 106.316C63.1492 103.333 63.3242 98.1751 63.4293 94.9117C63.5693 91.6134 63.7094 87.4731 63.7444 85.6836C63.8494 82.7362 63.5693 81.5082 63.1141 83.052C62.1688 86.4555 61.5386 93.052 60.9434 106.736C60.8033 109.578 60.5933 111.859 60.4532 111.753C60.3132 111.683 60.1031 110.666 59.9981 109.508C59.858 108.35 59.5429 106.174 59.2278 104.666C58.9477 103.157 58.5276 101.052 58.3175 99.9639C58.0024 98.4551 58.0724 96.8762 58.5276 92.6657C59.1928 86.806 59.0877 85.2622 58.3525 89.999C58.1074 91.6481 57.7923 93.0867 57.6522 93.1569C57.3021 93.3674 56.987 88.6306 57.1621 86.4902C57.3721 84.2095 58.0024 81.0165 58.3875 80.2797C58.5626 79.9639 59.9981 79.2622 61.5736 78.7358C68.0509 76.5955 75.7186 72.4551 83.1056 67.1218C85.5565 65.3674 86.992 64.5604 87.6922 64.5604C89.3028 64.5604 94.0294 62.9464 99.6662 60.4551C102.012 59.4376 102.993 59.0516 107.019 57.613C109.225 56.8411 112.306 55.8586 113.846 55.4727C115.387 55.0516 117.138 54.5604 117.698 54.42C120.394 53.5779 123.265 53.192 126.626 53.192C131.773 53.1569 132.473 53.613 133.908 58.1393C134.854 61.1218 137.655 65.2622 139.86 66.806C140.946 67.5779 141.646 68.5253 142.416 70.1393C144.132 73.8586 148.018 77.0516 153.025 78.9464C154.776 79.613 161.918 81.4025 162.793 81.4025C164.089 81.4025 164.964 82.2797 166.085 84.6306C169.096 90.9464 170.006 100.876 168.29 108.946C167.905 110.876 167.485 113.017 167.38 113.683C167.275 114.35 166.995 115.788 166.715 116.841C164.194 127.192 165.069 135.403 169.096 139.403C170.601 140.911 172.667 141.964 173.052 141.367C173.157 141.192 172.947 140.946 172.597 140.806C171.371 140.35 169.726 138.455 169.026 136.701C167.45 132.771 167.415 127.894 168.816 120.139C169.796 114.771 170.321 112.631 170.601 112.631C170.706 112.631 170.706 113.297 170.566 114.104C170.076 117.052 170.111 124.35 170.601 127.122C171.371 131.578 173.087 134.666 175.398 135.683C177.148 136.49 177.183 136.174 175.538 134.701C174.207 133.543 173.752 132.841 173.192 130.946C172.037 127.332 172.002 120.139 173.017 112.104C174.102 103.648 174.487 95.2616 173.892 92.0686C173.297 88.8756 172.072 85.6475 170.706 83.6475L169.621 82.0686L170.776 82.1738C171.897 82.2791 171.932 82.3844 173.052 85.6826C174.628 90.3142 175.258 94.0335 175.608 100.245C175.923 105.859 175.853 116.35 175.503 117.753C175.363 118.21 175.433 118.595 175.608 118.595C176.133 118.595 176.308 116.385 176.553 107.508C176.868 96.2096 176.273 91.3666 173.857 85.0866C173.297 83.6129 172.842 82.3147 172.842 82.2445C172.842 82.1392 173.192 82.1042 173.647 82.1743C175.223 82.3849 177.569 89.2621 178.584 96.6653C179.494 103.192 180.229 107.016 180.58 107.016C181 107.016 180.965 105.858 180.545 103.472C180.37 102.419 180.124 100.7 180.019 99.6474C179.144 91.7878 176.658 83.1564 175.048 82.5594C174.067 82.1734 174.663 81.7524 176.168 81.7524C180.3 81.7524 187.057 79.5419 189.508 77.4015C191.083 76.0331 190.908 75.4015 189.228 76.384C185.481 78.6296 177.989 80.2085 171.441 80.1734L168.115 80.1383L166.12 78.6997C164.194 77.2261 160.027 75.5419 159.572 75.998C159.467 76.1383 159.537 76.2787 159.712 76.384C160.903 76.805 164.929 79.2261 165.034 79.5068C165.279 80.2436 157.402 78.6296 152.85 77.0155C149.629 75.8927 147.563 74.6647 145.813 72.8752C144.377 71.4015 143.257 69.5419 143.572 69.2261C143.642 69.1208 144.482 69.2962 145.427 69.612C152.22 71.8226 164.684 71.0857 174.593 67.8576C178.234 66.6647 182.575 64.419 184.431 62.7699L185.971 61.4015L183.346 62.7699C180.58 64.2436 177.569 65.5068 175.818 65.9629C175.258 66.1383 173.332 66.6647 171.546 67.1559C165.874 68.7699 160.378 69.4717 154.285 69.2962C148.894 69.1559 145.497 68.6296 143.467 67.5419C142.626 67.1208 142.451 66.7699 142.311 65.191C142.206 64.1734 142.206 62.6296 142.346 61.7524L142.556 60.1734L144.307 59.9629C146.653 59.6471 148.193 58.9805 151.309 56.805C154.916 54.3138 157.752 51.1559 160.308 46.805C162.128 43.6822 162.548 43.191 163.179 43.3313C163.879 43.5419 165.769 44.1033 172.457 46.1033C174.102 46.5945 175.468 46.9454 175.538 46.8752C175.748 46.6647 174.102 45.7524 172.317 45.1208C171.371 44.7699 170.251 44.384 169.866 44.2085C169.481 44.0331 167.835 43.4717 166.19 42.9454C164.544 42.419 163.109 41.9629 162.968 41.8927C162.863 41.8226 162.968 41.0506 163.214 40.1734C164.229 36.8752 163.949 33.191 162.548 31.0506C162.233 30.5594 162.058 30.1734 162.163 30.1734C162.478 30.1734 167.8 34.2436 170.391 36.4541C178.234 43.1559 181.735 46.9451 185.341 52.6301C187.862 56.5599 188.527 58.6652 189.823 66.4901C190.138 68.4199 190.488 70.2445 190.593 70.5252C190.873 71.227 190.873 71.227 191.188 72.8761C191.328 73.7182 191.573 74.3849 191.713 74.3849C191.994 74.3849 190.908 63.0869 190.558 62.5249C190.418 62.2793 190.453 62.1039 190.663 62.1039C191.538 62.1039 197.28 74.2789 198.611 79.0159C198.891 79.9633 199.346 81.5423 199.626 82.5247C199.941 83.5423 200.537 86.1387 200.992 88.3142C202.462 95.5072 202.042 105.156 199.941 112.103C199.626 113.051 199.311 114.314 199.206 114.91C199.101 115.472 198.891 116.209 198.751 116.524C198.576 116.84 197.876 118.63 197.175 120.559C196.475 122.454 195.74 124.384 195.53 124.805C195.32 125.261 195.25 125.717 195.355 125.823C195.495 125.963 195.39 126.244 195.11 126.454C194.479 126.98 193.394 130.068 193.674 130.524C193.814 130.735 193.709 130.84 193.499 130.805C193.254 130.735 193.009 130.945 192.974 131.226C192.764 132.138 191.048 136.98 190.698 137.647C190.488 137.998 190.418 138.419 190.523 138.559C190.593 138.735 190.453 139.051 190.173 139.296C189.893 139.542 189.753 139.858 189.858 140.033C190.243 140.665 189.683 140.314 188.702 139.331C187.897 138.559 187.442 138.349 186.742 138.489C185.306 138.77 182.575 141.437 180.93 144.173C179.284 146.91 178.759 147.121 175.538 146.594C172.842 146.173 157.892 145.928 156.876 146.314C156.421 146.489 156.036 146.524 156.036 146.349C156.036 146.209 155.196 146.209 154.215 146.384C152.08 146.77 151.414 146.77 148.508 146.384C145.602 146.033 142.521 146.489 138.74 147.858C134.819 149.296 132.228 150.559 130.057 152.173C129.147 152.805 127.641 153.577 126.696 153.858C125.751 154.138 124.77 154.63 124.49 154.945C124.245 155.261 123.16 155.928 122.074 156.489C121.024 157.016 118.993 158.244 117.593 159.226L115.037 160.945L113.776 160.314C113.111 159.963 111.676 159.577 110.59 159.472C109.47 159.331 106.459 158.875 103.868 158.384C101.277 157.928 98.1957 157.437 97.0403 157.296C95.5697 157.156 94.5544 156.77 93.6091 156.103C88.2522 152.209 80.3741 152.98 72.8821 158.068C71.9367 158.735 69.7309 159.752 67.9803 160.314C66.2647 160.875 63.9189 161.752 62.7635 162.244C61.6431 162.735 59.2973 163.507 57.5467 163.893C55.7611 164.314 53.2402 165.051 51.8747 165.507L49.4239 166.349L48.0584 164.665C47.2881 163.752 45.7826 162.138 44.7673 161.086L42.8416 159.191L43.5768 156.63C43.997 155.191 44.3471 153.752 44.3471 153.402C44.3471 152.068 46.4829 146.665 48.6886 142.384C50.7894 138.384 52.7851 133.717 52.715 133.051C52.715 132.91 52.1898 133.823 51.5596 135.086C48.2335 141.823 45.9927 145.612 45.4675 145.542C45.0474 145.472 44.6272 146.033 44.032 147.612C43.1567 149.858 42.5265 150.314 41.9313 149.191C41.6862 148.735 42.1764 147.823 44.2071 144.91C46.868 141.191 47.6383 139.998 47.3932 139.998C47.3232 139.998 45.9577 141.893 44.3471 144.209C42.0013 147.542 41.3011 148.314 40.9509 147.998C40.0056 147.226 34.5087 139.717 32.2679 136.138C28.1715 129.577 24.6002 121.577 22.5345 114.384C21.099 109.296 19.7686 99.1562 19.8386 93.7172C19.9086 89.1558 20.7139 82.9802 21.5542 80.2082C22.3595 77.5416 22.8496 74.3837 22.3245 74.91C21.8343 75.4363 19.9436 80.3135 19.3484 82.7345C19.0333 83.8924 18.7882 85.4714 18.7882 86.2433C18.7882 87.0503 18.6482 87.7521 18.4731 87.8573C17.9479 88.1731 17.6678 86.3486 18.053 85.1556C18.263 84.524 18.8582 82.524 19.4184 80.6994C22.1494 71.8573 28.9768 59.1204 34.4384 52.6294C43.6816 41.7174 50.2984 35.3664 60.3474 27.8574C67.0347 22.8048 73.0564 18.8048 78.3084 15.8924C79.1837 15.4012 80.024 14.8749 80.2341 14.6994C80.7593 14.1731 81.5646 14.3486 81.3195 14.91L81.3206 14.9124ZM150.645 23.2633C152.116 23.8948 156.317 26.2808 158.068 27.4738C160.764 29.2983 163.04 33.8247 162.864 37.0176C162.724 38.8071 162.059 41.4036 161.674 41.4036C160.799 41.4036 153.936 38.1404 153.936 37.7194C153.936 37.6492 155.127 36.4211 156.562 34.9826C159.118 32.4211 159.678 31.4036 158.698 31.0176C158.068 30.772 155.722 31.965 154.847 32.9475C154.462 33.3685 154.006 33.6843 153.796 33.6843C153.586 33.6843 152.816 34.1404 152.151 34.7369L150.89 35.7545L149.98 34.8071C147.704 32.4211 147.494 30.0703 149.07 24.1051C149.455 22.5963 149.35 22.6668 150.645 23.2633ZM147.809 40.7723C146.059 42.5618 144.588 44.1057 144.483 44.2109C142.382 46.3513 140.352 50.3162 139.896 53.0881C139.476 55.5793 139.686 56.7372 140.842 58.4214C141.297 59.1232 141.612 59.86 141.472 60.0355C141.367 60.2109 141.192 61.6495 141.052 63.2636L140.807 66.1407L139.056 64.3513C135.485 60.7372 133.419 54.6671 134.505 51.0533C135.275 48.4919 136.29 47.334 139.651 45.2639C142.837 43.2989 146.339 40.8077 148.825 38.7024C151.45 36.4919 150.925 37.5793 147.809 40.7723ZM155.197 40.2109C156.702 40.8776 158.278 41.5793 158.663 41.7548C159.048 41.9302 159.783 42.246 160.309 42.4214C161.394 42.8425 161.359 43.1583 159.993 45.3337C159.538 46.0706 159.188 46.8425 159.188 47.053C159.188 47.2986 157.263 49.4039 154.917 51.7197C151.556 55.0179 150.085 56.2109 148.229 57.1583C146.094 58.1758 143.083 58.9829 143.083 58.5267C143.083 58.4214 143.328 57.6846 143.608 56.8776C144.203 55.1232 143.818 54.9829 142.943 56.6671C142.557 57.3337 142.137 57.8951 141.997 57.8951C141.542 57.8951 141.227 55.5443 141.507 54.1057C142.172 50.5267 144.308 47.1583 149.175 42.1757C150.89 40.4213 152.326 38.9477 152.361 38.9477C152.396 38.9477 153.691 39.5092 155.197 40.2109ZM98.9666 53.1929C98.9666 53.5788 97.3911 54.7718 93.4347 57.4034C88.603 60.6315 87.6927 60.9473 90.2136 58.5964C91.8942 57.0174 95.0803 54.7016 97.3911 53.4034C98.1613 52.9824 98.9666 52.8771 98.9666 53.1929ZM72.0426 72.2809C70.9922 72.8774 70.0469 73.3335 69.9768 73.3335C69.8718 73.3335 67.9461 74.1055 65.7053 75.0879C63.4996 76.0353 61.1538 76.9476 60.4885 77.0528L59.3681 77.2984L59.9283 75.93C60.6986 74.0704 60.6986 74.0704 63.0794 73.8598C65.7053 73.6493 67.7361 73.1932 70.6071 72.1055C73.7231 70.9476 74.3183 71.0177 72.0426 72.2809ZM54.8516 80.7019C54.8516 81.1932 53.101 85.0528 52.9609 84.8774C52.8209 84.737 53.311 81.5791 53.6261 80.7721C53.8012 80.2809 54.8516 80.1756 54.8516 80.7019ZM55.5868 82.316C55.4118 83.0879 55.1317 84.9476 54.9916 86.4914C54.8866 88.0353 54.3614 90.9476 53.9062 92.9827C53.346 95.3335 52.9959 97.7897 52.9959 99.7195C52.9609 103.333 52.6108 103.088 52.1206 99.123C51.4554 93.4388 52.2957 87.895 54.5014 83.018C55.6569 80.4566 56.182 80.1405 55.5868 82.316ZM168.637 83.1581C171.333 86.5616 172.384 91.4739 172.174 99.6491C172.069 102.351 171.578 101.579 171.473 98.5965C171.368 94.1754 170.003 88.9123 167.937 84.8425C166.327 81.6846 166.362 81.7548 167.027 81.7548C167.307 81.7548 168.007 82.3862 168.637 83.1581ZM56.3568 105.684C56.3918 109.509 56.3218 111.93 56.1467 111.474C55.7616 110.491 55.5865 107.86 55.3765 100.877C55.2364 95.3334 55.2364 95.2983 55.7616 97.1931C56.1467 98.5966 56.3218 100.947 56.3568 105.684ZM16.1978 101.474C16.2678 104.035 16.4079 107.088 16.4779 108.246L16.653 110.351L16.0928 108.947C15.3575 107.088 15.1825 95.8951 15.8827 96.6321C15.9877 96.7373 16.1278 98.9124 16.1978 101.474ZM54.3258 99.965C54.3258 101.86 54.2208 103.263 54.0807 103.053C53.7306 102.491 53.7306 96.4913 54.0807 96.4913C54.2208 96.4913 54.3258 98.0703 54.3258 99.965ZM57.9671 109.018C58.5973 113.544 58.8073 117.053 58.4572 116.667C57.897 116.105 57.1618 110.351 57.2668 107.439C57.3368 105.614 57.5469 106.14 57.9671 109.018ZM19.7691 109.544C19.7691 110.632 20.9245 114.982 22.325 119.193C23.6204 122.982 27.0866 130.316 29.2924 133.789C30.8329 136.281 30.938 136.561 30.1677 136.281C29.8876 136.14 29.3974 136.281 29.0823 136.526C28.6271 136.912 28.5571 137.439 28.7322 139.474C28.8722 140.807 29.0473 142.175 29.1173 142.456C29.2224 142.737 29.3624 143.474 29.4324 144.035C29.5025 144.632 29.6775 145.544 29.7826 146.14C30.0276 147.123 30.0276 147.158 29.5025 146.526C29.1873 146.14 28.6271 144.947 28.207 143.895C27.8219 142.807 27.2617 141.439 27.0166 140.877C26.4914 139.684 24.4957 133.965 23.3753 130.526C22.1499 126.632 21.2746 122.737 20.1892 116.421C19.1038 110.14 18.9288 108.246 19.454 108.561C19.629 108.667 19.7691 109.123 19.7691 109.544ZM33.2491 139.579C33.7392 140.316 35.6649 142.807 37.5556 145.053L40.9517 149.193L40.3915 150.175C39.7263 151.298 39.6213 151.719 40.1465 151.404C40.6016 151.123 40.6016 151.158 39.7613 154.561C39.0961 157.158 38.921 157.474 38.4309 157.193C37.7306 156.842 36.3301 153.509 35.4548 150.175C34.5445 146.737 34.3694 146.07 33.3191 142.632C32.7939 140.877 32.3037 139.193 32.1987 138.842C31.9186 137.895 32.2687 138.14 33.2491 139.579ZM188.279 140.386L189.015 141.123L187.264 142.772C185.338 144.491 183.763 147.474 183.448 149.825C183.238 151.404 182.642 151.368 182.642 149.789C182.642 149.018 182.432 148.667 181.767 148.421C180.787 148.035 180.822 147.825 182.362 145.018C183.483 142.982 186.459 139.649 187.124 139.649C187.369 139.649 187.894 140 188.279 140.386ZM143.394 148.211C142.974 148.561 141.293 148.772 141.503 148.421C141.608 148.246 142.133 148.07 142.623 148.07C143.149 148.07 143.464 148.14 143.394 148.211ZM42.7341 151.368C42.594 151.754 42.3139 152.561 42.0688 153.158C41.6137 154.211 41.6137 154.211 41.5787 152.386C41.5436 151.404 41.4386 150.316 41.2986 150C41.0885 149.439 41.1585 149.439 42.0338 150C42.7341 150.456 42.9091 150.807 42.7341 151.368ZM91.4361 155.825C92.5915 156.246 93.3968 156.632 93.1867 156.702C93.0117 156.737 90.0706 156.877 86.7095 156.982C82.9632 157.088 79.7771 157.368 78.4816 157.684C77.3262 158 75.9957 158.246 75.5056 158.211C74.7353 158.211 74.7703 158.14 75.9957 157.474C81.1425 154.772 87.0251 154.14 91.4361 155.825ZM182.782 159.614C183.238 161.93 183.483 163.86 183.378 163.86C183.133 163.825 181.417 160.421 181.382 159.86C181.382 159.649 181.172 159.018 180.962 158.491C180.717 157.93 180.542 157.333 180.542 157.158C180.542 156.702 181.662 155.018 181.837 155.193C181.907 155.298 182.327 157.263 182.782 159.614ZM93.3611 158.596C93.7112 158.842 92.8359 158.947 90.385 158.947C87.0939 158.947 78.201 159.789 77.606 160.175C77.4659 160.246 76.2755 160.421 74.9451 160.526C73.6146 160.632 72.2491 160.807 71.934 160.912C71.5839 161.018 71.3038 160.947 71.3038 160.807C71.3038 160.316 77.8861 158.912 81.9828 158.491C84.8538 158.211 92.9061 158.281 93.3611 158.596ZM121.966 161.298C121.966 162.807 122.141 164.456 122.351 164.982C122.842 166.211 122.351 166.281 121.581 165.088C120.846 164 119.69 162.877 118.43 162.105L117.45 161.474L119.655 160.035C120.881 159.263 121.931 158.596 121.931 158.596C121.966 158.596 121.966 159.825 121.966 161.298ZM38.8821 159.474C38.672 160.035 38.0418 160.211 38.0418 159.719C38.0418 159.333 38.427 158.947 38.7771 158.947C38.9521 158.947 38.9872 159.193 38.8821 159.474ZM44.8342 162.877C48.1603 166.421 48.4054 167.053 46.6198 167.509C45.8846 167.684 45.4294 167.404 43.8188 165.825C41.9282 163.965 41.8932 163.93 42.1032 162.316C42.2433 161.439 42.4183 160.702 42.5584 160.702C42.6634 160.702 43.6788 161.684 44.8342 162.877ZM61.8152 165.439C60.1696 166.316 58.454 167.368 58.0339 167.754C57.0535 168.667 56.7734 168.456 57.3336 167.228C57.8588 166.07 59.7495 164.877 61.8502 164.351C64.8262 163.579 64.8262 163.895 61.8152 165.439ZM42.6282 167.088C43.2584 167.86 43.5035 168.772 43.0834 168.772C42.7333 168.772 41.5779 167.228 41.5428 166.737C41.5428 166.105 41.858 166.211 42.6282 167.088ZM182.608 171.228C182.608 171.509 182.223 170.947 181.733 170C181.278 169.018 180.928 168 180.928 167.719C180.963 167.053 182.608 170.526 182.608 171.228ZM42.4882 174.316C42.2081 175.895 41.928 177.263 41.8229 177.368C41.4728 177.754 41.1227 173.649 41.3678 171.86C41.6129 170.14 41.6479 170.105 42.2781 170.737C42.8733 171.368 42.9083 171.614 42.4882 174.316ZM44.6939 178.07C45.009 178.456 44.939 178.702 44.4138 179.228C44.0287 179.614 43.5735 180.877 43.2935 182.316C42.7333 185.474 42.4181 186.035 42.103 184.491C41.963 183.719 42.138 182.14 42.5582 180.316C42.9083 178.702 43.3635 176.667 43.5035 175.789L43.7836 174.211L44.0287 175.895C44.1688 176.842 44.4839 177.789 44.6939 178.07ZM39.5471 180.596C39.6172 181.719 39.7922 183.404 39.9323 184.386C40.1073 185.579 40.0373 186 39.7922 185.754C39.022 184.982 38.3567 178.596 39.057 178.596C39.232 178.596 39.4421 179.509 39.5471 180.596ZM46.0594 198.246C46.0244 199.439 45.8493 200.456 45.6743 200.561C45.3592 200.772 45.2891 197.544 45.6043 196.702C45.9894 195.684 46.1294 196.14 46.0594 198.246ZM146.579 253.86C146.824 254.175 146.859 254.386 146.649 254.386C146.474 254.386 146.229 254.14 146.089 253.86C145.984 253.579 145.949 253.333 146.019 253.333C146.089 253.333 146.334 253.579 146.579 253.86ZM91.9604 253.825C91.9604 253.895 91.7153 254.035 91.4352 254.175C91.1551 254.281 90.91 254.211 90.91 254.035C90.91 253.825 91.1551 253.684 91.4352 253.684C91.7153 253.684 91.9604 253.754 91.9604 253.825ZM97.9125 255.263C97.9125 255.614 96.477 256.14 96.0918 255.93C95.8117 255.754 95.9168 255.579 96.3719 255.404C97.1422 255.088 97.9125 255.018 97.9125 255.263ZM100.924 256.667C100.259 257.158 98.9628 257.404 98.9628 257.018C98.9628 256.772 100.399 256.175 101.064 256.175C101.449 256.175 101.414 256.281 100.924 256.667ZM109.467 257.193C109.467 257.93 108.382 259.649 107.716 260C107.226 260.281 106.806 260.281 106.281 260C105.616 259.614 105.616 259.544 106.106 258.982C106.421 258.632 106.561 258.246 106.421 258.07C106.246 257.93 106.351 257.895 106.596 258.035C106.841 258.175 107.436 257.965 107.926 257.579C108.942 256.772 109.467 256.632 109.467 257.193ZM142.869 258.211C143.149 258.667 142.728 259.684 142.343 259.439C141.923 259.193 141.923 257.895 142.343 257.895C142.553 257.895 142.763 258.035 142.869 258.211ZM140.628 261.614C140.628 261.789 140.068 262.491 139.402 263.158L138.177 264.351V263.018C138.177 262.316 138.422 261.228 138.737 260.632L139.297 259.544L139.962 260.386C140.313 260.842 140.628 261.404 140.628 261.614ZM133.415 266.386C133.205 267.789 133.03 268.07 131.98 268.561C131.279 268.877 130.684 269.088 130.614 269.018C130.544 268.947 131.139 267.93 131.945 266.737C132.785 265.579 133.485 264.632 133.52 264.702C133.59 264.737 133.52 265.509 133.415 266.386Z" fill="#4A7682"/>
<path d="M167.66 38.5957C167.87 39.2272 170.216 42.0693 170.671 42.2448C170.986 42.3851 170.951 42.1746 170.601 41.4728C169.621 39.6834 167.205 37.2974 167.66 38.5957Z" fill="#4A7682"/>
<path d="M180.541 87.8255C180.541 87.9308 181.102 89.4396 181.802 91.1238C182.887 93.7904 183.097 94.7378 183.307 98.2466L183.553 102.282L184.043 100.212C184.428 98.5624 184.428 97.7203 184.113 95.8255C183.623 92.9483 182.117 89.0536 181.207 88.2115C180.857 87.8957 180.541 87.7203 180.541 87.8255Z" fill="#4A7682"/>
<path d="M51.3837 102.321C51.3487 103.303 52.3291 106.602 52.7492 106.847C52.9593 106.988 52.9593 106.672 52.7142 106.075C52.5041 105.549 52.119 104.286 51.8739 103.338C51.5938 102.356 51.3837 101.9 51.3837 102.321Z" fill="#4A7682"/>
<path d="M141.331 129.091C140.805 129.231 140.42 129.617 140.35 130.108C140.28 130.67 139.685 131.126 138.319 131.757C136.079 132.775 135.939 132.81 136.219 132.108C136.359 131.687 136.184 131.722 135.448 132.249C130.932 135.371 122.984 139.652 121.724 139.652C121.339 139.652 121.023 139.828 121.023 140.003C121.023 140.424 123.369 140.178 125.575 139.512C131.037 137.828 133.313 137.196 135.063 136.845C139.09 136.073 148.543 136.529 156.526 137.898C159.327 138.389 160.482 138.459 160.832 138.178C161.147 137.933 161.568 137.933 162.338 138.249C162.933 138.494 163.493 138.6 163.633 138.459C164.264 137.828 161.428 136.003 154.565 132.564C149.278 129.933 143.571 128.424 141.331 129.091ZM146.372 131.091C148.053 131.371 147.948 131.793 146.162 132.038C144.342 132.284 143.186 131.793 143.816 131.021C144.061 130.74 144.447 130.564 144.692 130.67C144.937 130.775 145.707 130.95 146.372 131.091ZM142.381 132.319C142.381 132.494 142.241 132.635 142.066 132.635C141.891 132.635 141.261 132.74 140.665 132.845C139.3 133.126 139.195 132.459 140.56 132.003C141.576 131.652 142.381 131.793 142.381 132.319ZM152.534 133.407C152.534 133.617 152.044 133.687 151.239 133.512C149.663 133.231 149.418 133.056 150.049 132.635C150.609 132.319 152.534 132.88 152.534 133.407Z" fill="#4A7682"/>
<path d="M157.961 133.16C158.346 133.476 159.781 134.283 161.112 134.949C162.477 135.651 163.878 136.493 164.298 136.879C165.068 137.581 165.838 137.756 165.838 137.23C165.838 135.967 161.357 133.265 158.556 132.809C157.33 132.599 157.295 132.599 157.961 133.16Z" fill="#4A7682"/>
<path d="M81.4938 134.42C81.0387 134.596 79.5682 134.911 78.1677 135.122C74.4914 135.683 73.336 136.245 73.4761 137.403C73.5811 138.21 73.371 138.385 71.6554 139.122C70.0099 139.824 69.7298 140.069 69.7298 140.841C69.7648 141.332 69.6247 141.753 69.4497 141.753C69.3096 141.753 68.3643 142.104 67.419 142.49C65.9484 143.157 65.6683 143.403 65.7734 144.104C65.8784 144.841 65.5983 145.052 63.8127 145.789C61.747 146.631 60.8717 147.192 61.1868 147.543C61.2918 147.613 63.6726 146.911 66.5086 145.964C69.3096 144.981 71.9005 144.21 72.2506 144.245C72.9159 144.245 72.6708 144.385 69.5547 145.683C68.6794 146.034 67.7341 146.455 67.454 146.631C67.1739 146.771 65.6333 147.578 64.0578 148.385C62.4822 149.192 61.0117 150.104 60.7666 150.385C59.7863 151.578 61.0817 151.262 64.583 149.403C66.6487 148.315 69.2046 147.087 70.2549 146.666C71.3053 146.245 72.6708 145.683 73.231 145.438C75.5418 144.385 77.1523 143.789 78.4828 143.508C79.2531 143.367 80.8286 142.981 81.984 142.666C83.1394 142.35 87.9711 141.367 92.698 140.525C99.2453 139.332 101.556 139.052 102.502 139.262C105.058 139.929 105.618 139.999 105.618 139.683C105.618 139.508 104.953 139.157 104.147 138.876C102.817 138.49 102.642 138.28 102.642 137.367C102.642 136.245 101.976 135.894 99.6655 135.824C99.0002 135.789 97.9849 135.543 97.4597 135.262C96.7945 134.911 95.324 134.771 92.7331 134.736C90.6673 134.736 87.5863 134.596 85.8357 134.385C82.1594 133.999 82.5442 133.999 81.4938 134.42ZM80.0583 136.806C78.3778 137.332 76.207 137.543 76.207 137.227C76.207 136.841 77.4324 136.596 79.5332 136.56C80.6886 136.56 80.7936 136.596 80.0583 136.806ZM88.8114 137.192C88.8114 137.367 88.6713 137.543 88.4963 137.543C88.2862 137.543 88.0411 137.367 87.9361 137.192C87.8311 136.981 87.9711 136.841 88.2512 136.841C88.5663 136.841 88.8114 136.981 88.8114 137.192ZM94.9385 137.543C95.5687 137.789 95.6038 137.824 95.0436 138.069C94.3083 138.35 93.363 138.069 93.363 137.543C93.363 137.122 93.9582 137.122 94.9385 137.543ZM84.9601 137.683C84.9601 137.999 83.5596 138.139 83.3495 137.859C83.2445 137.683 83.5596 137.543 84.0497 137.543C84.5399 137.543 84.9601 137.613 84.9601 137.683ZM82.5092 138.21C82.2291 138.385 80.6536 138.771 79.008 139.087C77.3624 139.438 75.6118 139.859 75.0866 140.034C74.5964 140.245 73.8612 140.35 73.5111 140.28C72.4257 139.999 80.0233 138.034 82.5092 137.929C82.9644 137.929 82.9644 137.964 82.5092 138.21ZM73.0559 142.42C73.0559 142.736 71.8655 143.157 70.9552 143.157C70.6401 143.122 70.7801 142.911 71.3053 142.631C72.3207 142.069 73.0559 141.964 73.0559 142.42Z" fill="#4A7682"/>
<path d="M207.681 138.1C210.447 145.013 210.972 147.96 210.342 152.837C209.887 156.206 208.487 162.346 207.961 163.293C207.681 163.82 206.071 159.118 204.145 152.135C203.865 151.188 203.34 149.749 202.955 148.942C202.569 148.135 202.254 147.398 202.254 147.293C202.254 147.048 205.511 145.714 206.876 145.398C207.541 145.258 208.136 145.398 208.907 145.96C210.237 146.907 210.272 146.381 208.942 145.118C208.347 144.556 207.541 144.135 206.946 144.135C205.651 144.1 203.06 144.802 202.78 145.258C202.675 145.469 202.324 145.609 202.009 145.609C201.134 145.609 196.162 148.732 193.886 150.732C190.875 153.363 187.759 157.013 186.464 159.434C185.519 161.223 185.449 161.539 185.869 161.995C186.324 162.416 186.639 162.135 188.495 159.574C192.556 154.03 200.224 147.223 201.204 148.311C201.344 148.451 202.114 150.872 202.92 153.679C203.725 156.486 204.775 160.1 205.265 161.749C207.576 169.574 206.386 177.398 201.309 187.539C200.259 189.644 199.208 191.644 198.963 191.925C197.878 193.223 198.123 193.363 199.278 192.1C200.399 190.837 201.554 189.083 201.554 188.591C201.554 188.521 201.974 188.03 202.429 187.504C204.145 185.644 206.946 178.662 207.821 174.03C207.996 172.977 208.136 170.556 208.066 168.627C207.961 165.504 208.066 164.942 208.977 162.732C209.502 161.363 210.027 159.925 210.097 159.504C210.202 159.118 210.482 158.135 210.762 157.363C211.708 154.662 212.163 151.188 211.953 147.855C211.778 144.942 211.568 144.135 210.237 141.153C209.187 138.802 208.522 137.679 208.066 137.609C207.541 137.504 207.471 137.609 207.681 138.1Z" fill="#4A7682"/>
<path d="M194.37 148.421C194.265 148.597 194.3 148.772 194.51 148.772C194.685 148.772 194.965 148.597 195.071 148.421C195.176 148.211 195.141 148.07 194.93 148.07C194.755 148.07 194.475 148.211 194.37 148.421Z" fill="#4A7682"/>
<path d="M143.96 151.72C140.354 152.317 138.358 153.019 134.752 154.913C131.181 156.808 128.94 158.633 127.819 160.527C126.979 162.001 126.699 163.51 127.294 163.51C127.469 163.51 128.205 162.738 128.905 161.755C130.445 159.65 135.137 156.141 136.432 156.141C136.642 156.141 136.783 156.808 136.783 157.615C136.783 158.457 137.203 160.071 137.658 161.229C138.148 162.387 138.533 163.334 138.533 163.37C138.533 163.37 137.133 163.299 135.452 163.229C130.69 162.984 125.894 164.492 125.649 166.247C125.509 167.194 125.579 167.194 127.049 166.352C129.535 164.878 134.017 164.422 138.988 165.159C146.586 166.247 153.903 166.001 156.739 164.562C158.105 163.861 159.47 162.106 158.245 162.633C156.109 163.545 153.798 164.141 151.733 164.317C149.562 164.492 148.652 164.212 149.912 163.72C150.227 163.615 150.857 162.703 151.313 161.685C152.398 159.334 152.468 156.808 151.453 154.948C151.067 154.212 150.787 153.545 150.857 153.475C150.927 153.405 151.978 153.826 153.168 154.387C155.374 155.405 158.84 158.598 158.84 159.545C158.84 159.791 159.015 160.001 159.19 160.001C159.68 160.001 159.645 159.791 158.63 157.966C157.265 155.51 155.794 154.141 153.063 152.808C150.122 151.37 147.811 151.089 143.96 151.72ZM149.737 155.159C150.542 156.492 150.577 156.878 150.087 159.194C149.632 161.334 147.006 164.633 146.516 163.72C146.271 163.299 145.641 163.159 143.855 163.159C141.229 163.159 140.249 162.703 139.408 161.054C138.743 159.755 138.743 159.44 139.443 160.036C139.934 160.422 140.074 160.422 140.424 159.896C140.844 159.37 140.984 159.44 142.034 160.527C142.98 161.51 143.505 161.755 144.555 161.755C146.586 161.755 147.951 160.878 148.757 159.054C149.142 158.212 149.352 157.37 149.212 157.264C149.107 157.124 148.126 157.019 147.111 157.019C144.8 157.019 144.065 156.492 145.01 155.44C145.36 155.054 145.921 154.738 146.306 154.738C146.656 154.738 146.936 154.562 146.936 154.387C146.936 154.177 147.426 154.036 147.986 154.036C148.792 154.036 149.212 154.282 149.737 155.159ZM139.058 155.44C138.953 155.615 138.708 155.791 138.498 155.791C138.323 155.791 138.183 155.615 138.183 155.44C138.183 155.229 138.428 155.089 138.743 155.089C139.023 155.089 139.163 155.229 139.058 155.44Z" fill="#4A7682"/>
<path d="M6.60357 159.161C2.36707 162.494 2.92727 171.301 7.96907 181.617C10.2799 186.319 13.6761 191.687 17.0023 195.792C18.4728 197.617 20.7136 200.389 21.939 201.933C26.3505 207.406 33.913 215.828 35.979 217.547C37.7646 219.056 39.0951 219.722 39.0951 219.161C39.0951 219.056 37.9397 217.652 36.5742 216.038C35.1737 214.424 32.9329 211.687 31.5675 209.968C30.237 208.284 27.9612 205.547 26.5957 203.898C25.1952 202.249 24.0398 200.775 24.0398 200.635C24.0398 200.494 24.425 200.564 24.9151 200.775C26.6307 201.547 26.2106 200.67 23.8998 198.529C21.0288 195.933 19.3832 193.757 17.2475 189.792C13.7112 183.266 10.9103 172.599 11.1553 166.81C11.2954 163.301 10.8402 162.985 9.68477 165.687C8.98452 167.336 8.9145 167.898 9.12457 171.056C9.33465 174.494 10.4901 179.898 11.6455 182.775C12.8359 185.757 11.7856 184.494 9.89487 180.635C5.48337 171.617 4.57307 164.845 7.16387 160.424C8.70437 157.863 8.59926 157.582 6.60357 159.161Z" fill="#4A7682"/>
<path d="M189.861 171.75C189.511 172.698 189.616 173.68 190.386 177.084C191.121 180.242 191.121 180.417 190.561 183.575C190.246 185.364 189.896 187.259 189.791 187.786C189.616 188.522 189.686 188.768 190.106 188.768C190.876 188.768 192.102 185.224 192.347 182.347C192.487 180.593 192.347 178.943 191.752 176.031C190.946 172.031 190.316 170.628 189.861 171.75Z" fill="#4A7682"/>
<path d="M33.9141 183.93C32.9688 185.509 32.4436 187.263 32.3736 189.053C32.3036 190.842 33.0388 191.965 35.2796 193.579C38.2556 195.719 38.9909 196.561 39.236 198.351C39.376 199.263 39.6211 200 39.7612 200C40.9166 200 41.2317 197.088 40.2513 195.368C39.9012 194.807 38.5707 193.649 37.3103 192.772C34.1592 190.702 33.8441 189.86 34.8244 186.526C35.2096 185.158 35.6647 183.754 35.7698 183.404C36.2249 182.281 34.6494 182.702 33.9141 183.93Z" fill="#4A7682"/>
<path d="M127.32 184.81C127.32 184.95 127.81 185.547 128.405 186.178C130.506 188.354 129.911 192.038 126.97 194.915C124.729 197.126 126.025 197.687 128.405 195.547C131.697 192.564 132.292 188.178 129.736 185.652C128.791 184.67 127.32 184.178 127.32 184.81Z" fill="#4A7682"/>
<path d="M101.8 187.821C101.135 188.663 100.435 190.698 100.225 192.382C99.7347 196.522 103.271 199.926 107.647 199.575C109.118 199.47 109.398 198.803 108.067 198.663C105.862 198.417 104.216 197.751 103.131 196.593C102.01 195.47 101.94 195.224 101.94 193.049C101.94 191.505 102.15 190.277 102.57 189.505C102.886 188.838 103.166 188.101 103.166 187.821C103.166 187.224 102.325 187.224 101.8 187.821Z" fill="#4A7682"/>
<path d="M122.74 189.82C121.165 190.627 120.255 191.995 120.149 193.644C120.114 194.346 120.044 195.013 120.009 195.118C119.939 195.609 117.874 196.171 117.103 195.96C116.648 195.82 115.493 195.083 114.513 194.346C112.237 192.592 110.381 191.82 109.121 192.1C107.965 192.346 107.545 192.802 107.23 194.1C106.74 196.135 109.751 197.188 112.902 196.1C113.847 195.785 114.162 195.855 115.318 196.627C116.193 197.258 117.103 197.539 118.049 197.539C119.274 197.539 119.659 197.328 120.605 196.276C121.235 195.574 121.725 194.802 121.725 194.521C121.725 194.171 121.97 194.065 122.565 194.241C124.456 194.697 127.012 193.118 127.502 191.188C127.957 189.293 125.191 188.521 122.74 189.82Z" fill="#4A7682"/>
<path d="M150.781 195.33C150.781 195.471 151.832 196.628 153.092 197.892C154.352 199.12 155.683 200.664 156.068 201.26C156.803 202.488 158.134 206.383 158.134 207.4C158.134 207.786 158.309 208.067 158.484 208.067C158.729 208.067 158.799 207.576 158.659 206.839C158.554 206.172 158.379 205.014 158.274 204.313C158.064 202.839 157.048 200.699 155.788 199.085C154.913 197.927 150.781 194.839 150.781 195.33Z" fill="#4A7682"/>
<path d="M151.13 202.251C151.13 202.496 151.761 203.444 152.531 204.321C153.931 205.9 153.931 205.935 153.161 206.18C152.706 206.356 146.229 206.496 138.701 206.496C125.291 206.531 124.976 206.531 121.02 207.444C118.814 207.935 115.663 208.461 114.052 208.566C112.442 208.672 111.041 208.812 110.971 208.917C110.621 209.233 114.122 209.549 116.048 209.373C117.134 209.268 119.549 208.777 121.37 208.321C124.346 207.584 125.221 207.514 129.423 207.689L134.149 207.9L132.784 208.531C132.014 208.847 130.088 210.005 128.512 211.093C125.326 213.198 123.926 213.724 119.094 214.531C113.667 215.479 110.201 215.093 107.645 213.303C107.085 212.882 106.63 212.777 106.49 212.952C106.175 213.479 107.575 214.707 109.431 215.549C111.637 216.531 116.888 216.531 120.845 215.514C122.49 215.093 123.856 214.917 124.136 215.093C124.801 215.444 126.097 214.952 127.392 213.865C130.648 211.128 136.565 208.637 140.627 208.286C143.918 208.04 143.953 208.075 143.183 211.794L142.517 214.917L134.815 219.549C127.112 224.216 121.44 227.233 120.145 227.409C119.759 227.444 118.989 227.303 118.464 227.093C117.904 226.847 117.134 226.672 116.713 226.672C116.293 226.672 114.298 226.356 112.267 225.935C97.3872 223.023 94.8312 222.286 93.1152 220.426C92.0649 219.268 91.3646 218.005 91.6797 217.724C91.7498 217.654 94.4457 217.128 97.6668 216.531C100.923 215.935 104.039 215.198 104.634 214.882C106.56 213.865 106.385 213.9 95.6361 215.303C93.5704 215.584 94.6558 215.058 99.4875 213.409C101.833 212.602 104.179 211.724 104.739 211.444C105.334 211.128 106 210.882 106.28 210.882C106.56 210.882 106.7 210.812 106.595 210.707C106.35 210.461 96.3711 212.952 91.2591 214.566C89.0533 215.233 86.8126 215.794 86.2874 215.794C85.202 215.794 84.2567 214.672 84.2567 213.409C84.2567 212.461 83.4164 212.04 82.6811 212.637C80.8955 214.145 79.1099 218.286 79.7751 219.444C80.1952 220.18 80.7204 219.865 81.3156 218.426L81.8058 217.268L83.2763 217.724C84.1166 217.97 86.5325 219.198 88.6332 220.461C92.4845 222.742 94.6203 223.689 98.2615 224.672C101.518 225.549 109.885 226.882 114.367 227.198C116.957 227.409 117.413 227.549 117.973 228.286C119.338 230.075 122.139 229.163 130.752 224.11C136.284 220.847 143.322 216.251 145.562 214.356C147.453 212.777 148.118 211.759 148.468 209.759C148.713 208.321 148.643 208.391 152.32 207.724C155.261 207.233 155.296 207.233 155.856 208.496L156.346 209.654L156.381 208.496C156.381 206.812 155.471 204.952 153.825 203.233C152.39 201.794 151.13 201.303 151.13 202.251ZM154.632 206.672C154.632 206.847 154.386 207.023 154.071 207.023C153.791 207.023 153.651 206.847 153.756 206.672C153.861 206.461 154.106 206.321 154.316 206.321C154.492 206.321 154.632 206.461 154.632 206.672Z" fill="#4A7682"/>
<path d="M82.1588 206.671C81.2485 207.583 78.8677 212.355 78.1674 214.706C77.5372 216.846 77.4322 219.653 77.9573 219.653C78.1674 219.653 78.3075 219.302 78.3075 218.846C78.3075 218.109 79.0427 215.653 80.2331 212.355C80.8984 210.46 82.0188 208.215 82.9291 206.916C83.6993 205.829 83.1742 205.653 82.1588 206.671Z" fill="#4A7682"/>
<path d="M38.7441 217.51C38.7441 218.527 40.8099 219.65 42.6305 219.615C45.0813 219.58 47.7423 218.352 47.3921 217.44C47.2171 216.948 47.007 216.948 45.5365 217.404C43.3307 218.071 40.7048 218.036 40.1446 217.369C39.5494 216.632 38.7441 216.703 38.7441 217.51Z" fill="#4A7682"/>
<path d="M140.77 222.559C139.579 223.507 134.608 226.349 130.826 228.244C126.03 230.665 119.482 232.91 116.331 233.226C115.176 233.331 114.02 233.577 113.775 233.752C112.795 234.524 106.458 232.63 100.541 229.823C98.44 228.805 96.2692 227.682 95.7441 227.296C93.9234 225.998 94.7637 227.331 96.6194 228.735C98.8951 230.384 102.466 232.244 105.898 233.472C108.909 234.524 115.386 235.577 117.277 235.296C120.953 234.7 129.706 231.156 134.853 228.138C136.183 227.401 140.595 223.858 141.47 222.84C142.415 221.787 141.96 221.577 140.77 222.559Z" fill="#4A7682"/>
<path d="M103.31 257.401C102.68 257.893 102.68 257.928 103.45 257.542C103.87 257.331 104.22 257.086 104.22 257.016C104.22 256.735 104.045 256.805 103.31 257.401Z" fill="#4A7682"/>
<path d="M114.97 261.33C114.445 261.857 114.025 262.453 114.025 262.629C114.025 262.804 113.78 263.225 113.429 263.576C113.114 263.927 112.939 264.278 113.044 264.383C113.114 264.488 113.745 263.822 114.41 262.909C116.44 260.102 116.616 259.576 114.97 261.33Z" fill="#4A7682"/>
<path d="M130.342 267.26C130.131 267.751 130.166 267.786 130.517 267.471C130.762 267.225 130.867 266.944 130.762 266.839C130.657 266.734 130.447 266.909 130.342 267.26Z" fill="#4A7682"/>
<path d="M125.57 270.18C125.36 270.566 125.29 270.882 125.36 270.882C125.465 270.882 125.71 270.566 125.92 270.18C126.13 269.794 126.2 269.479 126.13 269.479C126.025 269.479 125.78 269.794 125.57 270.18Z" fill="#4A7682"/>
<path d="M149.381 283.02C147.28 283.721 146.194 284.424 146.019 285.161C145.704 286.319 146.019 286.493 147.07 285.791C147.56 285.476 148.89 285.125 150.011 285.02C151.971 284.844 152.076 284.88 153.022 286.003C153.582 286.67 154.352 287.897 154.702 288.774C155.298 290.107 156.768 295.441 157.573 299.02C157.748 299.827 157.994 300.003 158.834 300.003C159.429 300.003 159.884 299.932 159.884 299.827C159.884 299.3 158.344 293.126 157.713 291.231C156.208 286.564 154.352 284.038 151.866 283.196C150.606 282.775 150.221 282.774 149.381 283.02Z" fill="#4A7682"/>
<path d="M138.812 294.77C136.151 295.402 133.42 297.787 133.7 299.226C133.875 300.244 135.276 300.138 136.221 299.051C137.166 297.963 137.762 298.103 137.131 299.261C136.781 299.928 136.851 299.998 137.937 299.998C139.022 299.998 139.197 299.858 139.722 298.419C140.247 297.051 140.492 296.84 141.368 296.84C142.663 296.84 144.974 297.752 146.83 299.016C147.635 299.542 148.37 299.998 148.475 299.998C149 299.998 148.58 299.191 147.39 297.858C145.114 295.331 141.613 294.068 138.812 294.77Z" fill="#4A7682"/>
<path d="M130.13 295.091C130.13 295.336 128.904 298.214 128.099 299.722C128.029 299.898 128.659 300.003 129.5 300.003H131.04L131.67 298.073C132.371 295.757 132.196 294.74 130.97 294.74C130.515 294.74 130.13 294.88 130.13 295.091Z" fill="#4A7682"/>
<path d="M118.61 297.65C118.05 299.124 118.26 300.001 119.205 300.001C120.011 300.001 120.046 299.896 119.8 298.668C119.485 296.913 119.03 296.527 118.61 297.65Z" fill="#4A7682"/>
<path d="M109.54 297.96C107.859 298.206 104.918 299.399 104.918 299.82C104.918 299.925 107.719 299.995 111.15 299.995H117.347L116.192 299.223C114.476 298.135 111.745 297.609 109.54 297.96Z" fill="#4A7682"/>
<path d="M143.331 298.49C143.191 298.595 143.086 299.017 143.086 299.367C143.086 299.824 143.331 299.999 143.961 299.999C144.976 299.999 145.221 298.806 144.276 298.455C143.611 298.21 143.611 298.21 143.331 298.49Z" fill="#4A7682"/>
</g>
<defs>
<clipPath id="clip0_681_26">
<rect width="212" height="300" fill="white"/>
</clipPath>
</defs>
</svg>
