<svg fill="none" height="51" viewBox="0 0 130 51" width="130" xmlns="http://www.w3.org/2000/svg"><path d="m8.3333 50.1407c4.6 0 8.3333-3.7333 8.3333-8.3334v-8.3334h-8.3333c-4.59998 0-8.3333 3.7334-8.3333 8.3334 0 4.6001 3.73332 8.3334 8.3333 8.3334z" fill="#bdbdbd"/><path d="m0 25.1403c0-4.6 3.73332-8.3333 8.3333-8.3333h8.3333v16.6666h-8.3333c-4.59998 0-8.3333-3.7333-8.3333-8.3333z" fill="#9b9b9b"/><path d="m0 8.47384c0-4.6 3.73332-8.333337 8.3333-8.333337h8.3333v16.666697h-8.3333c-4.59998 0-8.3333-3.7334-8.3333-8.33336z" fill="#bdbdbd"/><path d="m16.6667.140503h8.3334c4.6 0 8.3333 3.733337 8.3333 8.333337 0 4.59996-3.7333 8.33336-8.3333 8.33336h-8.3334z" fill="#9b9b9b"/><path d="m33.3334 25.1403c0 4.6-3.7333 8.3333-8.3333 8.3333-4.6001 0-8.3334-3.7333-8.3334-8.3333s3.7333-8.3333 8.3334-8.3333c4.6 0 8.3333 3.7333 8.3333 8.3333z" fill="#bdbdbd"/><path d="m58.0698 26.5652h-8.4375v8.7158h-4.3946v-21.3281h13.8868v3.5596h-9.4922v5.5078h8.4375zm7.7929 8.7158h-4.248v-15.8496h4.248zm-4.497-19.9512c0-.6347.2099-1.1572.6298-1.5673.4297-.4102 1.0108-.6153 1.7432-.6153.7227 0 1.2988.2051 1.7285.6153.4297.4101.6446.9326.6446 1.5673 0 .6446-.2198 1.1719-.6592 1.5821-.4297.4101-1.001.6152-1.7139.6152s-1.2891-.2051-1.7285-.6152c-.4297-.4102-.6445-.9375-.6445-1.5821zm7.3828 11.9092c0-2.4316.5761-4.3896 1.7285-5.874 1.1621-1.4844 2.7246-2.2266 4.6875-2.2266 1.7383 0 3.0908.5957 4.0576 1.7871l.1758-1.4941h3.8379v15.3223c0 1.3867-.3174 2.5927-.9522 3.6181-.625 1.0254-1.5088 1.8067-2.6513 2.3438-1.1426.5371-2.4805.8056-4.0137.8056-1.1621 0-2.2949-.2343-3.3984-.7031-1.1036-.459-1.9385-1.0547-2.5049-1.7871l1.875-2.5781c1.0547 1.1816 2.334 1.7724 3.8379 1.7724 1.123 0 1.997-.3027 2.622-.9082.625-.5957.9375-1.4453.9375-2.5488v-.8496c-.9765 1.1035-2.2607 1.6553-3.8525 1.6553-1.9043 0-3.4473-.7422-4.6289-2.2266-1.1719-1.4941-1.7578-3.4717-1.7578-5.9326zm4.2334.3076c0 1.4356.2881 2.5635.8642 3.3838.5762.8106 1.3672 1.2158 2.3731 1.2158 1.289 0 2.2119-.4834 2.7685-1.4502v-6.665c-.5664-.9668-1.4795-1.4502-2.7392-1.4502-1.0157 0-1.8164.415-2.4024 1.2451-.5761.8301-.8642 2.0703-.8642 3.7207zm17.4902-8.1152.1318 1.7725c1.1231-1.377 2.6416-2.0655 4.5557-2.0655 2.041 0 3.4424.8057 4.2041 2.417 1.1133-1.6113 2.7003-2.417 4.7603-2.417 1.719 0 2.998.503 3.838 1.5088.84.9961 1.26 2.5 1.26 4.5117v10.1221h-4.248v-10.1074c0-.8985-.176-1.5528-.527-1.9629-.352-.4199-.972-.6299-1.861-.6299-1.269 0-2.148.6055-2.6364 1.8164l.0147 10.8838h-4.2334v-10.0928c0-.9179-.1807-1.582-.542-1.9922-.3613-.4101-.9766-.6152-1.8457-.6152-1.2012 0-2.0703.4981-2.6074 1.4942v11.206h-4.2334v-15.8496zm31.2009 15.8496c-.195-.3809-.337-.8545-.425-1.4209-1.025 1.1426-2.358 1.7139-3.999 1.7139-1.552 0-2.841-.4492-3.867-1.3477-1.015-.8984-1.523-2.0312-1.523-3.3984 0-1.6797.62-2.9688 1.86-3.8672 1.25-.8984 3.052-1.3525 5.405-1.3623h1.949v-.9082c0-.7324-.191-1.3184-.572-1.7578-.371-.4395-.962-.6592-1.772-.6592-.713 0-1.274.1709-1.685.5127-.4.3418-.6.8105-.6 1.4062h-4.234c0-.9179.284-1.7675.85-2.5488.566-.7812 1.367-1.3916 2.402-1.831 1.035-.4493 2.198-.6739 3.487-.6739 1.953 0 3.501.4932 4.643 1.4795 1.153.9766 1.729 2.3535 1.729 4.1309v6.8701c.01 1.5039.219 2.6416.63 3.4131v.249zm-3.501-2.9443c.625 0 1.201-.1367 1.729-.4102.527-.2832.918-.6592 1.172-1.1279v-2.7246h-1.582c-2.119 0-3.247.7324-3.384 2.1972l-.015.2491c0 .5273.186.9619.557 1.3037s.879.5127 1.523.5127z" fill="#9b9b9b"/></svg>