<svg fill="none" height="50" viewBox="0 0 152 50" width="152" xmlns="http://www.w3.org/2000/svg"><g fill="#9b9b9b"><path clip-rule="evenodd" d="m30.767.114033-27.74967 2.041967c-2.237497.19367-3.01733 1.65233-3.01733 3.401v30.329c0 1.3627.486 2.5273 1.655 4.084l6.52317 8.4572c1.0715 1.3618 2.04513 1.6531 4.09113 1.5556l32.2255-1.9445c2.7255-.1935 3.5052-1.4581 3.5052-3.5966v-34.1209c0-1.10547-.4377-1.4248-1.728-2.36613-.071-.05167-.1447-.10534-.2208-.16117l-8.858-6.2212c-2.1419-1.5547007-3.0185-1.750334-6.4262-1.458267zm-17.767 9.647127c-2.631.1775-3.22884.21784-4.723-.99516l-3.7995-3.01333c-.3875-.38967-.19317-.87567.77983-.97217l26.67817-1.94433c2.2387-.19484 3.4068.58416 4.2835 1.26416l4.5758 3.3055c.1949.09683.6809.67933.0964.67933l-27.5515 1.65317zm-3.06883 34.38834v-28.9673c0-1.2635.38953-1.8472 1.55713-1.9454l31.642-1.8463c1.0734-.0972 1.5594.5838 1.5594 1.8463v28.7732c0 1.2647-.1954 2.3353-1.9485 2.4317l-30.279 1.7508c-1.7524.0963-2.53103-.4862-2.53103-2.043zm29.89153-27.4135c.1941.8758 0 1.7507-.878 1.8492l-1.459.2905v21.3855c-1.2667.6803-2.4347 1.0693-3.408 1.0693-1.5584 0-1.9487-.4865-3.1159-1.9438l-9.543-14.97v14.484l3.0197.6808s0 1.749-2.4362 1.749l-6.7163.3893c-.1952-.3893 0-1.3606.6812-1.5553l1.7526-.4853v-19.1505l-2.4335-.1949c-.1951-.8756.2909-2.1383 1.655-2.2363l7.2052-.4853 9.9312 15.1648v-13.4153l-2.532-.2904c-.1945-1.0706.5833-1.848 1.5571-1.9445z" fill-rule="evenodd"/><path d="m77.248 35h-4.3945l-8.5547-14.0332v14.0332h-4.3945v-21.3281h4.3945l8.5694 14.0625v-14.0625h4.3798zm2.9004-8.0713c0-1.5723.3028-2.9736.9082-4.2041.6055-1.2305 1.4746-2.1826 2.6075-2.8564 1.1425-.6739 2.4658-1.0108 3.9697-1.0108 2.1387 0 3.8818.6543 5.2295 1.9629 1.3574 1.3086 2.1142 3.0859 2.2705 5.332l.0293 1.084c0 2.4317-.6787 4.3848-2.0361 5.8594-1.3575 1.4648-3.1788 2.1973-5.4639 2.1973-2.2852 0-4.1113-.7325-5.4785-2.1973-1.3575-1.4648-2.0362-3.457-2.0362-5.9766zm4.2334.3076c0 1.5039.2832 2.6563.8496 3.4571.5665.791 1.377 1.1865 2.4317 1.1865 1.0254 0 1.8262-.3906 2.4023-1.1719.5762-.791.8643-2.0508.8643-3.7793 0-1.4746-.2881-2.6172-.8643-3.4277-.5761-.8106-1.3867-1.2158-2.4316-1.2158-1.0352 0-1.8359.4052-2.4024 1.2158-.5664.8008-.8496 2.0459-.8496 3.7353zm18.4572-11.9824v3.8965h2.71v3.1055h-2.71v7.9101c0 .586.112 1.0059.337 1.2598.224.2539.654.3808 1.289.3808.469 0 .884-.0341 1.245-.1025v3.208c-.83.2539-1.685.3809-2.564.3809-2.968 0-4.4819-1.4991-4.5405-4.4971v-8.54h-2.3145v-3.1055h2.3145v-3.8965zm9.536 19.7461h-4.248v-15.8496h4.248zm-4.497-19.9512c0-.6347.21-1.1572.63-1.5674.43-.4101 1.011-.6152 1.743-.6152.723 0 1.299.2051 1.728.6152.43.4102.645.9327.645 1.5674 0 .6446-.22 1.1719-.659 1.5821-.43.4101-1.001.6152-1.714.6152s-1.289-.2051-1.729-.6152c-.429-.4102-.644-.9375-.644-1.5821zm7.339 11.8799c0-1.5723.303-2.9736.908-4.2041s1.475-2.1826 2.607-2.8564c1.143-.6739 2.466-1.0108 3.97-1.0108 2.139 0 3.882.6543 5.23 1.9629 1.357 1.3086 2.114 3.0859 2.27 5.332l.029 1.084c0 2.4317-.678 4.3848-2.036 5.8594-1.357 1.4648-3.178 2.1973-5.464 2.1973-2.285 0-4.111-.7325-5.478-2.1973-1.357-1.4648-2.036-3.457-2.036-5.9766zm4.233.3076c0 1.5039.283 2.6563.85 3.4571.566.791 1.377 1.1865 2.431 1.1865 1.026 0 1.827-.3906 2.403-1.1719.576-.791.864-2.0508.864-3.7793 0-1.4746-.288-2.6172-.864-3.4277-.576-.8106-1.387-1.2158-2.432-1.2158-1.035 0-1.836.4052-2.402 1.2158-.567.8008-.85 2.0459-.85 3.7353zm17.285-8.0859.132 1.831c1.133-1.416 2.652-2.124 4.556-2.124 1.68 0 2.93.4932 3.75 1.4795s1.24 2.461 1.26 4.4238v10.2393h-4.234v-10.1367c0-.8985-.195-1.5479-.586-1.9483-.39-.4101-1.04-.6152-1.948-.6152-1.191 0-2.085.5078-2.681 1.5234v11.1768h-4.233v-15.8496z"/></g></svg>