<svg fill="none" height="50" viewBox="0 0 179 50" width="179" xmlns="http://www.w3.org/2000/svg"><g fill="#9b9b9b"><path d="m146.21 40.1061c0 1.6244-1.329 3.1011-3.101 3.1011s-3.101-1.3291-3.101-3.1011v-13.2902c0-1.6244 1.329-3.1011 3.101-3.1011s3.101 1.3291 3.101 3.1011z"/><path d="m155.07 43.6501c0 1.6243-1.329 3.101-3.101 3.101s-2.953-1.329-2.953-3.101v-20.2307c0-1.6243 1.329-3.101 3.101-3.101s3.101 1.329 3.101 3.101v20.2307z"/><path d="m137.202 37.1528c0 1.6243-1.329 3.101-3.101 3.101s-3.101-1.329-3.101-3.101v-7.2358c0-1.6244 1.329-3.1011 3.101-3.1011s3.101 1.4767 3.101 3.1011z"/><path d="m163.93 46.899c0 1.6243-1.329 3.101-3.101 3.101-1.624 0-2.953-1.4767-2.953-3.101v-26.8758c0-1.6244 1.329-3.1011 3.101-3.1011 1.624 0 3.101 1.329 3.101 3.1011v26.8758z"/><path d="m173.676 45.5699c-.59 0-1.033-.1477-1.624-.2953l-3.692-1.1814c-.59-.1477-1.033-.886-.738-1.4767.148-.5907.886-1.0337 1.477-.7383l3.839 1.1813c.738.2954 1.624.1477 2.363-.443.738-.443 1.033-1.329 1.033-2.0673v-24.6608c0-1.1814-.738-2.215-1.772-2.5104l-36.179-10.92749c-.738-.29534-1.624-.14767-2.362.29534-.591.59067-1.034 1.32902-1.034 2.21503v16.98192c0 .7384-.591 1.1814-1.181 1.1814-.739 0-1.182-.5907-1.182-1.1814v-16.98192c0-1.62436.739-3.10105 2.068-3.987065 1.329-1.033684 2.953-1.181353 4.43-.738346l36.031 10.927531c2.067.5907 3.544 2.658 3.544 4.8731v24.6607c0 1.6244-.738 3.1011-2.067 4.1348-.886.2953-1.92.7383-2.954.7383z"/><path d="m6.29883 27.4854v7.5146h-4.39453v-21.3281h8.3203c1.6016 0 3.0078.2929 4.2188.8789 1.2207.5859 2.1582 1.4209 2.8125 2.5049.6543 1.0742.9814 2.2998.9814 3.6767 0 2.0899-.7178 3.7403-2.1533 4.9512-1.4258 1.2012-3.4033 1.8018-5.9326 1.8018zm0-3.5596h3.92577c1.1621 0 2.0459-.2735 2.6514-.8203.6152-.5469.9228-1.3282.9228-2.3438 0-1.0449-.3076-1.8896-.9228-2.5342-.6153-.6445-1.4649-.9765-2.5489-.9961h-4.02827zm13.82817 3.0029c0-1.5723.3027-2.9736.9082-4.2041.6054-1.2305 1.4746-2.1826 2.6074-2.8564 1.1426-.6739 2.4658-1.0108 3.9697-1.0108 2.1387 0 3.8818.6543 5.2295 1.9629 1.3574 1.3086 2.1143 3.0859 2.2705 5.332l.0293 1.084c0 2.4317-.6787 4.3848-2.0361 5.8594-1.3575 1.4648-3.1787 2.1973-5.4639 2.1973s-4.1113-.7325-5.4785-2.1973c-1.3574-1.4648-2.0361-3.457-2.0361-5.9766zm4.2334.3076c0 1.5039.2832 2.6563.8496 3.4571.5664.791 1.3769 1.1865 2.4316 1.1865 1.0254 0 1.8262-.3906 2.4023-1.1719.5762-.791.8643-2.0508.8643-3.7793 0-1.4746-.2881-2.6172-.8643-3.4277-.5761-.8106-1.3867-1.2158-2.4316-1.2158-1.0352 0-1.8359.4052-2.4023 1.2158-.5664.8008-.8496 2.0459-.8496 3.7353zm27.1728 2.0069 2.0801-10.0928h4.0869l-4.043 15.8496h-3.5449l-3.0029-9.9756-3.003 9.9756h-3.5302l-4.043-15.8496h4.0869l2.0654 10.0781 2.9004-10.0781h3.0616zm15.5713 6.0498c-2.3242 0-4.2188-.7129-5.6836-2.1387-1.4551-1.4258-2.1826-3.3252-2.1826-5.6982v-.4102c0-1.5918.3076-3.0127.9228-4.2627.6153-1.2598 1.4844-2.2266 2.6075-2.9004 1.1328-.6836 2.4218-1.0254 3.8671-1.0254 2.168 0 3.8721.6836 5.1123 2.0508 1.25 1.3672 1.875 3.3057 1.875 5.8154v1.7285h-10.0927c.1367 1.0352.5468 1.8653 1.2304 2.4903.6934.625 1.5674.9375 2.6221.9375 1.6309 0 2.9053-.5908 3.8233-1.7725l2.08 2.3291c-.6347.8985-1.4941 1.6016-2.5781 2.1094-1.084.498-2.2851.7471-3.6035.7471zm-.4834-13.0078c-.8399 0-1.5234.2832-2.0508.8496-.5176.5664-.8496 1.3769-.9961 2.4316h5.8887v-.3369c-.0195-.9375-.2734-1.6602-.7617-2.168-.4883-.5176-1.1817-.7763-2.0801-.7763zm18.3252.8349c-.5762-.0781-1.084-.1172-1.5234-.1172-1.6016 0-2.6514.542-3.1495 1.626v10.3711h-4.2334v-15.8496h3.9991l.1171 1.8896c.8497-1.455 2.0264-2.1826 3.5303-2.1826.4688 0 .9082.0635 1.3184.1905zm9.7998 11.8799v-21.3281h7.4709c2.588 0 4.551.498 5.888 1.4941 1.338.9863 2.007 2.4365 2.007 4.3506 0 1.0449-.268 1.9678-.805 2.7686-.537.791-1.285 1.372-2.242 1.7431 1.094.2735 1.954.8252 2.579 1.6553.634.8301.952 1.8457.952 3.0469 0 2.0507-.655 3.6035-1.963 4.6582-1.309 1.0547-3.174 1.5918-5.596 1.6113zm4.3945-9.2871v5.7568h3.7644c1.035 0 1.841-.2441 2.417-.7324.586-.498.879-1.1816.879-2.0508 0-1.9531-1.011-2.9443-3.032-2.9736zm0-3.1055h3.2524c2.216-.039 3.325-.9228 3.325-2.6513 0-.9668-.283-1.6602-.85-2.0801-.556-.4297-1.44-.6446-2.651-.6446h-3.0764zm19.4384 12.3926h-4.394v-21.3281h4.394z"/></g></svg>