<svg fill="none" height="51" viewBox="0 0 278 51" width="278" xmlns="http://www.w3.org/2000/svg"><g fill="#9b9b9b"><path d="m277.792 23.8852v2.2318c-.021.1211-.048.24-.062.3605-.115.9708-.19 1.9478-.35 2.9114-.521 3.1319-1.647 6.0427-3.321 8.7343-2.542 4.0865-5.979 7.2028-10.297 9.3308-2.493 1.2341-5.18 2.0271-7.943 2.344-.614.0709-1.227.1345-1.841.202h-23.816c-.12-.0223-.239-.058-.361-.0653-2.401-.1512-4.712-.6985-6.914-1.6621-4.794-2.098-8.369-5.4982-10.709-10.1784-1.034-2.0643-1.704-4.292-1.978-6.5845-.068-.5574-.134-1.1142-.2-1.6711v-2.1654c.023-.12.058-.2399.065-.3605.125-2.0806.552-4.101 1.303-6.0427 2.023-5.2247 5.548-9.0998 10.559-11.60779 2.6-1.30172 5.37-1.98578 8.268-2.13755 1.419-.07365 2.837.00558 4.248.19473.127.0173.311-.03962.4-.13056 2.028-2.07171 4.338-3.75452 6.942-5.03002 2.526-1.237 5.184-2.034327 7.982-2.35348.658-.075325 1.318-.1372588 1.978-.20533h2.03c.133.0206446.267.0440789.399.0597018 1.006.1171722 2.018.1908232 3.014.3576532 3.109.521693 6.004 1.637615 8.682 3.295315 4.106 2.54207 7.236 5.98302 9.374 10.31503 1.237 2.4937 2.03 5.1832 2.346 7.9487.073.6366.135 1.2733.202 1.9088zm-37.905-14.44171c.041.05356.051.07867.068.08704 1.395.68727 2.727 1.49317 3.984 2.40867.079.0575.275.0335.371-.0267 3.453-2.1878 7.196-2.94272 11.216-2.22964 3.94.69854 7.146 2.66704 9.596 5.81114 2.773 3.5581 3.83 7.5816 3.065 12.0581-.513 3.0002-1.715 5.6918-3.758 7.9465-3.727 4.1105-8.394 5.8106-13.889 5.0908-3.382-.443-6.302-1.9021-8.718-4.3443-3.102-3.1329-6.224-6.2452-9.334-9.3698-.415-.4162-.876-.751-1.474-.8241-1.042-.1278-1.989.3928-2.439 1.3296-.402.8364-.35 1.7794.522 2.6364 3.468 3.4041 6.905 6.8395 10.368 10.2469.593.5862 1.229 1.1272 1.902 1.6187 2.531 1.8373 5.384 2.8534 8.473 3.2624 2.425.3202 4.831.2516 7.218-.2851 4.555-1.0228 8.327-3.3472 11.298-6.9338 2.453-2.9639 3.937-6.3697 4.454-10.1934.3-2.1805.237-4.3954-.185-6.5555-.689-3.5319-2.183-6.6922-4.578-9.3821-4.568-5.12934-10.315-7.41921-17.153-6.90812-2.631.1964-5.12.96918-7.462 2.19502-1.263.65656-2.452 1.44829-3.545 2.36129zm-1.673 35.80771c-.094-.0872-.188-.1748-.281-.2628-1.418-1.3386-2.844-2.6687-4.245-4.0246-.271-.2622-.52-.39-.904-.3811-1.419.0346-2.839.0408-4.237-.275-6.953-1.5724-10.989-9.1311-8.427-15.782 2.021-5.2442 7.615-8.438 13.132-7.4532 2.473.4413 4.644 1.4881 6.425 3.3254 2.173 2.243 4.411 4.4219 6.607 6.642.5.5055 1.074.736 1.766.6372.895-.1278 1.608-.5541 1.931-1.4317.317-.8638.164-1.6817-.49-2.344-2.305-2.3351-4.555-4.7287-6.954-6.9645-4.651-4.3381-10.135-5.6281-16.202-3.7835-8.159 2.479-12.934 10.9042-11.07 19.2178 1.699 7.5749 8.324 12.8912 16.076 12.8978 2.164.0023 4.329.0012 6.493 0 .108 0 .215-.0094.38-.0178z"/><path d="m13.9453 18.746h-7.70507l-1.46484 4.3945h-4.672851l7.939451-21.32812h4.07231l7.9834 21.32812h-4.6729zm-6.51854-3.5596h5.33204l-2.6807-7.9834zm13.72554-.0879c0-2.4707.5518-4.4385 1.6553-5.90331 1.1133-1.46484 2.6319-2.19727 4.5557-2.19727 1.5429 0 2.8174.57618 3.8232 1.72852v-8.085937h4.2481v22.499997h-3.8233l-.2051-1.6846c-1.0546 1.3184-2.4121 1.9776-4.0722 1.9776-1.8652 0-3.3643-.7325-4.4971-2.1973-1.123-1.4746-1.6846-3.5205-1.6846-6.1377zm4.2334.3076c0 1.4844.2588 2.6221.7764 3.4131s1.2695 1.1865 2.2559 1.1865c1.3086 0 2.2314-.5517 2.7685-1.6552v-6.2549c-.5273-1.1035-1.4404-1.6553-2.7392-1.6553-2.0411 0-3.0616 1.6553-3.0616 4.9658zm12.6709-.3369c0-1.5723.3028-2.9736.9082-4.2041.6055-1.23046 1.4747-2.1826 2.6075-2.85643 1.1425-.67383 2.4658-1.01075 3.9697-1.01075 2.1387 0 3.8818.6543 5.2295 1.9629 1.3574 1.30858 2.1142 3.08598 2.2705 5.33198l.0293 1.084c0 2.4317-.6787 4.3848-2.0361 5.8594-1.3575 1.4648-3.1788 2.1973-5.4639 2.1973-2.2852 0-4.1113-.7325-5.4785-2.1973-1.3574-1.4648-2.0362-3.457-2.0362-5.9766zm4.2334.3076c0 1.5039.2832 2.6563.8496 3.4571.5665.791 1.377 1.1865 2.4317 1.1865 1.0254 0 1.8262-.3906 2.4023-1.1719.5762-.791.8643-2.0508.8643-3.7793 0-1.4746-.2881-2.6172-.8643-3.4277-.5761-.8106-1.3867-1.2158-2.4316-1.2158-1.0352 0-1.8359.4052-2.4024 1.2158-.5664.8008-.8496 2.0459-.8496 3.7353zm27.6709-.0146c0 2.539-.542 4.5215-1.6259 5.9472-1.084 1.4161-2.5977 2.1241-4.5411 2.1241-1.7187 0-3.0908-.6592-4.1162-1.9776l-.1904 1.6846h-3.8086v-22.499997h4.2334v8.071287c.9766-1.14258 2.2608-1.71387 3.8525-1.71387 1.9336 0 3.4473.7129 4.5411 2.13868 1.1035 1.416 1.6552 3.4131 1.6552 5.9912zm-4.2334-.3076c0-1.6016-.2539-2.7686-.7617-3.501-.5078-.7422-1.2646-1.1133-2.2705-1.1133-1.3476 0-2.2754.5518-2.7832 1.6553v6.2549c.5176 1.1132 1.4551 1.6699 2.8125 1.6699 1.3672 0 2.2656-.6738 2.6953-2.0215.2051-.6445.3076-1.626.3076-2.9443zm14.1504 8.3789c-2.3242 0-4.2187-.7129-5.6836-2.1387-1.455-1.4258-2.1826-3.3252-2.1826-5.6982v-.4102c0-1.5918.3076-3.0127.9229-4.2627.6152-1.25976 1.4843-2.22656 2.6074-2.90038 1.1328-.6836 2.4219-1.0254 3.8672-1.0254 2.1679 0 3.872.6836 5.1123 2.05079 1.25 1.36719 1.875 3.30569 1.875 5.81539v1.7286h-10.0928c.1367 1.0351.5469 1.8652 1.2305 2.4902.6933.625 1.5674.9375 2.622.9375 1.6309 0 2.9053-.5908 3.8233-1.7725l2.0801 2.3291c-.6348.8985-1.4942 1.6016-2.5782 2.1094-1.0839.498-2.2851.7471-3.6035.7471zm-.4834-13.0078c-.8398 0-1.5234.2832-2.0507.8496-.5176.5664-.8497 1.3769-.9961 2.4316h5.8886v-.3369c-.0195-.9375-.2734-1.6602-.7617-2.168-.4883-.5176-1.1816-.7763-2.0801-.7763zm-60.747 29.6103c-.1661 2.2949-1.0157 4.1016-2.5489 5.4199-1.5234 1.3184-3.5351 1.9776-6.0351 1.9776-2.7344 0-4.88772-.918-6.45998-2.7539-1.5625-1.8457-2.34375-4.375-2.34375-7.5879v-1.3037c0-2.0508.36132-3.8575 1.08398-5.42s1.75293-2.7587 3.09082-3.5888c1.34766-.8399 2.91016-1.2598 4.68753-1.2598 2.4609 0 4.4433.6592 5.9472 1.9775 1.5039 1.3184 2.3731 3.169 2.6075 5.5518h-4.3946c-.1074-1.3769-.4931-2.373-1.1572-2.9883-.6543-.625-1.6553-.9375-3.0029-.9375-1.46487 0-2.56351.5274-3.29593 1.5821-.72265 1.0449-1.09375 2.6709-1.11328 4.8779v1.6113c0 2.3047.34668 3.9893 1.04004 5.0537.70312 1.0645 1.80664 1.5967 3.31057 1.5967 1.3574 0 2.3681-.3076 3.0322-.9228.6738-.625 1.0596-1.587 1.1572-2.8858zm11.5136-4.7754c-.5761-.0781-1.084-.1172-1.5234-.1172-1.6016 0-2.6514.542-3.1494 1.626v10.3711h-4.2334v-15.8496h3.999l.1172 1.8896c.8496-1.455 2.0264-2.1826 3.5303-2.1826.4687 0 .9082.0635 1.3183.1905zm9.0528 12.1729c-2.3243 0-4.2188-.7129-5.6836-2.1387-1.4551-1.4258-2.1826-3.3252-2.1826-5.6982v-.4102c0-1.5918.3076-3.0127.9228-4.2627.6152-1.2598 1.4844-2.2266 2.6074-2.9004 1.1328-.6836 2.4219-1.0254 3.8672-1.0254 2.168 0 3.8721.6836 5.1123 2.0508 1.25 1.3672 1.875 3.3057 1.875 5.8154v1.7286h-10.0928c.1368 1.0351.5469 1.8652 1.2305 2.4902.6934.625 1.5674.9375 2.6221.9375 1.6308 0 2.9053-.5908 3.8232-1.7725l2.0801 2.3291c-.6348.8985-1.4941 1.6016-2.5781 2.1094-1.084.498-2.2852.7471-3.6035.7471zm-.4834-13.0078c-.8399 0-1.5235.2832-2.0508.8496-.5176.5664-.8496 1.3769-.9961 2.4316h5.8887v-.3369c-.0196-.9375-.2735-1.6602-.7618-2.168-.4882-.5176-1.1816-.7763-2.08-.7763zm18.6035 12.7148c-.1953-.3809-.3369-.8545-.4248-1.4209-1.0254 1.1426-2.3584 1.7139-3.999 1.7139-1.5528 0-2.8418-.4492-3.8672-1.3477-1.0157-.8984-1.5235-2.0312-1.5235-3.3984 0-1.6797.6201-2.9688 1.8604-3.8672 1.25-.8984 3.0517-1.3525 5.4053-1.3623h1.9482v-.9082c0-.7324-.1904-1.3184-.5713-1.7578-.3711-.4395-.9619-.6592-1.7725-.6592-.7128 0-1.2744.1709-1.6845.5127-.4004.3418-.6006.8105-.6006 1.4062h-4.2334c0-.9179.2832-1.7675.8496-2.5488.5664-.7812 1.3672-1.3916 2.4023-1.831 1.0352-.4493 2.1973-.6739 3.4864-.6739 1.9531 0 3.501.4932 4.6435 1.4795 1.1524.9766 1.7285 2.3535 1.7285 4.1309v6.8701c.0098 1.5039.2198 2.6416.6299 3.4131v.249zm-3.501-2.9443c.625 0 1.2012-.1368 1.7285-.4102.5274-.2832.918-.6592 1.1719-1.1279v-2.7246h-1.582c-2.1192 0-3.2471.7324-3.3838 2.1972l-.0147.2491c0 .5273.1856.9619.5567 1.3037s.8789.5127 1.5234.5127zm15.4688-16.8018v3.8965h2.7099v3.1055h-2.7099v7.9101c0 .586.1123 1.0059.3369 1.2598s.6543.3808 1.289.3808c.4688 0 .8838-.0341 1.2452-.1025v3.208c-.8301.2539-1.6846.3809-2.5635.3809-2.9688 0-4.4824-1.4991-4.541-4.4971v-8.54h-2.3145v-3.1055h2.3145v-3.8965zm9.5361 19.7461h-4.2481v-15.8496h4.2481zm-4.4971-19.9512c0-.6347.21-1.1572.6299-1.5674.4297-.4101 1.0107-.6152 1.7432-.6152.7226 0 1.2988.2051 1.7285.6152.4297.4102.6445.9327.6445 1.5674 0 .6446-.2197 1.1719-.6592 1.5821-.4297.4101-1.0009.6152-1.7138.6152s-1.2891-.2051-1.7285-.6152c-.4297-.4102-.6446-.9375-.6446-1.5821zm13.9307 14.7803 2.9443-10.6787h4.4238l-5.3466 15.8496h-4.043l-5.3467-15.8496h4.4238zm16.3325 5.4639c-2.324 0-4.218-.7129-5.6831-2.1387-1.4551-1.4258-2.1826-3.3252-2.1826-5.6982v-.4102c0-1.5918.3076-3.0127.9228-4.2627.6153-1.2598 1.4844-2.2266 2.6079-2.9004 1.132-.6836 2.421-1.0254 3.867-1.0254 2.168 0 3.872.6836 5.112 2.0508 1.25 1.3672 1.875 3.3057 1.875 5.8154v1.7286h-10.093c.137 1.0351.547 1.8652 1.231 2.4902.693.625 1.567.9375 2.622.9375 1.631 0 2.905-.5908 3.823-1.7725l2.08 2.3291c-.635.8985-1.494 1.6016-2.578 2.1094-1.084.498-2.285.7471-3.604.7471zm-.483-13.0078c-.84 0-1.523.2832-2.051.8496-.517.5664-.849 1.3769-.996 2.4316h5.889v-.3369c-.02-.9375-.274-1.6602-.762-2.168-.488-.5176-1.181-.7763-2.08-.7763zm33.911 5.6103c-.166 2.2949-1.015 4.1016-2.549 5.4199-1.523 1.3184-3.535 1.9776-6.035 1.9776-2.734 0-4.887-.918-6.46-2.7539-1.562-1.8457-2.343-4.375-2.343-7.5879v-1.3037c0-2.0508.361-3.8575 1.084-5.42.722-1.5625 1.752-2.7587 3.09-3.5888 1.348-.8399 2.91-1.2598 4.688-1.2598 2.461 0 4.443.6592 5.947 1.9775 1.504 1.3184 2.373 3.169 2.608 5.5518h-4.395c-.107-1.3769-.493-2.373-1.157-2.9883-.655-.625-1.656-.9375-3.003-.9375-1.465 0-2.564.5274-3.296 1.5821-.723 1.0449-1.094 2.6709-1.113 4.8779v1.6113c0 2.3047.346 3.9893 1.04 5.0537.703 1.0645 1.806 1.5967 3.31 1.5967 1.358 0 2.368-.3076 3.032-.9228.674-.625 1.06-1.587 1.158-2.8858zm7.075 7.1045h-4.248v-22.5h4.248zm2.842-8.0713c0-1.5723.303-2.9736.908-4.2041.606-1.2305 1.475-2.1826 2.608-2.8564 1.142-.6739 2.466-1.0108 3.97-1.0108 2.138 0 3.881.6543 5.229 1.9629 1.357 1.3086 2.114 3.086 2.271 5.332l.029 1.084c0 2.4317-.679 4.3848-2.036 5.8594-1.358 1.4648-3.179 2.1973-5.464 2.1973s-4.111-.7325-5.479-2.1973c-1.357-1.4648-2.036-3.457-2.036-5.9766zm4.234.3076c0 1.5039.283 2.6563.849 3.4571.567.791 1.377 1.1865 2.432 1.1865 1.025 0 1.826-.3906 2.402-1.1719.576-.791.864-2.0508.864-3.7793 0-1.4746-.288-2.6172-.864-3.4277-.576-.8106-1.387-1.2158-2.431-1.2158-1.036 0-1.836.4052-2.403 1.2158-.566.8008-.849 2.0459-.849 3.7353zm22.88 6.1524c-1.044 1.2695-2.49 1.9043-4.335 1.9043-1.7 0-2.999-.4883-3.897-1.4649-.889-.9765-1.343-2.4072-1.362-4.292v-10.3857h4.233v10.2393c0 1.6503.752 2.4755 2.256 2.4755 1.436 0 2.422-.498 2.959-1.4941v-11.2207h4.248v15.8496h-3.984zm6.636-6.4307c0-2.4707.552-4.4385 1.655-5.9033 1.114-1.4649 2.632-2.1973 4.556-2.1973 1.543 0 2.818.5762 3.823 1.7285v-8.0859h4.248v22.5h-3.823l-.205-1.6846c-1.055 1.3184-2.412 1.9776-4.072 1.9776-1.865 0-3.364-.7325-4.497-2.1973-1.123-1.4746-1.685-3.5205-1.685-6.1377zm4.234.3076c0 1.4844.258 2.6221.776 3.4131s1.27 1.1865 2.256 1.1865c1.308 0 2.231-.5517 2.768-1.6552v-6.2549c-.527-1.1035-1.44-1.6553-2.739-1.6553-2.041 0-3.061 1.6553-3.061 4.9658z"/></g></svg>