<svg fill="none" viewBox="0 0 212 300" xmlns="http://www.w3.org/2000/svg"><g fill="#000"><path d="m96.83.80701c-2.696 1.7895-4.1665 6.7719-4.3415 14.807-.1751 7.8246.6652 12.947 2.906 17.719 1.6456 3.5439 5.602 7.5439 8.648 8.7369 2.731 1.0877 2.801 1.1579 2.136 2.421-.701 1.3684-2.346 2.7018-3.887 3.2281-3.2207 1.0526-9.3129-2.0351-14.11-7.193-2.3809-2.5263-3.7813-4.9824-4.9718-8.7719-1.2604-3.9649-1.2254-12.491.0701-17.474.4201-1.5439.5952-1.7544 3.046-3.1579 1.4355-.807 2.696-1.6842 2.766-1.9298.1751-.5965-1.8206-.56141-3.0811.10526-.6302.31579-1.0503.38596-1.0503.17544 0-.84211 1.6455-3.8596 3.3961-6.1754 1.0154-1.3684 1.8557-2.5965 1.8557-2.7368 0-.5614-.8403-.035088-2.801 1.7895-2.1007 1.9298-3.8863 4.807-4.8667 7.8596-.2801.9123-.7703 1.4386-1.8906 2.0351-.8053.4211-2.661 1.4737-4.0965 2.3158s-2.941 1.7193-3.3611 1.8947c-.6653.3158-10.084 6.4562-13.27 8.7018-1.5755 1.0877-7.9477 6.0702-8.2278 6.421-.1051.1053-.5252.4562-.9454.7369-1.4705 1.0175-6.5822 5.7544-11.379 10.596-4.2015 4.2105-6.2322 6.5263-8.3329 9.5087-.2801.386-.8053 1.0527-1.1554 1.4386-.3501.386-1.1904 1.579-1.8907 2.6316-.7002 1.0527-1.7856 2.7369-2.4158 3.6842-2.6959 4.1404-6.5823 13.263-7.9478 18.596-.035.1755-.2101.5614-.3851.807-.1401.2457-.1751.8421-.07 1.3334.14.4912.07.8421-.1401.8421-.175 0-.3501.3859-.3501.8421 0 .4912-.1751 1.2982-.3851 1.8596-.2451.6667-.2451 1.0176 0 1.0878.245.0701.175.3508-.1751.6666-.3851.386-.4201.6667-.1751.9123.5252.5263.4902.9474-.07.9474-.2801 0-.4902.2105-.5252.421 0 .2456-.07 1.5088-.175 2.772-.0701 1.2631-.2101 2.4561-.3151 2.6315-.6303 1.1579.3501 15.473 1.0853 16.456.5602.702 1.0854 2.807 1.7857 6.807.5952 3.368 1.4705 7.544 2.2407 10.631 1.5756 6.211 6.2322 19.018 8.1579 22.386 2.3108 4.071 2.976 5.334 2.836 5.474-.1051.07-1.4005-.105-2.9411-.421-3.6412-.737-13.024-.737-16.561 0-3.6763.772-6.5823 2.316-8.9631 4.772-1.1204 1.123-2.1708 2.316-2.3458 2.596-.49017.878.21007.667 1.1554-.35.45515-.492 1.7856-1.579 2.941-2.386 3.7113-2.667 7.1775-3.509 14.355-3.509 7.4225 0 12.954 1.088 13.655 2.667.2101.421.7003.877 1.1204.982.5952.14.7002.316.4552.702-.8753 1.333-.1401 4.175 1.6105 6.491 1.6106 2.14 1.9957 1.403.4902-.947-1.4705-2.281-1.8206-4.071-.9103-4.807.4201-.351.8053-.281 1.9256.386 1.4706.842 1.6806 1.122 1.0854 1.508-.21.141-.14.597.1751 1.263.5952 1.123.5252 6.036-.1751 10.492-.175 1.263-.3501 3.193-.3501 4.28 0 1.123-.105 2.036-.2101 2.036-.105 0-1.1554-.492-2.3108-1.123-2.1357-1.123-5.917-4.913-7.8777-7.79-5.4269-8.07-9.6634-11.719-13.935-12.035-2.1007-.175-3.8863.772-4.2364 2.176-.31511 1.263 0 1.403 1.1554.561 1.3304-.982 3.7463-1.053 5.5319-.105 2.766 1.438 3.6062 2.245 8.9281 8.701 4.2365 5.088 6.3022 7.018 9.2082 8.527 1.5405.807 2.976 1.438 3.2211 1.438.2801 0 .6302.737.8753 1.895.2101 1.053.7003 2.351 1.1204 2.842.4902.632.6652 1.228.5252 2.035-.1751 1.369.2451 2.702.9103 2.702.3501 0 .5952.597.7353 1.719.105.948.4551 1.895.7352 2.141.2801.245.5252.807.5252 1.298 0 1.123 1.0504 5.439 1.4355 5.895.1751.175.3151.631.3151.982 0 .807 2.0657 7.649 2.4859 8.141.14.21.3501.771.4201 1.263.1051.526.5252 1.579.9103 2.386.4202.772.6653 1.438.5602 1.438-.105 0 .8753 2 2.1358 4.456 3.3261 6.421 3.2911 6.386 3.6763 6.632.21.105.4901.596.6652 1.053.1751.456.4902.842.7002.842.2101 0 .2101-.281.035-.807-.5601-1.334-3.046-7.334-4.4115-10.421-1.4355-3.264-3.046-7.509-3.9914-10.562-.5252-1.614-.5952-2.631-.3851-5.614.14-2 .2101-5.088.2101-6.807-.035-2.982-.0701-3.158-.8053-3.263-.6302-.105-.8403.14-1.1204 1.228-.2101.737-.3851 1.684-.3851 2.105 0 .456-.1751.807-.3852.807-.21 0-.2801-.28-.175-.631.4901-1.649 1.7156-9.228 1.5055-9.404-.5952-.631-1.2254.807-1.8206 4.141-.1051.736-.3502 1.333-.5252 1.333-.4202 0-.5952-1.719-.2801-2.807.105-.491.6652-2.807 1.1904-5.193.8053-3.509 1.0854-4.246 1.5405-4.07 1.1904.526 2.6259.105 3.8514-1.088.7002-.667 1.3304-1.228 1.4705-1.228.105 0 .7702.912 1.5055 2 1.6456 2.526 3.9914 5.368 4.4115 5.368.4202 0-.7352-2.596-2.4508-5.368-.7703-1.298-1.4355-2.456-1.4355-2.561 0-.106-.3151-.667-.7353-1.228-.9803-1.404-1.9607-1.264-3.8163.561-.8753.877-1.7506 1.579-1.9607 1.579-.5602 0-.8403-1.193-.8403-3.544s.7353-4 2.2408-4.912l1.0854-.667 1.8206 1.825c2.1007 2.105 2.4859 1.649.5952-.667-.7002-.842-1.2254-1.614-1.1554-1.649.2451-.246 5.3569-1.93 5.4619-1.825.07.035-.2101.877-.6302 1.79-.9103 2.035-.8053 5.017.3501 9.368 1.3655 5.333 2.0657 6.316 8.2979 12.211 2.0307 1.894 2.0657 1.93 4.5166 2.035 4.3415.245 22.863-4.035 30.356-7.018 2.9407-1.158 5.8817-2.877 5.8817-3.438 0-.492-.07-.457-2.17.491-1.996.912-6.4777 2.386-11.835 3.86-4.9367 1.368-19.117 4.421-21.568 4.666l-2.1007.211-2.871-2.562c-3.1161-2.772-4.1315-3.965-5.2518-6.175-.9454-1.86-2.0658-6.281-2.3459-9.263l-.245-2.316 3.8163-1.965c2.0657-1.053 4.9017-2.351 6.2322-2.842 2.6259-.983 7.3875-2.351 8.1578-2.351.2451 0-.6302.807-1.9257 1.789-3.2561 2.457-4.5866 3.755-5.3919 5.299-1.0503 2.035-.21 1.859 1.9607-.386 1.1204-1.158 3.0461-2.807 4.3415-3.649 2.4509-1.649 5.2869-3.193 5.2869-2.878 0 .562-2.9761 2.772-3.7813 2.807-1.1204 0-1.2955.632-.7703 2.702.7353 2.702 4.4465 5.509 7.3876 5.544.8052.035.8052.035.14.421-.3501.211-2.1707.456-4.0264.562-3.8863.175-5.1468-.281-7.4926-2.702-1.5055-1.544-2.1708-1.614-1.5405-.105 1.7156 4.035 7.1074 5.649 13.41 3.929 1.5406-.386 4.6216-1.473 6.8274-2.351 4.6916-1.859 13.304-6 13.304-6.385 0-.948-1.4-.527-9.1727 2.912-2.4859 1.088-4.5866 1.965-4.7267 1.965-.105 0 .035-.281.3501-.632 1.6106-1.789 2.871-7.228 2.0307-8.807-.5952-1.088-.9453-.667-1.2254 1.404-.3501 2.491-1.2954 4.877-2.6609 6.596-1.1204 1.369-1.2605 1.439-3.1161 1.439-2.0307-.035-4.5516-.807-5.9871-1.825-.6652-.491-.7352-.702-.3501-1.123.2451-.315.3501-.807.2101-1.087-.2101-.632.07-1.579.5252-1.579.175 0 .3151.21.3151.491 0 .912 1.7856 2.631 3.046 2.982 1.6456.456 3.9564-.105 5.2168-1.263.7703-.702.8753-1.052.7353-2.035-.105-.667-.035-1.298.14-1.438.6303-.386-.07-.843-1.2604-.843-1.4705 0-2.976-.666-2.976-1.263 0-.526 1.3304-1.368 1.6455-1.052.1401.105.4552-.106.7003-.492.4201-.596.8053-.701 2.6959-.561 2.906.14 6.3022 1.789 8.438 4.105.8753.948 1.6805 1.72 1.7856 1.72.105 0-.2451-.807-.8053-1.755-.5952-1.017-1.8206-2.386-2.871-3.158l-1.8556-1.403 2.906-.035c7.3527-.141 16.946.105 17.436.386.385.21.42.315.105.351-.245 0-1.19.701-2.135 1.578l-1.681 1.579-.63-1.403c-.735-1.614-1.996-2.176-2.871-1.298-.735.701-.35 1.649.525 1.403 1.4-.351 1.646 3.053.735 10.105-.665 5.439-.7 7.369-.07 11.264.245 1.543.63 1.754.665.35.035-2.807 1.191-11.263 2.031-15.157.63-2.878 1.121-4.211 1.646-4.211.21 0 .945-.456 1.61-1.053 1.541-1.368 3.221-1.403 5.077-.14 1.541 1.088 3.011 3.263 5.182 7.579.84 1.719 1.645 3.088 1.785 3.088.141 0 .036-.737-.245-1.649-.28-.878-.42-1.685-.35-1.79.105-.07.736.737 1.471 1.825.7 1.087 1.505 1.965 1.75 1.965.596 0 .421-.457-1.75-4.807-2.696-5.404-3.291-9.369-1.821-12.421.665-1.404 3.396-3.229 3.641-2.457.105.281.316.211.631-.245 1.19-1.72 14.215-5.439 21.567-6.176l1.961-.21 1.435 1.614c1.366 1.579 1.926 1.754.981.316-1.366-2-1.296-2.071 2.801-1.825 4.551.281 8.928 1.018 10.678 1.79 1.681.736 1.926.701 1.191-.106-.77-.842-4.587-2.596-5.672-2.596-.455 0-.735-.141-.595-.351.315-.491 14.039-.14 15.09.421.42.21.77.702.77 1.088s.315.842.7 1.052c.491.246.701.737.701 1.509 0 1.93-.351 2.14-3.572 2.176-1.61.035-3.186.175-3.501.315-.455.211-.665.07-.84-.737-.665-2.982-.91-3.649-1.296-3.508-.245.105-.385.351-.35.561.07.211.175 2.386.245 4.842.105 3.228-.035 5.684-.525 8.702-.35 2.316-.63 4.316-.63 4.456-.035.316-5.112 2.912-8.438 4.316-2.241.947-10.714 3.474-13.025 3.86-.63.105-2.03.421-3.081.701-5.882 1.439-12.324 1.79-14.285.737-.63-.316-1.33-.982-1.54-1.438-.49-1.088-.98-.807-.98.526 0 .772.315 1.263 1.295 2 1.155.912 1.541.982 4.972 1.088 3.011.105 4.586-.036 8.263-.807 12.534-2.562 20.552-5.369 24.753-8.667 1.401-1.088 2.066-1.088 1.786.07-.105.386 0 .702.175.702.56 0 1.05-1.053 1.505-3.123.211-.982.526-1.719.666-1.614.175.105.245.456.105.807-.105.386 0 .316.385-.175.595-.807 2.311-8.211 2.311-9.965 0-1.228.735-1.79 2.275-1.79 1.541 0 2.276.562 2.276 1.79 0 .491.946 2.772 2.066 5.052 1.155 2.281 2.241 4.632 2.416 5.263.595 1.895.805 4.106.42 4.106-.175 0-.35-.246-.35-.562 0-.947-2.101-5.894-2.871-6.737-.42-.421-1.051-.771-1.436-.771-.56 0-.63.175-.455.947.21.772 2.416 6.386 3.606 9.158.105.28 0 .351-.35.21-.945-.351-.98.527-.07 3.474.911 3.053 1.576 8.14 1.226 9.228-.175.491-.525.105-1.401-1.579-1.26-2.386-3.011-4.491-3.396-4.105-.14.14.175.596.665 1.017.841.702 2.941 4.421 3.747 6.632.175.491.21 1.368.07 1.93l-.281.982-.42-1.473c-.21-.807-.56-1.579-.735-1.685-.525-.351-.42 2.351.175 4.035.28.807.525 1.895.49 2.422l-.035.912-.28-.877c-.14-.492-.49-1.614-.735-2.562-.455-1.614-1.015-2.21-1.015-1.088 0 .843 1.05 5.439 1.54 6.632.455 1.193.35 3.439-.175 3.158-.175-.14-.315-.491-.315-.842s-.245-.842-.525-1.088c-.42-.351-.49-.07-.49 2.07 0 2.842-.175 4.492-1.121 9.299-2.136 10.701-6.792 19.438-14.46 26.947-3.081 3.053-3.151 3.088-4.902 3.123-1.645.035-1.715.07-.805.421.525.21.946.526.946.666 0 .527-.911.667-1.926.281-.525-.21-1.05-.281-1.156-.21-.105.105.281.35.841.561l.98.386-1.015.842c-1.296 1.053-1.716 1.088-2.381.105-.315-.456-.56-.631-.56-.386-.035.211.245.667.56 1.018.56.526.56.596-.105 1.088-1.856 1.403-2.241 1.298-2.871-.948-.28-.947-.35-1.052-.385-.421-.035.456.245 1.298.595 1.895.595 1.018.595 1.053-.245 1.719l-.84.702-.946-.912c-.49-.491-1.155-.877-1.435-.877-.28.035.035.456.735 1.052l1.19 1.053-1.085 1.088-1.085 1.122-1.086-.772c-.595-.421-1.085-.947-1.085-1.157 0-.211.245-.176.63.105.49.386.49.351-.07-.281-.63-.772-1.26-.772-1.26-.07 0 .21.595.877 1.295 1.544l1.331 1.193-.771.737c-1.05.947-1.295.912-2.906-.562-1.715-1.579-1.785-1.193-.175.877 1.366 1.685 1.366 1.755.876 2.492-.316.421-.596.245-1.751-1.053-1.576-1.79-1.786-1.544-.525.526 1.015 1.614 1.085 2.351.35 2.983-.42.351-.7.245-1.611-.737l-1.085-1.158.245 1.404c.105.736.28 1.719.35 2.105.21.947-.63 1.754-1.12 1.123-.175-.246-.455-.737-.56-1.053-.14-.351-.456-.632-.736-.632-.525 0-1.61 2.351-1.61 3.614v.772l-.665-.842c-.351-.456-.806-.737-1.016-.596-.42.245-1.47 3.193-1.47 4.035.035.421 1.4-2.912 1.4-3.369 0-.07.14-.105.28-.105.175 0 .56.562.876 1.228l.56 1.193-1.156.912c-.63.492-1.4.878-1.715.878-.28 0-.595.21-.701.421-.35.982-.525 0-.245-1.404.386-2.175-.315-1.895-2.205.842-.876 1.263-1.646 2.07-1.716 1.86-.105-.316-.245-.246-.385.175-.14.351-.105.527.105.386.21-.105.35-.035.35.141 0 .21-.245.386-.525.386s-.525.14-.525.315c0 .422-3.431 1.86-3.852 1.615-.175-.106-.385-.036-.525.175-.28.456-2.276.456-2.276-.035 0-.211.386-.877.841-1.474.42-.631.91-1.368 1.05-1.649.385-.737-1.085 1.018-1.786 2.175-.7 1.123-.735 1.123-1.645.457-.595-.457-.595-.562.665-2.176l1.296-1.684-1.366 1.474c-.735.842-1.54 1.508-1.751 1.508-.875 0-.805-.736.176-2.175 1.155-1.719 1.925-3.088 1.68-3.088-.07 0-.735.948-1.47 2.106-.771 1.157-1.471 2.105-1.611 2.105-.42 0-.35-.176.385-1.474.91-1.474 1.856-3.789 1.611-3.789-.105 0-.455.596-.736 1.298-.7 1.684-1.925 3.684-2.135 3.509-.07-.106.35-1.369.945-2.878.595-1.508 1.015-2.807.91-2.877-.07-.07-.595 1.053-1.12 2.492-.56 1.473-1.085 2.666-1.225 2.666-.105 0-.491-.316-.841-.702-.63-.701-.63-.772.14-2.561 1.051-2.351 1.331-3.719.35-1.649-.385.877-.875 1.93-1.05 2.351-.35.947-.595.982-1.505.28-.596-.456-.596-.596-.176-1.122.421-.562.421-.597-.07-.211-.49.421-2.065.246-2.065-.175 0-.141.42-.597.98-1.053l.945-.842-1.295.772c-1.856 1.053-1.716.246.315-1.93l1.681-1.754-1.996 1.894c-1.366 1.334-1.926 1.685-1.821 1.193.105-.421.666-1.193 1.226-1.719s1.015-1.088 1.015-1.228-.77.526-1.68 1.509l-1.681 1.754-.98-.807-.981-.842.7-.877c.876-1.123 1.681-3.404 1.331-3.755-.14-.14-.875.106-1.646.527-.735.421-1.365.702-1.365.631 0-.105.315-.736.735-1.403 1.191-2.035.56-1.439-.91.842-1.436 2.246-1.751 2.351-3.571 1.193-.421-.281-1.086-.491-1.506-.491-.385 0-.7-.141-.7-.316 0-.281 1.82-1.614 3.326-2.456 1.19-.632.07-.421-2.626.491-4.4465 1.509-5.2868.947-1.05-.737 1.365-.526 2.451-1.052 2.451-1.193 0-.105-1.156.07-2.521.421-3.1864.807-6.9327 1.123-7.633.667-.2801-.176-.4201-.421-.3501-.491.2101-.141 5.672-2.141 7.4576-2.702.7355-.246 1.2605-.491 1.1905-.561-.105-.106-2.696.491-5.8121 1.263l-5.672 1.438-3.046-1.123c-8.0528-3.017-15.931-7.754-24.228-14.526-5.707-4.666-5.707-4.666-8.648-8.14-1.1904-1.369-2.2408-2.421-2.3458-2.316-.5252.561 2.3108 4.737 5.2168 7.684 7.2475 7.334 17.576 14.421 26.539 18.246 1.4705.631 2.3108 1.158 2.2057 1.438-.14.316.1051.386.7703.246.5952-.105 2.766.386 5.847 1.368 2.696.878 5.2168 1.65 5.602 1.755 1.4005.386 4.6913 1.614 5.4273 2 .56.281.7.631.56 1.158-.105.456.56 2.702 1.715 5.719 1.051 2.737 1.926 5.158 1.926 5.333 0 .211-.735.316-1.646.316-3.011-.105-5.041 2.351-6.0567 7.228-.3851 1.86-.4551 2-1.1554 1.755-2.6259-.913-6.6173.982-10.574 4.947-1.5406 1.579-3.0811 3.368-3.3962 4-.5252.982-.7703 1.123-1.9957 1.123-1.1554 0-1.6106.245-2.941 1.544-1.6456 1.614-4.7967 5.684-4.7967 6.21 0 .176.6652.316 1.5055.316 1.4005 0 1.6106-.14 2.836-1.754 1.6106-2.141 4.0964-4.316 4.4466-3.965.14.175.6302 1.473 1.0853 2.912.8403 2.596.8753 2.632 2.1358 2.737.7002.07 1.2954.07 1.2954 0 0-.386-2.0657-6.597-2.4158-7.228-.3851-.702-.1401-1.018 2.5909-3.755 1.6456-1.649 3.2211-2.982 3.5012-2.982.7353 0 1.0854 1.439 1.7856 7.017.0701.492.2101 2.246.3502 3.965l.245 3.053h2.731l-.2101-3.088c-.2801-4.245-.8403-7.614-1.6105-9.859-.3852-1.053-.6653-2.106-.6653-2.351 0-.737 2.5559-1.298 3.6763-.772.9103.421.9103.421.8053 3.93-.1751 6.421.035 11.614.4551 11.193.4902-.492.5252-.807 1.1908-7.474 1.085-10.632 2.486-15.544 4.691-16.491 1.821-.737 2.661-.281 3.116 1.789.245 1.018.386 1.895.28 1.965-.07.07-.455-.421-.875-1.123-.875-1.473-1.68-1.473-1.505 0 .315 2.527 3.361 7.79 8.228 14.211 1.54 2.035 2.871 3.754 2.906 3.824.07.071.21.071.315 0 .245-.28-1.121-2.912-3.677-7.158-3.536-5.824-3.536-5.824-3.676-9.403-.175-4.14-.98-8.246-2.311-11.895-1.54-4.175-1.575-4.386-.98-3.93.28.211 1.751 1.299 3.291 2.421 3.641 2.667 6.127 4.772 6.127 5.158 0 .457.911 1.334 1.366 1.334.21 0 .385.21.385.491 0 .246.28.561.63.667.315.14 1.015.561 1.576 1.017 1.26 1.018 4.621 1.263 7.212.491 2.031-.596 9.208-4.421 10.434-5.579.455-.386.875-.631.98-.526s-.595 1.754-1.54 3.649c-3.572 7.123-6.758 16.913-5.988 18.386.246.456.596.667.946.562.28-.106.63-.211.805-.211.14 0 .525-.982.84-2.21 1.436-5.299 4.447-12.702 5.147-12.702.77 0 1.646 2.21 3.116 7.93 1.681 6.596 2.556 9.228 3.676 10.912 1.156 1.719 1.751 1.719 1.016 0-.77-1.825-1.331-4.105-2.381-9.614-1.19-6.176-2.031-8.912-3.396-10.772l-1.051-1.509 3.292-6.175c1.82-3.404 3.956-7.509 4.761-9.088.771-1.579 2.171-3.789 3.081-4.912 1.856-2.316 4.622-5.018 5.077-5.018.875 0 8.823-6.14 11.939-9.228 2.591-2.596 6.723-8.035 8.053-10.596 2.661-5.088 4.797-11.79 5.427-16.948l.245-2 2.381-.245c4.551-.457 6.967-2.772 10.679-10.316 2.17-4.351 2.45-5.193 1.855-5.544-.49-.316-1.61 1.228-3.711 5.228-1.085 2.105-2.626 4.561-3.361 5.439-1.541 1.859-4.482 3.719-6.337 4.035-1.226.245-1.331.175-1.331-.562 0-.456.315-1.965.7-3.298.385-1.368.946-3.789 1.261-5.439.63-3.403.84-3.894 1.225-2.947.175.386.245-.526.21-2.14-.035-1.544.245-4.632.595-6.842.701-4.176.981-13.369.491-17.193-.385-3.228-1.331-8.421-2.101-11.544-.63-2.667-.665-2.983-.14-3.263.35-.211.56-.772.56-1.614 0-2.597.595-3.72 3.606-6.772 4.832-4.913 12.815-9.088 17.471-9.088 1.716-.035 1.786-.07 1.191-.526-1.051-.807-2.941-1.018-5.182-.597-2.276.421-7.983 2.983-9.908 4.491-.666.527-1.331.878-1.401.772-.105-.07.35-1.403 1.015-2.947.631-1.509 1.751-4.211 2.486-5.93.736-1.754 1.821-4.281 2.451-5.614.595-1.368 1.331-3.088 1.576-3.86.245-.771.7-1.964 1.05-2.631.98-1.965 2.731-7.298 3.466-10.597 1.296-5.579 1.646-13.052.841-17.824-.105-.6666-.246-1.7193-.316-2.2807-.175-1.2281-1.715-7.2982-2.485-9.8245-1.821-5.6843-4.867-12.316-8.753-18.982-1.366-2.2807-3.117-5.5088-3.922-7.1228-2.976-5.8947-8.718-12.21-18.381-20.14-5.532-4.4912-9.278-6.9473-16.841-10.982l-2.801-1.5088-.07-2.5614c-.105-4.4912-1.716-7.5789-5.112-9.7895-2.836-1.8596-7.142-3.1579-12.149-3.6842-1.261-.14035-2.661-.2807-3.116-.35087-.49-.03509-2.521-.21053-4.552-.31579-2.03-.14035-5.182-.42105-6.967-.66667-3.431-.49123-4.132-.2807-3.011.87719.56.52632 5.357 1.9298 10.994 3.2281.49.10527 2.135.52632 3.676.91229 2.171.52631 2.661.5614 2.101.17543-.666-.49122-4.657-1.7895-7.878-2.5263-1.296-.31579-.735-.35088 2.976-.21053 5.462.17544 7.282.38597 10.504 1.0877 7.422 1.6842 11.554 5.7192 10.888 10.737-.105.807-.175 1.6842-.175 1.9649-.035.2456-.245.386-.56.2456-.595-.2105-.735.4912-.21 1.0527.21.1754.175 1.1929-.14 2.5964-1.225 5.9299-.91 8.4211 1.435 11.158.701.8421 1.226 1.5439 1.156 1.6141-.7.6316-6.933 4.9123-8.613 5.9298-5.567 3.3684-12.99 6.0702-15.826 5.7544-2.17-.2456-2.871-1.1579-2.801-3.6491.035-1.0176.21-1.965.386-2.0702.14-.1053.28-.4562.28-.807 0-1.7193 5.111-10.667 7.912-13.825 1.576-1.7895 1.681-2.7017.315-2.7017-.945 0-2.485 1.7894-4.516 5.1578-3.571 6-10.119 10.737-15.58 11.228l-2.206.2105.245-1.8947c.56-3.8246.385-8.1403-.525-13.123-.21-1.1579-.701-4-1.051-6.2807-.385-2.3158-.875-4.3509-1.085-4.5614-.28-.2807-.35-.0702-.21.8421.21 1.193.49 3.6842 1.33 12 .42 3.9298.28 11.018-.21 12.281-.315.807-1.4.5614-4.061-.8421-5.077-2.6667-8.158-8.5263-9.0333-17.158-.5252-4.9825-.4552-7.8246.175-12.491.8053-5.5439 2.1007-8.5263 4.4466-9.9299l1.1207-.70175h-1.0857c-.5952 0-1.6106.35088-2.2758.80702zm-15.51 14.105c-.4902 1.3333-.9804 6.9123-.8053 9.614.5602 8.2456 2.871 13.404 8.1578 18.246 8.0879 7.4035 16.28 8.4211 19.046 2.3158l.666-1.4737 2.38-.2456c3.537-.3509 6.968-1.8947 10.749-4.8421.91-.6667 1.015-.7017.805-.1403-.14.3508-.35 1.0526-.455 1.5438-.14.5263-.35 1.0877-.49 1.2983-.175.1754-.385 1.228-.525 2.3158-.49 4 1.68 6.4561 5.602 6.3859 1.47-.0351 3.711-.5614 7.632-1.7544.526-.1754.491.0351-.28 1.6842-.49 1.0527-.875 2.2457-.875 2.6667v.7719l-1.611-.9122c-2.205-1.2281-6.722-1.5088-11.168-.6316-4.552.8772-14.706 3.8245-17.506 5.0877-2.9065 1.2982-9.2437 3.7544-9.1037 3.5088.1051-.1755 1.4005-1.193 2.906-2.2456 3.3612-2.386 6.0217-4.9474 6.0217-5.8246 0-.7719-1.645-1.7544-2.9406-1.7544-1.1204 0-6.3022 3.0526-9.8734 5.8246-2.906 2.2807-4.6916 4.3859-4.6916 5.614 0 1.0526-8.508 5.614-14.88 7.9649-3.9214 1.4386-6.8274 2.1053-7.3526 1.6491-.3501-.2807-.5252-.2807-.7002.0351-.3852.5965-3.2212.1755-4.0614-.5965-.9104-.8421-.7003-2.7719.5952-4.9473 1.6455-2.8421 6.9674-7.6141 10.819-9.7193 3.9914-2.2106 6.8274-3.8948 6.8274-4.1053 0-.2456-2.3808.4912-4.0964 1.2632-.5952.2807-1.2254.5263-1.4005.5263s-1.7856.8772-3.5362 1.8947c-3.5013 2.1053-7.7727 5.4386-9.2082 7.2983-3.2912 4.1754-3.2562 7.8596.105 9.7544 1.4005.807 1.6106 1.1929.8753 1.6491-.3501.2105-2.3808 3.0526-2.5209 3.5087 0 0-.5952.1404-1.2954.2807-1.1554.2106-1.3305.1755-1.3655-.3859 0-.5263-.07-.5263-.2101-.1404-.2451.6316-.8053 1.0527-1.4705 1.0527-.5602 0-.3501-1.8948.4552-4.2106.2801-.7719.3501-1.4035.21-1.4035-.3151 0-.4551.3158-1.6105 3.3334l-.7703 2.1052-1.9607-.1052c-7.9477-.3509-12.744-7.5439-10.924-16.351.3151-1.5088.4902-2.8421.3852-2.9474-.2801-.2807-1.5756 2.9123-1.9957 5.0176-1.0854 5.4386 2.5559 12.421 7.6326 14.632 1.6456.7018 1.8557.9123 1.6806 1.6842-.7352 3.6843-.4551 11.439.6302 16.14.4902 2.1754 1.7156 6.0699 2.0307 6.4209.2801.316.1051-.842-1.0153-6.7718-.5252-2.7017-.8403-6.1052-.9804-10.281l-.21-6.2456 1.3654.2105c.7353.1404 1.6806.2807 2.0658.3158.8403.1404.8403.4562 0 5.8246-.4202 2.6316-.6653 5.9298-.6653 9.4737-.035 4.7015.0701 5.7895.7353 7.9295.4551 1.404 1.1204 2.877 1.4705 3.334.5952.772.5952.561-.2101-2.141-1.5405-5.2278-1.4705-12.245.2801-22.035.3501-2 .4552-2.1755 1.2605-2.1755.7352 0 .8403.1053.6652.772-1.1904 4.2807-1.9257 18.491-.9453 18.807.21.07.3851.491.3851.912 0 .456.3151 1.719.7353 2.877.3851 1.123.9103 2.842 1.1554 3.825.2801.947.6652 2.21.8753 2.807.21.561.6302 2.14.9803 3.473.4201 1.72.7703 2.457 1.2254 2.597.3501.07.6302.456.6302.807 0 .386.2451.667.5602.667.5602 0 .5602.035-.07 5.614-.6302 5.228-5.0417 15.193-7.9477 17.894-.3852.386-.5953.807-.4902.948.2101.175.5952.035 2.4858-.913.2101-.07 0 .386-.4201 1.088-.9453 1.509-.9453 1.719-.14 1.439 1.4705-.597 4.2714-4.176 5.6719-7.334.5952-1.333 1.2605-2.701 1.4355-3.052.7703-1.439 2.2408-7.123 2.6259-10.246.1051-.982.2801-1.859.3502-1.965.3151-.526 1.1554-10.386 1.3304-15.403.1051-2.983.2801-8.1406.3852-11.404.14-3.2983.2801-7.4386.3151-9.2281.105-2.9474-.1751-4.1754-.6303-2.6316-.9453 3.4035-1.5755 10-2.1707 23.684-.1401 2.842-.3501 5.123-.4902 5.017-.14-.07-.3501-1.087-.4551-2.245-.1401-1.158-.4552-3.334-.7703-4.842-.2801-1.509-.7002-3.614-.9103-4.7021-.3151-1.5088-.2451-3.0877.2101-7.2982.6652-5.8597.5601-7.4035-.1751-2.6667-.2451 1.6491-.5602 3.0877-.7003 3.1579-.3501.2105-.6652-4.5263-.4901-6.6667.21-2.2807.8403-5.4737 1.2254-6.2105.1751-.3158 1.6106-1.0175 3.1861-1.5439 6.4773-2.1403 14.145-6.2807 21.532-11.614 2.4509-1.7544 3.8864-2.5614 4.5866-2.5614 1.6106 0 6.3372-1.614 11.974-4.1053 2.3455-1.0175 3.3265-1.4035 7.3525-2.8421 2.206-.7719 5.287-1.7544 6.827-2.1403 1.541-.4211 3.292-.9123 3.852-1.0527 2.696-.8421 5.567-1.228 8.928-1.228 5.147-.0351 5.847.421 7.282 4.9473.946 2.9825 3.747 7.1229 5.952 8.6667 1.086.7719 1.786 1.7193 2.556 3.3333 1.716 3.7193 5.602 6.9123 10.609 8.8071 1.751.6666 8.893 2.4561 9.768 2.4561 1.296 0 2.171.8772 3.292 3.2281 3.011 6.3158 3.921 16.245 2.205 24.315-.385 1.93-.805 4.071-.91 4.737-.105.667-.385 2.105-.665 3.158-2.521 10.351-1.646 18.562 2.381 22.562 1.505 1.508 3.571 2.561 3.956 1.964.105-.175-.105-.421-.455-.561-1.226-.456-2.871-2.351-3.571-4.105-1.576-3.93-1.611-8.807-.21-16.562.98-5.368 1.505-7.508 1.785-7.508.105 0 .105.666-.035 1.473-.49 2.948-.455 10.246.035 13.018.77 4.456 2.486 7.544 4.797 8.561 1.75.807 1.785.491.14-.982-1.331-1.158-1.786-1.86-2.346-3.755-1.155-3.614-1.19-10.807-.175-18.842 1.085-8.456 1.47-16.842.875-20.035s-1.82-6.4211-3.186-8.4211l-1.085-1.5789 1.155.1052c1.121.1053 1.156.2106 2.276 3.5088 1.576 4.6316 2.206 8.3509 2.556 14.562.315 5.614.245 16.105-.105 17.508-.14.457-.07.842.105.842.525 0 .7-2.21.945-11.087.315-11.298-.28-16.141-2.696-22.421-.56-1.4737-1.015-2.7719-1.015-2.8421 0-.1053.35-.1403.805-.0702 1.576.2106 3.922 7.0878 4.937 14.491.91 6.5263 1.645 10.351 1.996 10.351.42 0 .385-1.158-.035-3.544-.175-1.053-.421-2.772-.526-3.8249-.875-7.8596-3.361-16.491-4.971-17.088-.981-.386-.385-.807 1.12-.807 4.132 0 10.889-2.2105 13.34-4.3509 1.575-1.3684 1.4-2-.28-1.0175-3.747 2.2456-11.239 3.8245-17.787 3.7894l-3.326-.0351-1.995-1.4386c-1.926-1.4736-6.093-3.1578-6.548-2.7017-.105.1403-.035.2807.14.386 1.191.421 5.217 2.8421 5.322 3.1228.245.7368-7.632-.8772-12.184-2.4913-3.221-1.1228-5.287-2.3508-7.037-4.1403-1.436-1.4737-2.556-3.3333-2.241-3.6491.07-.1053.91.0701 1.855.3859 6.793 2.2106 19.257 1.4737 29.166-1.7544 3.641-1.1929 7.982-3.4386 9.838-5.0877l1.54-1.3684-2.625 1.3684c-2.766 1.4737-5.777 2.7369-7.528 3.193-.56.1754-2.486.7018-4.272 1.193-5.672 1.614-11.168 2.3158-17.261 2.1403-5.391-.1403-8.788-.6666-10.818-1.7543-.841-.4211-1.016-.772-1.156-2.3509-.105-1.0176-.105-2.5614.035-3.4386l.21-1.579 1.751-.2105c2.346-.3158 3.886-.9824 7.002-3.1579 3.607-2.4912 6.443-5.6491 8.999-10 1.82-3.1228 2.24-3.614 2.871-3.4737.7.2106 2.59.772 9.278 2.772 1.645.4912 3.011.8421 3.081.7719.21-.2105-1.436-1.1228-3.221-1.7544-.946-.3509-2.066-.7368-2.451-.9123-.385-.1754-2.031-.7368-3.676-1.2631-1.646-.5264-3.081-.9825-3.222-1.0527-.105-.0701 0-.8421.246-1.7193 1.015-3.2982.735-6.9824-.666-9.1228-.315-.4912-.49-.8772-.385-.8772.315 0 5.637 4.0702 8.228 6.2807 7.843 6.7018 11.344 10.491 14.95 16.176 2.521 3.9298 3.186 6.0351 4.482 13.86.315 1.9298.665 3.7544.77 4.0351.28.7018.28.7018.595 2.3509.14.8421.385 1.5088.525 1.5088.281 0-.805-11.298-1.155-11.86-.14-.2456-.105-.421.105-.421.875 0 6.617 12.175 7.948 16.912.28.9474.735 2.5264 1.015 3.5088.315 1.0176.911 3.614 1.366 5.7895 1.47 7.193 1.05 16.842-1.051 23.789-.315.948-.63 2.211-.735 2.807-.105.562-.315 1.299-.455 1.614-.175.316-.875 2.106-1.576 4.035-.7 1.895-1.435 3.825-1.645 4.246-.21.456-.28.912-.175 1.018.14.14.035.421-.245.631-.631.526-1.716 3.614-1.436 4.07.14.211.035.316-.175.281-.245-.07-.49.14-.525.421-.21.912-1.926 5.754-2.276 6.421-.21.351-.28.772-.175.912.07.176-.07.492-.35.737-.28.246-.42.562-.315.737.385.632-.175.281-1.156-.702-.805-.772-1.26-.982-1.96-.842-1.436.281-4.167 2.948-5.812 5.684-1.646 2.737-2.171 2.948-5.392 2.421-2.696-.421-17.646-.666-18.662-.28-.455.175-.84.21-.84.035 0-.14-.84-.14-1.821.035-2.135.386-2.801.386-5.707 0-2.906-.351-5.987.105-9.768 1.474-3.921 1.438-6.512 2.701-8.683 4.315-.91.632-2.416 1.404-3.361 1.685-.945.28-1.926.772-2.206 1.087-.245.316-1.33.983-2.416 1.544-1.05.527-3.081 1.755-4.481 2.737l-2.556 1.719-1.261-.631c-.665-.351-2.1-.737-3.186-.842-1.12-.141-4.131-.597-6.722-1.088-2.591-.456-5.672-.947-6.8274-1.088-1.4706-.14-2.4859-.526-3.4312-1.193-5.3569-3.894-13.235-3.123-20.727 1.965-.9454.667-3.1512 1.684-4.9018 2.246-1.7156.561-4.0614 1.438-5.2168 1.93-1.1204.491-3.4662 1.263-5.2168 1.649-1.7856.421-4.3065 1.158-5.672 1.614l-2.4508.842-1.3655-1.684c-.7703-.913-2.2758-2.527-3.2911-3.579l-1.9257-1.895.7352-2.561c.4202-1.439.7703-2.878.7703-3.228 0-1.334 2.1358-6.737 4.3415-11.018 2.1008-4 4.0965-8.667 4.0264-9.333 0-.141-.5252.772-1.1554 2.035-3.3261 6.737-5.5669 10.526-6.0921 10.456-.4201-.07-.8403.491-1.4355 2.07-.8753 2.246-1.5055 2.702-2.1007 1.579-.2451-.456.2451-1.368 2.2758-4.281 2.6609-3.719 3.4312-4.912 3.1861-4.912-.07 0-1.4355 1.895-3.0461 4.211-2.3458 3.333-3.046 4.105-3.3962 3.789-.9453-.772-6.4422-8.281-8.683-11.86-4.0964-6.561-7.6677-14.561-9.7334-21.754-1.4355-5.088-2.7659-15.228-2.6959-20.667.07-4.5614.8753-10.737 1.7156-13.509.8053-2.6666 1.2954-5.8245.7703-5.2982-.4902.5263-2.3809 5.4035-2.9761 7.8245-.3151 1.1579-.5602 2.7369-.5602 3.5088 0 .807-.14 1.5088-.3151 1.614-.5252.3158-.8053-1.5087-.4201-2.7017.21-.6316.8052-2.6316 1.3654-4.4562 2.731-8.8421 9.5584-21.579 15.02-28.07 9.2432-10.912 15.86-17.263 25.909-24.772 6.6873-5.0526 12.709-9.0526 17.961-11.965.8753-.4912 1.7156-1.0175 1.9257-1.193.5252-.5263 1.3305-.3508 1.0854.2106zm69.324 8.3509c1.471.6315 5.672 3.0175 7.423 4.2105 2.696 1.8245 4.972 6.3509 4.796 9.5438-.14 1.7895-.805 4.386-1.19 4.386-.875 0-7.738-3.2632-7.738-3.6842 0-.0702 1.191-1.2983 2.626-2.7368 2.556-2.5615 3.116-3.579 2.136-3.965-.63-.2456-2.976.9474-3.851 1.9299-.385.421-.841.7368-1.051.7368s-.98.4561-1.645 1.0526l-1.261 1.0176-.91-.9474c-2.276-2.386-2.486-4.7368-.91-10.702.385-1.5088.28-1.4386 1.575-.8421zm-2.836 17.509c-1.75 1.7895-3.221 3.3334-3.326 3.4386-2.101 2.1404-4.131 6.1053-4.587 8.8772-.42 2.4912-.21 3.6491.946 5.3333.455.7018.77 1.4386.63 1.6141-.105.1754-.28 1.614-.42 3.2281l-.245 2.8771-1.751-1.7894c-3.571-3.6141-5.637-9.6842-4.551-13.298.77-2.5614 1.785-3.7193 5.146-5.7894 3.186-1.965 6.688-4.4562 9.174-6.5615 2.625-2.2105 2.1-1.1228-1.016 2.0702zm7.388-.5614c1.505.6667 3.081 1.3684 3.466 1.5439.385.1754 1.12.4912 1.646.6666 1.085.4211 1.05.7369-.316 2.9123-.455.7369-.805 1.5088-.805 1.7193 0 .2456-1.925 2.3509-4.271 4.6667-3.361 3.2982-4.832 4.4912-6.688 5.4386-2.135 1.0175-5.146 1.8246-5.146 1.3684 0-.1053.245-.8421.525-1.6491.595-1.7544.21-1.8947-.665-.2105-.386.6666-.806 1.228-.946 1.228-.455 0-.77-2.3508-.49-3.7894.665-3.579 2.801-6.9474 7.668-11.93 1.715-1.7544 3.151-3.228 3.186-3.228s1.33.5614 2.836 1.2631zm-56.23 12.982c0 .3859-1.5755 1.5789-5.5319 4.2105-4.8317 3.2281-5.742 3.5439-3.2211 1.193 1.6806-1.579 4.8667-3.8948 7.1775-5.193.7702-.421 1.5755-.5263 1.5755-.2105zm-26.924 19.088c-1.0504.5965-1.9957 1.0526-2.0658 1.0526-.105 0-2.0307.772-4.2715 1.7544-2.2057.9474-4.5515 1.8597-5.2168 1.9649l-1.1204.2456.5602-1.3684c.7703-1.8596.7703-1.8596 3.1511-2.0702 2.6259-.2105 4.6567-.6666 7.5277-1.7543 3.116-1.1579 3.7112-1.0878 1.4355.1754zm-17.191 8.421c0 .4913-1.7506 4.3509-1.8907 4.1755-.14-.1404.3501-3.2983.6652-4.1053.1751-.4912 1.2255-.5965 1.2255-.0702zm.7352 1.6141c-.175.7719-.4551 2.6316-.5952 4.1754-.105 1.5439-.6302 4.4562-1.0854 6.4913-.5602 2.3508-.9103 4.807-.9103 6.7368-.035 3.6137-.3851 3.3687-.8753-.5965-.6652-5.6842.1751-11.228 2.3808-16.105 1.1555-2.5614 1.6806-2.8772 1.0854-.7017zm113.05.8421c2.696 3.4035 3.747 8.3158 3.537 16.491-.105 2.7019-.596 1.9299-.701-1.0526-.105-4.4211-1.47-9.6842-3.536-13.754-1.61-3.1579-1.575-3.0877-.91-3.0877.28 0 .98.6316 1.61 1.4035zm-112.28 22.526c.035 3.825-.035 6.246-.2101 5.79-.3851-.983-.5602-3.614-.7702-10.597-.1401-5.5437-.1401-5.5788.3851-3.684.3851 1.4035.5602 3.754.5952 8.491zm-40.159-4.21c.07 2.561.2101 5.614.2801 6.772l.1751 2.105-.5602-1.404c-.7353-1.859-.9103-13.052-.2101-12.315.105.1052.2451 2.2807.3151 4.8424zm38.128-1.5091c0 1.8951-.105 3.2981-.2451 3.0881-.3501-.562-.3501-6.5618 0-6.5618.1401 0 .2451 1.579.2451 3.4737zm3.6413 9.0531c.6302 4.526.8402 8.035.4901 7.649-.5602-.562-1.2954-6.316-1.1904-9.228.07-1.825.2801-1.299.7003 1.579zm-38.198.526c0 1.088 1.1554 5.438 2.5559 9.649 1.2954 3.789 4.7616 11.123 6.9674 14.596 1.5405 2.492 1.6456 2.772.8753 2.492-.2801-.141-.7703 0-1.0854.245-.4552.386-.5252.913-.3501 2.948.14 1.333.3151 2.701.3851 2.982.1051.281.2451 1.018.3151 1.579.0701.597.2451 1.509.3502 2.105.245.983.245 1.018-.2801.386-.3152-.386-.8754-1.579-1.2955-2.631-.3851-1.088-.9453-2.456-1.1904-3.018-.5252-1.193-2.5209-6.912-3.6413-10.351-1.2254-3.894-2.1007-7.789-3.1861-14.105-1.0854-6.281-1.2604-8.175-.7352-7.86.175.106.3151.562.3151.983zm13.48 30.035c.4901.737 2.4158 3.228 4.3065 5.474l3.3961 4.14-.5602.982c-.6652 1.123-.7702 1.544-.245 1.229.4551-.281.4551-.246-.3852 3.157-.6652 2.597-.8403 2.913-1.3304 2.632-.7003-.351-2.1008-3.684-2.9761-7.018-.9103-3.438-1.0854-4.105-2.1357-7.543-.5252-1.755-1.0154-3.439-1.1204-3.79-.2801-.947.07-.702 1.0504.737zm155.03.807.736.737-1.751 1.649c-1.926 1.719-3.501 4.702-3.816 7.053-.21 1.579-.806 1.543-.806-.036 0-.771-.21-1.122-.875-1.368-.98-.386-.945-.596.595-3.403 1.121-2.036 4.097-5.369 4.762-5.369.245 0 .77.351 1.155.737zm-44.885 7.825c-.42.35-2.101.561-1.891.21.105-.175.63-.351 1.12-.351.526 0 .841.07.771.141zm-100.66 3.157c-.1401.386-.4202 1.193-.6653 1.79-.4551 1.053-.4551 1.053-.4901-.772-.0351-.982-.1401-2.07-.2801-2.386-.2101-.561-.1401-.561.7352 0 .7003.456.8753.807.7003 1.368zm48.702 4.457c1.1554.421 1.9607.807 1.7506.877-.175.035-3.1161.175-6.4772.28-3.7463.106-6.9324.386-8.2279.702-1.1554.316-2.4859.562-2.976.527-.7703 0-.7353-.071.4901-.737 5.1468-2.702 11.029-3.334 15.44-1.649zm91.346 3.789c.456 2.316.701 4.246.596 4.246-.245-.035-1.961-3.439-1.996-4 0-.211-.21-.842-.42-1.369-.245-.561-.42-1.158-.42-1.333 0-.456 1.12-2.14 1.295-1.965.07.105.49 2.07.945 4.421zm-89.421-1.018c.3501.246-.5252.351-2.9761.351-3.2911 0-12.184.842-12.779 1.228-.1401.071-1.3305.246-2.6609.351-1.3305.106-2.696.281-3.0111.386-.3501.106-.6302.035-.6302-.105 0-.491 6.5823-1.895 10.679-2.316 2.871-.28 10.924-.21 11.379.105zm28.605 2.702c0 1.509.175 3.158.385 3.684.491 1.229 0 1.299-.77.106-.735-1.088-1.891-2.211-3.151-2.983l-.98-.631 2.205-1.439c1.226-.772 2.276-1.439 2.276-1.439.035 0 .035 1.229.035 2.702zm-83.084-1.824c-.2101.561-.8403.737-.8403.245 0-.386.3852-.772.7353-.772.175 0 .2101.246.105.527zm5.9521 3.403c3.3261 3.544 3.5712 4.176 1.7856 4.632-.7352.175-1.1904-.105-2.801-1.684-1.8906-1.86-1.9256-1.895-1.7156-3.509.1401-.877.3151-1.614.4552-1.614.105 0 1.1204.982 2.2758 2.175zm16.981 2.562c-1.6456.877-3.3612 1.929-3.7813 2.315-.9804.913-1.2605.702-.7003-.526.5252-1.158 2.4159-2.351 4.5166-2.877 2.976-.772 2.976-.456-.035 1.088zm-19.187 1.649c.6302.772.8753 1.684.4552 1.684-.3501 0-1.5055-1.544-1.5406-2.035 0-.632.3152-.526 1.0854.351zm139.98 4.14c0 .281-.385-.281-.875-1.228-.455-.982-.805-2-.805-2.281.035-.666 1.68 2.807 1.68 3.509zm-140.12 3.088c-.2801 1.579-.5602 2.947-.6653 3.052-.3501.386-.7002-3.719-.4551-5.508.2451-1.72.2801-1.755.9103-1.123.5952.631.6302.877.2101 3.579zm2.2057 3.754c.3151.386.2451.632-.2801 1.158-.3851.386-.8403 1.649-1.1203 3.088-.5602 3.158-.8754 3.719-1.1905 2.175-.14-.772.035-2.351.4552-4.175.3501-1.614.8053-3.649.9453-4.527l.2801-1.578.2451 1.684c.1401.947.4552 1.894.6652 2.175zm-5.1468 2.526c.0701 1.123.2451 2.808.3852 3.79.175 1.193.105 1.614-.1401 1.368-.7702-.772-1.4355-7.158-.7352-7.158.175 0 .3851.913.4901 2zm6.5123 17.65c-.035 1.193-.2101 2.21-.3851 2.315-.3151.211-.3852-3.017-.07-3.859.3851-1.018.5251-.562.4551 1.544zm100.52 55.614c.245.315.28.526.07.526-.175 0-.42-.246-.56-.526-.105-.281-.14-.527-.07-.527s.315.246.56.527zm-54.619-.035c0 .07-.2451.21-.5252.35-.2801.106-.5252.036-.5252-.14 0-.21.2451-.351.5252-.351s.5252.07.5252.141zm5.9521 1.438c0 .351-1.4355.877-1.8207.667-.2801-.176-.175-.351.2801-.526.7703-.316 1.5406-.386 1.5406-.141zm3.0111 1.404c-.665.491-1.9608.737-1.9608.351 0-.246 1.4358-.843 2.1008-.843.385 0 .35.106-.14.492zm8.543.526c0 .737-1.085 2.456-1.751 2.807-.49.281-.91.281-1.435 0-.665-.386-.665-.456-.175-1.018.315-.35.455-.736.315-.912-.175-.14-.07-.175.175-.035s.84-.07 1.33-.456c1.016-.807 1.541-.947 1.541-.386zm33.402 1.018c.28.456-.141 1.473-.526 1.228-.42-.246-.42-1.544 0-1.544.21 0 .42.14.526.316zm-2.241 3.403c0 .175-.56.877-1.226 1.544l-1.225 1.193v-1.333c0-.702.245-1.79.56-2.386l.56-1.088.665.842c.351.456.666 1.018.666 1.228zm-7.213 4.772c-.21 1.403-.385 1.684-1.435 2.175-.701.316-1.296.527-1.366.457-.07-.071.525-1.088 1.331-2.281.84-1.158 1.54-2.105 1.575-2.035.07.035 0 .807-.105 1.684z"/><path d="m167.66 38.596c.21.6315 2.556 3.4736 3.011 3.6491.315.1403.28-.0702-.07-.772-.98-1.7894-3.396-4.1754-2.941-2.8771z"/><path d="m180.54 87.825c0 .1053.561 1.6141 1.261 3.2983 1.085 2.6666 1.295 3.614 1.505 7.1228l.246 4.0353.49-2.07c.385-1.6495.385-2.4916.07-4.3864-.49-2.8772-1.996-6.7719-2.906-7.614-.35-.3158-.666-.4912-.666-.386z"/><path d="m51.384 102.32c-.035.982.9454 4.281 1.3655 4.526.2101.141.2101-.175-.035-.772-.2101-.526-.5952-1.789-.8403-2.737-.2801-.982-.4902-1.438-.4902-1.017z"/><path d="m141.33 129.09c-.526.14-.911.526-.981 1.017-.07.562-.665 1.018-2.031 1.649-2.24 1.018-2.38 1.053-2.1.351.14-.421-.035-.386-.771.141-4.516 3.122-12.464 7.403-13.724 7.403-.385 0-.701.176-.701.351 0 .421 2.346.175 4.552-.491 5.462-1.684 7.738-2.316 9.488-2.667 4.027-.772 13.48-.316 21.463 1.053 2.801.491 3.956.561 4.306.28.315-.245.736-.245 1.506.071.595.245 1.155.351 1.295.21.631-.631-2.205-2.456-9.068-5.895-5.287-2.631-10.994-4.14-13.234-3.473zm5.041 2c1.681.28 1.576.702-.21.947-1.82.246-2.976-.245-2.346-1.017.245-.281.631-.457.876-.351.245.105 1.015.28 1.68.421zm-3.991 1.228c0 .175-.14.316-.315.316s-.805.105-1.401.21c-1.365.281-1.47-.386-.105-.842 1.016-.351 1.821-.21 1.821.316zm10.153 1.088c0 .21-.49.28-1.295.105-1.576-.281-1.821-.456-1.19-.877.56-.316 2.485.245 2.485.772z"/><path d="m157.96 133.16c.385.316 1.82 1.123 3.151 1.789 1.365.702 2.766 1.544 3.186 1.93.77.702 1.54.877 1.54.351 0-1.263-4.481-3.965-7.282-4.421-1.226-.21-1.261-.21-.595.351z"/><path d="m81.494 134.42c-.4551.176-1.9256.491-3.3261.702-3.6763.561-4.8317 1.123-4.6916 2.281.105.807-.1051.982-1.8207 1.719-1.6455.702-1.9256.947-1.9256 1.719.035.491-.1051.912-.2801.912-.1401 0-1.0854.351-2.0307.737-1.4706.667-1.7507.913-1.6456 1.614.105.737-.1751.948-1.9607 1.685-2.0657.842-2.941 1.403-2.6259 1.754.105.07 2.4858-.632 5.3218-1.579 2.801-.983 5.3919-1.754 5.742-1.719.6653 0 .4202.14-2.6959 1.438-.8753.351-1.8206.772-2.1007.948-.2801.14-1.8207.947-3.3962 1.754-1.5756.807-3.0461 1.719-3.2912 2-.9803 1.193.3151.877 3.8164-.982 2.0657-1.088 4.6216-2.316 5.6719-2.737 1.0504-.421 2.4159-.983 2.9761-1.228 2.3108-1.053 3.9213-1.649 5.2518-1.93.7703-.141 2.3458-.527 3.5012-.842 1.1554-.316 5.9871-1.299 10.714-2.141 6.5473-1.193 8.8578-1.473 9.8038-1.263 2.556.667 3.116.737 3.116.421 0-.175-.665-.526-1.471-.807-1.33-.386-1.505-.596-1.505-1.509 0-1.122-.666-1.473-2.9763-1.543-.6653-.035-1.6806-.281-2.2058-.562-.6652-.351-2.1357-.491-4.7266-.526-2.0658 0-5.1468-.14-6.8974-.351-3.6763-.386-3.2912-.386-4.3416.035zm-1.4355 2.386c-1.6805.526-3.8513.737-3.8513.421 0-.386 1.2254-.631 3.3262-.667 1.1554 0 1.2604.036.5251.246zm8.7531.386c0 .175-.1401.351-.3151.351-.2101 0-.4552-.176-.5602-.351-.105-.211.035-.351.3151-.351.3151 0 .5602.14.5602.351zm6.1271.351c.6302.246.6653.281.1051.526-.7353.281-1.6806 0-1.6806-.526 0-.421.5952-.421 1.5755 0zm-9.9784.14c0 .316-1.4005.456-1.6106.176-.105-.176.2101-.316.7002-.316.4902 0 .9104.07.9104.14zm-2.4509.527c-.2801.175-1.8556.561-3.5012.877-1.6456.351-3.3962.772-3.9214.947-.4902.211-1.2254.316-1.5755.246-1.0854-.281 6.5122-2.246 8.9981-2.351.4552 0 .4552.035 0 .281zm-9.4533 4.21c0 .316-1.1904.737-2.1007.737-.3151-.035-.1751-.246.3501-.526 1.0154-.562 1.7506-.667 1.7506-.211z"/><path d="m207.68 138.1c2.766 6.913 3.291 9.86 2.661 14.737-.455 3.369-1.855 9.509-2.381 10.456-.28.527-1.89-4.175-3.816-11.158-.28-.947-.805-2.386-1.19-3.193-.386-.807-.701-1.544-.701-1.649 0-.245 3.257-1.579 4.622-1.895.665-.14 1.26 0 2.031.562 1.33.947 1.365.421.035-.842-.595-.562-1.401-.983-1.996-.983-1.295-.035-3.886.667-4.166 1.123-.105.211-.456.351-.771.351-.875 0-5.847 3.123-8.123 5.123-3.011 2.631-6.127 6.281-7.422 8.702-.945 1.789-1.015 2.105-.595 2.561.455.421.77.14 2.626-2.421 4.061-5.544 11.729-12.351 12.709-11.263.14.14.91 2.561 1.716 5.368.805 2.807 1.855 6.421 2.345 8.07 2.311 7.825 1.121 15.649-3.956 25.79-1.05 2.105-2.101 4.105-2.346 4.386-1.085 1.298-.84 1.438.315.175 1.121-1.263 2.276-3.017 2.276-3.509 0-.07.42-.561.875-1.087 1.716-1.86 4.517-8.842 5.392-13.474.175-1.053.315-3.474.245-5.403-.105-3.123 0-3.685.911-5.895.525-1.369 1.05-2.807 1.12-3.228.105-.386.385-1.369.665-2.141.946-2.701 1.401-6.175 1.191-9.508-.175-2.913-.385-3.72-1.716-6.702-1.05-2.351-1.715-3.474-2.171-3.544-.525-.105-.595 0-.385.491z"/><path d="m194.37 148.42c-.105.176-.07.351.14.351.175 0 .455-.175.561-.351.105-.21.07-.351-.141-.351-.175 0-.455.141-.56.351z"/><path d="m143.96 151.72c-3.606.597-5.602 1.299-9.208 3.193-3.571 1.895-5.812 3.72-6.933 5.614-.84 1.474-1.12 2.983-.525 2.983.175 0 .911-.772 1.611-1.755 1.54-2.105 6.232-5.614 7.527-5.614.21 0 .351.667.351 1.474 0 .842.42 2.456.875 3.614.49 1.158.875 2.105.875 2.141 0 0-1.4-.071-3.081-.141-4.762-.245-9.558 1.263-9.803 3.018-.14.947-.07.947 1.4.105 2.486-1.474 6.968-1.93 11.939-1.193 7.598 1.088 14.915.842 17.751-.597 1.366-.701 2.731-2.456 1.506-1.929-2.136.912-4.447 1.508-6.512 1.684-2.171.175-3.081-.105-1.821-.597.315-.105.945-1.017 1.401-2.035 1.085-2.351 1.155-4.877.14-6.737-.386-.736-.666-1.403-.596-1.473s1.121.351 2.311.912c2.206 1.018 5.672 4.211 5.672 5.158 0 .246.175.456.35.456.49 0 .455-.21-.56-2.035-1.365-2.456-2.836-3.825-5.567-5.158-2.941-1.438-5.252-1.719-9.103-1.088zm5.777 3.439c.805 1.333.84 1.719.35 4.035-.455 2.14-3.081 5.439-3.571 4.526-.245-.421-.875-.561-2.661-.561-2.626 0-3.606-.456-4.447-2.105-.665-1.299-.665-1.614.035-1.018.491.386.631.386.981-.14.42-.526.56-.456 1.61.631.946.983 1.471 1.228 2.521 1.228 2.031 0 3.396-.877 4.202-2.701.385-.842.595-1.684.455-1.79-.105-.14-1.086-.245-2.101-.245-2.311 0-3.046-.527-2.101-1.579.35-.386.911-.702 1.296-.702.35 0 .63-.176.63-.351 0-.21.49-.351 1.05-.351.806 0 1.226.246 1.751 1.123zm-10.679.281c-.105.175-.35.351-.56.351-.175 0-.315-.176-.315-.351 0-.211.245-.351.56-.351.28 0 .42.14.315.351z"/><path d="m6.6031 159.16c-4.2365 3.333-3.6763 12.14 1.3655 22.456 2.3108 4.702 5.707 10.07 9.0332 14.175 1.4705 1.825 3.7113 4.597 4.9367 6.141 4.4115 5.473 11.974 13.895 14.04 15.614 1.7856 1.509 3.1161 2.175 3.1161 1.614 0-.105-1.1554-1.509-2.5209-3.123-1.4005-1.614-3.6413-4.351-5.0067-6.07-1.3305-1.684-3.6063-4.421-4.9718-6.07-1.4005-1.649-2.5559-3.123-2.5559-3.263 0-.141.3852-.071.8753.14 1.7156.772 1.2955-.105-1.0153-2.246-2.871-2.596-4.5166-4.772-6.6523-8.737-3.5363-6.526-6.3372-17.193-6.0922-22.982.1401-3.509-.3151-3.825-1.4705-1.123-.70025 1.649-.77027 2.211-.5602 5.369.21008 3.438 1.3655 8.842 2.5209 11.719 1.1904 2.982.1401 1.719-1.7506-2.14-4.4115-9.018-5.3218-15.79-2.731-20.211 1.5405-2.561 1.4355-2.842-.56019-1.263z"/><path d="m189.86 171.75c-.35.948-.245 1.93.525 5.334.735 3.158.735 3.333.175 6.491-.315 1.789-.665 3.684-.77 4.211-.175.736-.105.982.315.982.77 0 1.996-3.544 2.241-6.421.14-1.754 0-3.404-.595-6.316-.806-4-1.436-5.403-1.891-4.281z"/><path d="m33.913 183.93c-.9453 1.579-1.4705 3.333-1.5405 5.123-.07 1.789.6652 2.912 2.906 4.526 2.976 2.14 3.7113 2.982 3.9564 4.772.14.912.3851 1.649.5252 1.649 1.1554 0 1.4705-2.912.4901-4.632-.3501-.561-1.6806-1.719-2.941-2.596-3.1511-2.07-3.4662-2.912-2.4859-6.246.3852-1.368.8403-2.772.9454-3.122.4551-1.123-1.1204-.702-1.8557.526z"/><path d="m127.32 184.81c0 .14.49.737 1.085 1.368 2.101 2.176 1.506 5.86-1.435 8.737-2.241 2.211-.945 2.772 1.435.632 3.292-2.983 3.887-7.369 1.331-9.895-.945-.982-2.416-1.474-2.416-.842z"/><path d="m101.8 187.82c-.665.842-1.365 2.877-1.575 4.561-.4905 4.14 3.046 7.544 7.422 7.193 1.471-.105 1.751-.772.42-.912-2.205-.246-3.851-.912-4.936-2.07-1.121-1.123-1.191-1.369-1.191-3.544 0-1.544.21-2.772.63-3.544.316-.667.596-1.404.596-1.684 0-.597-.841-.597-1.366 0z"/><path d="m122.74 189.82c-1.575.807-2.485 2.175-2.591 3.824-.035.702-.105 1.369-.14 1.474-.07.491-2.135 1.053-2.906.842-.455-.14-1.61-.877-2.59-1.614-2.276-1.754-4.132-2.526-5.392-2.246-1.156.246-1.576.702-1.891 2-.49 2.035 2.521 3.088 5.672 2 .945-.315 1.26-.245 2.416.527.875.631 1.785.912 2.731.912 1.225 0 1.61-.211 2.556-1.263.63-.702 1.12-1.474 1.12-1.755 0-.35.245-.456.84-.28 1.891.456 4.447-1.123 4.937-3.053.455-1.895-2.311-2.667-4.762-1.368z"/><path d="m150.78 195.33c0 .141 1.051 1.298 2.311 2.562 1.26 1.228 2.591 2.772 2.976 3.368.735 1.228 2.066 5.123 2.066 6.14 0 .386.175.667.35.667.245 0 .315-.491.175-1.228-.105-.667-.28-1.825-.385-2.526-.21-1.474-1.226-3.614-2.486-5.228-.875-1.158-5.007-4.246-5.007-3.755z"/><path d="m151.13 202.25c0 .245.631 1.193 1.401 2.07 1.4 1.579 1.4 1.614.63 1.859-.455.176-6.932.316-14.46.316-13.41.035-13.725.035-17.681.948-2.206.491-5.357 1.017-6.968 1.122-1.61.106-3.011.246-3.081.351-.35.316 3.151.632 5.077.456 1.086-.105 3.501-.596 5.322-1.052 2.976-.737 3.851-.807 8.053-.632l4.726.211-1.365.631c-.77.316-2.696 1.474-4.272 2.562-3.186 2.105-4.586 2.631-9.418 3.438-5.427.948-8.893.562-11.449-1.228-.56-.421-1.015-.526-1.155-.351-.315.527 1.085 1.755 2.941 2.597 2.206.982 7.457.982 11.414-.035 1.645-.421 3.011-.597 3.291-.421.665.351 1.961-.141 3.256-1.228 3.256-2.737 9.173-5.228 13.235-5.579 3.291-.246 3.326-.211 2.556 3.508l-.666 3.123-7.702 4.632c-7.703 4.667-13.375 7.684-14.67 7.86-.386.035-1.156-.106-1.681-.316-.56-.246-1.33-.421-1.751-.421-.42 0-2.415-.316-4.446-.737-14.88-2.912-17.436-3.649-19.152-5.509-1.0503-1.158-1.7506-2.421-1.4355-2.702.0701-.07 2.766-.596 5.9871-1.193 3.2563-.596 6.3723-1.333 6.9673-1.649 1.926-1.017 1.751-.982-8.998.421-2.0657.281-.9803-.245 3.8514-1.894 2.3456-.807 4.6916-1.685 5.2516-1.965.595-.316 1.261-.562 1.541-.562s.42-.07.315-.175c-.245-.246-10.224 2.245-15.336 3.859-2.2058.667-4.4465 1.228-4.9717 1.228-1.0854 0-2.0307-1.122-2.0307-2.385 0-.948-.8403-1.369-1.5756-.772-1.7856 1.508-3.5712 5.649-2.906 6.807.4201.736.9453.421 1.5405-1.018l.4902-1.158 1.4705.456c.8403.246 3.2562 1.474 5.3569 2.737 3.8513 2.281 5.9871 3.228 9.6283 4.211 3.2561.877 11.624 2.21 16.106 2.526 2.59.211 3.046.351 3.606 1.088 1.365 1.789 4.166.877 12.779-4.176 5.532-3.263 12.57-7.859 14.81-9.754 1.891-1.579 2.556-2.597 2.906-4.597.245-1.438.175-1.368 3.852-2.035 2.941-.491 2.976-.491 3.536.772l.49 1.158.035-1.158c0-1.684-.91-3.544-2.556-5.263-1.435-1.439-2.696-1.93-2.696-.982zm3.502 4.421c0 .175-.246.351-.561.351-.28 0-.42-.176-.315-.351.105-.211.35-.351.56-.351.176 0 .316.14.316.351z"/><path d="m82.159 206.67c-.9103.912-3.2911 5.684-3.9914 8.035-.6302 2.14-.7352 4.947-.2101 4.947.2101 0 .3502-.351.3502-.807 0-.737.7352-3.193 1.9256-6.491.6653-1.895 1.7857-4.14 2.696-5.439.7702-1.087.2451-1.263-.7703-.245z"/><path d="m38.744 217.51c0 1.017 2.0658 2.14 3.8864 2.105 2.4508-.035 5.1118-1.263 4.7616-2.175-.175-.492-.3851-.492-1.8556-.036-2.2058.667-4.8317.632-5.3919-.035-.5952-.737-1.4005-.666-1.4005.141z"/><path d="m140.77 222.56c-1.191.948-6.162 3.79-9.944 5.685-4.796 2.421-11.344 4.666-14.495 4.982-1.155.105-2.311.351-2.556.526-.98.772-7.317-1.122-13.234-3.929-2.101-1.018-4.2718-2.141-4.7969-2.527-1.8207-1.298-.9804.035.8753 1.439 2.2757 1.649 5.8466 3.509 9.2786 4.737 3.011 1.052 9.488 2.105 11.379 1.824 3.676-.596 12.429-4.14 17.576-7.158 1.33-.737 5.742-4.28 6.617-5.298.945-1.053.49-1.263-.7-.281z"/><path d="m103.31 257.4c-.63.492-.63.527.14.141.42-.211.77-.456.77-.526 0-.281-.175-.211-.91.385z"/><path d="m114.97 261.33c-.525.527-.945 1.123-.945 1.299 0 .175-.245.596-.596.947-.315.351-.49.702-.385.807.07.105.701-.561 1.366-1.474 2.03-2.807 2.206-3.333.56-1.579z"/><path d="m130.34 267.26c-.211.491-.176.526.175.211.245-.246.35-.527.245-.632s-.315.07-.42.421z"/><path d="m125.57 270.18c-.21.386-.28.702-.21.702.105 0 .35-.316.56-.702s.28-.701.21-.701c-.105 0-.35.315-.56.701z"/><path d="m149.38 283.02c-2.101.701-3.187 1.403-3.362 2.14-.315 1.158 0 1.333 1.051.631.49-.315 1.82-.666 2.941-.771 1.96-.176 2.065-.141 3.011.982.56.667 1.33 1.895 1.68 2.772.596 1.333 2.066 6.667 2.871 10.246.175.807.421.982 1.261.982.595 0 1.05-.07 1.05-.175 0-.527-1.54-6.702-2.171-8.597-1.505-4.667-3.361-7.193-5.847-8.035-1.26-.421-1.645-.421-2.485-.175z"/><path d="m138.81 294.77c-2.661.632-5.392 3.017-5.112 4.456.175 1.018 1.576.912 2.521-.175.945-1.088 1.541-.948.91.21-.35.667-.28.737.806.737 1.085 0 1.26-.14 1.785-1.579.525-1.368.77-1.579 1.646-1.579 1.295 0 3.606.912 5.462 2.176.805.526 1.54.982 1.645.982.525 0 .105-.807-1.085-2.14-2.276-2.527-5.777-3.79-8.578-3.088z"/><path d="m130.13 295.09c0 .245-1.226 3.123-2.031 4.631-.07.176.56.281 1.401.281h1.54l.63-1.93c.701-2.316.526-3.333-.7-3.333-.455 0-.84.14-.84.351z"/><path d="m118.61 297.65c-.56 1.474-.35 2.351.595 2.351.806 0 .841-.105.595-1.333-.315-1.755-.77-2.141-1.19-1.018z"/><path d="m109.54 297.96c-1.681.246-4.622 1.439-4.622 1.86 0 .105 2.801.175 6.232.175h6.197l-1.155-.772c-1.716-1.088-4.447-1.614-6.652-1.263z"/><path d="m143.33 298.49c-.14.105-.245.527-.245.877 0 .457.245.632.875.632 1.015 0 1.26-1.193.315-1.544-.665-.245-.665-.245-.945.035z"/></g></svg>