<svg fill="none" height="51" viewBox="0 0 185 51" width="185" xmlns="http://www.w3.org/2000/svg"><g fill="#9b9b9b"><path d="m35.6102 21.6816h-15.5365c-.4009 0-.7263.3255-.7263.7264v7.596c0 .4009.3254.7269.7263.7269h6.0607v9.4378s-1.3608.4635-5.1234.4635c-4.4386 0-10.6395-1.6215-10.6395-15.2573 0-13.6382 6.457-15.43279 12.5188-15.43279 5.2471 0 7.5077.92399 8.946 1.36899.4523.1381.8701-.3116.8701-.7125l1.7335-7.33934c0-.18787-.0637-.41373-.2772-.56721-.5842-.41681-4.1481-2.411048-13.1517-2.411048-10.3715 0-21.011 4.412978-21.011 25.625698 0 21.2133 12.181 24.3743 22.4457 24.3743 8.499 0 13.6547-3.6317 13.6547-3.6317.2126-.117.2357-.4142.2357-.5503v-23.691c0-.4009-.325-.7264-.7259-.7264z"/><path d="m115.679 2.82288c0-.40398-.32-.73045-.721-.73045h-8.748c-.4 0-.724.32647-.724.73045 0 .00205.002 16.90602.002 16.90602h-13.6361v-16.90602c0-.40398-.3219-.73045-.7223-.73045h-8.7474c-.3978 0-.7222.32647-.7222.73045v45.77642c0 .4035.3244.732.7222.732h8.7474c.4004 0 .7223-.3285.7223-.732v-19.5804h13.6361s-.024 19.5789-.024 19.5804c0 .4035.324.732.725.732h8.768c.401 0 .721-.3285.722-.732z"/><path d="m52.118 8.82983c0-3.1497-2.5255-5.69523-5.6413-5.69523-3.1127 0-5.6398 2.54553-5.6398 5.69523 0 3.14667 2.5271 5.69937 5.6398 5.69937 3.1158 0 5.6413-2.5527 5.6413-5.69937z"/><path d="m51.4925 38.9429v-21.1306c0-.4009-.3234-.7289-.7238-.7289h-8.7202c-.4004 0-.7582.4122-.7582.8136v30.2738c0 .889.5544 1.1539 1.272 1.1539h7.8568c.8619 0 1.0734-.4235 1.0734-1.1683z"/><path d="m148.925 17.152h-8.681c-.398 0-.722.328-.722.732v22.4453s-2.206 1.6138-5.336 1.6138-3.96-1.4203-3.96-4.4853v-19.5738c0-.404-.324-.732-.722-.732h-8.811c-.397 0-.723.328-.723.732v21.0557c0 9.1037 5.074 11.3309 12.053 11.3309 5.727 0 10.343-3.1635 10.343-3.1635s.22 1.6672.32 1.8648c.099.1972.358.3963.638.3963l5.605-.0246c.398 0 .723-.3285.723-.731l-.003-30.7286c0-.404-.324-.732-.724-.732z"/><path d="m169.228 41.9153c-3.011-.0918-5.054-1.4578-5.054-1.4578v-14.4965s2.015-1.235 4.487-1.4558c3.126-.2797 6.138.6643 6.138 8.1217 0 7.8635-1.359 9.4157-5.571 9.2884zm3.423-25.7915c-4.93 0-8.283 2.2001-8.283 2.2001v-15.50112c0-.40398-.324-.73045-.722-.73045h-8.773c-.399 0-.723.32647-.723.73045v45.77642c0 .404.324.7325.724.7325h6.087c.274 0 .481-.1416.635-.3891.151-.2458.369-2.1102.369-2.1102s3.587 3.3992 10.378 3.3992c7.973 0 12.545-4.0439 12.545-18.1539 0-14.1101-7.303-15.9539-12.237-15.9539"/><path d="m76.6347 17.0791h-6.5623s-.0097-8.66735-.0097-8.6694c0-.32801-.1689-.49227-.5488-.49227h-8.9419c-.3475 0-.5344.15348-.5344.48765v8.95842s-4.4812 1.0815-4.7841 1.1693c-.3018.0873-.5241.3655-.5241.6976v5.6295c0 .4045.3234.7315.7233.7315h4.5849v13.5433c0 10.0589 7.0561 11.0471 11.8171 11.0471 2.1759 0 4.7784-.6987 5.2081-.8573.2597-.0954.4111-.3644.4111-.656l.0072-6.1931c0-.404-.3413-.731-.7253-.731-.3824 0-1.3608.1555-2.3679.1555-3.2231 0-4.3155-1.4983-4.3155-3.4382 0-1.9387-.0005-12.8703-.0005-12.8703h6.5628c.3998 0 .7242-.327.7242-.7315v-7.0514c0-.404-.3244-.7294-.7242-.7294z"/></g></svg>