<svg fill="none" height="51" viewBox="0 0 263 51" width="263" xmlns="http://www.w3.org/2000/svg"><g fill="#9b9b9b"><path d="m33.71 23.8271h-6.9693v-7.5765h-2.7399v7.5765h-6.9702v2.692h6.9702v7.5748h2.7399v-7.5748h6.9693z"/><path d="m19.6978 36.1961h-6.2452v-6.7826h-2.3632v6.7826h-6.24351v2.068h6.24351v6.7842h2.3632v-6.7842h6.2452z"/><path d="m45.8957 11.9326h-6.2435v-6.81537h-2.3657v6.81537h-6.2435v2.0663h6.2435v6.7523h2.3657v-6.7523h6.2435z"/><path d="m30.6569 43.723h-4.2369v-4.7306h-2.0183v4.7306h-4.2361v1.8266h4.2361v4.7314h2.0183v-4.7314h4.2369z"/><path d="m19.6978 11.9313h-6.3184v-6.81456h-2.2152v6.81456h-6.31831v2.0066h6.31831v6.8128h2.2152v-6.8128h6.3184z"/><path d="m50.6928 24.2598h-4.236v-4.7297h-2.0193v4.7297h-4.236v1.8267h4.236v4.7305h2.0193v-4.7305h4.236z"/><path clip-rule="evenodd" d="m45.8957 36.1961h-6.2435v-6.7826h-2.3657v6.7826h-6.2435v2.068h6.2435v6.7842h2.3657v-6.7842h6.2435z" fill-rule="evenodd"/><path d="m24.6567.281092v4.641418h-4.1907v1.40445h4.1907v4.64144h1.507v-4.64144h4.1923v-1.40445h-4.1923v-4.641418z"/><path d="m9.89172 24.4413h-4.20663v-4.5506h-1.47846v4.5506h-4.20663v1.4642l4.20663-.0269v4.5775h1.47846v-4.586l4.20663-.0252z"/><g clip-rule="evenodd" fill-rule="evenodd"><path d="m137.928 34.1352c3.274 0 5.151-1.8762 5.151-5.2183 0-3.2866-1.888-5.2587-4.832-5.2587-1.282 0-2.496.4432-3.386.8494v9.0347c1.082.397 2.093.5929 3.067.5929zm-3.067-12.8621c1.651-.6492 3.117-.8409 4.055-.8409 4.681 0 7.844 3.2899 7.844 8.4485 0 5.3504-3.324 8.4772-9.184 8.4772-2.033 0-4.026-.3927-6.12-1.1025l-.1-23.6621h3.505z"/><path d="m161.327 9.27147h3.47v31.05693h-3.47z"/><path d="m187.879 37.422c-5.343-.518-7.946-4.2739-7.796-8.7269.161-4.8088 3.274-8.2215 8.02-8.2215 4.978 0 7.862 3.6835 7.615 9.1172h-11.984c.286 3.0099 2.094 4.4353 4.564 4.6246 2.056.1597 4.96-.3062 6.533-1.2935v3.3101c-2.073 1.0084-4.231 1.4541-6.952 1.19zm-3.929-10.3837h7.964c-.09-2.1192-1.229-3.2193-3.257-3.3496-2.042-.1312-4.021 1.1816-4.707 3.3496"/><path d="m247.146 34.6904c2.2 0 3.684-1.121 3.684-3.6314v-10.2743h3.506v10.7066c0 3.5784-2.778 5.7616-7.191 5.7616-4.41 0-7.188-2.1832-7.188-5.7616v-10.7066h3.503v10.2743c0 2.5104 1.49 3.6314 3.686 3.6314z"/><path d="m107.923 34.1353c.798-.0118 1.767-.0707 3.001-.3818l.066-8.9641c-1.123-.7695-2.205-1.1312-3.385-1.1312-2.945 0-4.832 1.9722-4.832 5.2587 0 3.3421 1.877 5.2646 5.15 5.2184zm.353 3.2227c-5.86.0185-9.1847-3.1268-9.1847-8.4772 0-5.1586 3.1657-8.4486 7.8427-8.4486 1.581 0 2.886.3499 4.056 1.1076v-1.1824h3.504l-.099 15.898c-1.474.6408-3.896 1.095-6.119 1.1026z"/><path d="m218.655 34.1353c.69-.0017 1.764-.0707 3-.3818l.065-8.9641c-1.123-.7695-2.207-1.1312-3.384-1.1312-2.946 0-4.832 1.9722-4.832 5.2587 0 3.3421 1.874 5.2251 5.151 5.2184zm.35 3.2227c-5.86.0185-9.183-3.1268-9.183-8.4772 0-5.1586 3.163-8.4486 7.842-8.4486 1.579 0 2.885.3499 4.056 1.1076v-1.1824h3.504l-.101 15.898c-1.472.6408-3.893 1.095-6.118 1.1026z"/></g><path d="m73.0137 13.7138h3.4699v9.8505h9.3737v3.2361h-9.3737v10.6806h-3.4699v-10.6806h-9.3745v-3.2361h9.3745z"/><path d="m259.707 22.6516h.269c.306 0 .562-.1118.562-.3986 0-.2027-.146-.4053-.562-.4053-.118 0-.202.0084-.269.0185zm0 1.2842h-.368v-2.3194c.194-.0278.379-.0564.656-.0564.353 0 .582.0757.721.1758.137.1026.212.259.212.4811 0 .3044-.203.4894-.451.5651v.016c.2.0387.341.222.385.5651.055.36.112.4987.147.5727h-.386c-.056-.074-.112-.2859-.156-.5912-.057-.2968-.206-.407-.5-.407h-.26zm.39-2.9661c-.916 0-1.665.7863-1.665 1.7551 0 .989.749 1.7652 1.673 1.7652.926.011 1.663-.7762 1.663-1.7559 0-.9781-.737-1.7644-1.663-1.7644zm.008-.323c1.136 0 2.043.9226 2.043 2.0781 0 1.1749-.907 2.0882-2.051 2.0882-1.139 0-2.062-.9133-2.062-2.0882 0-1.1555.923-2.0781 2.062-2.0781z"/></g></svg>