<svg width="1024" height="1024" viewBox="0 0 1024 1024" fill="none" xmlns="http://www.w3.org/2000/svg">
<path d="M98.7422 142.629C98.7422 118.391 118.391 98.7422 142.629 98.7422H171.887V512H98.7422V142.629Z" fill="#EEEEEE"/>
<path d="M501.027 512C501.027 400.91 410.973 310.855 299.887 310.855C188.797 310.855 98.7422 400.91 98.7422 512C98.7422 623.09 188.797 713.145 299.887 713.145C410.973 713.145 501.027 623.09 501.027 512Z" fill="#EEEEEE"/>
<path d="M522.973 925.258H552.23C576.465 925.258 596.113 905.609 596.113 881.371V512H522.973V925.258Z" fill="#EEEEEE"/>
<path d="M925.258 512C925.258 400.91 835.203 310.855 724.113 310.855C613.027 310.855 522.973 400.91 522.973 512C522.973 623.09 613.027 713.145 724.113 713.145C835.203 713.145 925.258 623.09 925.258 512Z" fill="#EEEEEE"/>
<path fill-rule="evenodd" clip-rule="evenodd" d="M413.258 570.074C422.57 552.324 427.84 532.121 427.84 510.684C427.84 490.242 423.051 470.922 414.527 453.777H609.383C600.859 470.922 596.07 490.242 596.07 510.684C596.07 532.121 601.34 552.324 610.652 570.074H413.258Z" fill="#FF7F11"/>
<path d="M427.887 512C427.887 441.309 370.578 384 299.887 384C229.191 384 171.887 441.309 171.887 512C171.887 582.691 229.191 640 299.887 640C370.578 640 427.887 582.691 427.887 512Z" fill="#00ADB5"/>
<path d="M852.113 512C852.113 441.309 794.809 384 724.113 384C653.422 384 596.113 441.309 596.113 512C596.113 582.691 653.422 640 724.113 640C794.809 640 852.113 582.691 852.113 512Z" fill="#00ADB5"/>
</svg>
